TwilioSansMono-Retina.ufo
<glyph name="exclam" format="2">
	<unicode hex="0021"/>
	<advance width="600"/>
	<outline>
		<contour>
			<point x="266" y="202" type="line"/>
			<point x="334" y="202" type="line"/>
			<point x="352" y="542" type="line"/>
			<point x="352" y="684" type="line"/>
			<point x="248" y="684" type="line"/>
			<point x="248" y="542" type="line"/>
		</contour>
		<contour>
			<point x="300" y="-12" type="curve" smooth="yes"/>
			<point x="347" y="-12"/>
			<point x="371" y="6"/>
			<point x="371" y="52" type="curve" smooth="yes"/>
			<point x="371" y="97"/>
			<point x="347" y="115"/>
			<point x="300" y="115" type="curve" smooth="yes"/>
			<point x="253" y="115"/>
			<point x="229" y="97"/>
			<point x="229" y="52" type="curve" smooth="yes"/>
			<point x="229" y="6"/>
			<point x="253" y="-12"/>
		</contour>
	</outline>
</glyph>
<glyph name="percent" format="2">
	<unicode hex="0025"/>
	<advance width="600"/>
	<outline>
		<contour>
			<point x="167" y="338" type="curve" smooth="yes"/>
			<point x="254" y="338"/>
			<point x="311" y="396"/>
			<point x="311" y="517" type="curve" smooth="yes"/>
			<point x="311" y="638"/>
			<point x="254" y="696"/>
			<point x="167" y="696" type="curve" smooth="yes"/>
			<point x="79" y="696"/>
			<point x="23" y="637"/>
			<point x="23" y="516" type="curve" smooth="yes"/>
			<point x="23" y="397"/>
			<point x="78" y="338"/>
		</contour>
		<contour>
			<point x="381" y="417" type="line"/>
			<point x="464" y="417" type="line"/>
			<point x="578" y="684" type="line"/>
			<point x="480" y="684" type="line"/>
		</contour>
		<contour>
			<point x="167" y="389" type="curve" smooth="yes"/>
			<point x="126" y="389"/>
			<point x="102" y="425"/>
			<point x="102" y="516" type="curve" smooth="yes"/>
			<point x="102" y="609"/>
			<point x="126" y="646"/>
			<point x="167" y="646" type="curve" smooth="yes"/>
			<point x="208" y="646"/>
			<point x="232" y="609"/>
			<point x="232" y="517" type="curve" smooth="yes"/>
			<point x="232" y="425"/>
			<point x="208" y="389"/>
		</contour>
		<contour>
			<point x="433" y="-12" type="curve" smooth="yes"/>
			<point x="522" y="-12"/>
			<point x="577" y="45"/>
			<point x="577" y="167" type="curve" smooth="yes"/>
			<point x="577" y="288"/>
			<point x="520" y="346"/>
			<point x="433" y="346" type="curve" smooth="yes"/>
			<point x="345" y="346"/>
			<point x="289" y="287"/>
			<point x="289" y="166" type="curve" smooth="yes"/>
			<point x="289" y="46"/>
			<point x="342" y="-12"/>
		</contour>
		<contour>
			<point x="433" y="39" type="curve" smooth="yes"/>
			<point x="393" y="39"/>
			<point x="368" y="74"/>
			<point x="368" y="166" type="curve" smooth="yes"/>
			<point x="368" y="260"/>
			<point x="392" y="296"/>
			<point x="433" y="296" type="curve" smooth="yes"/>
			<point x="474" y="296"/>
			<point x="498" y="259"/>
			<point x="498" y="167" type="curve" smooth="yes"/>
			<point x="498" y="74"/>
			<point x="474" y="39"/>
		</contour>
		<contour>
			<point x="22" y="0" type="line"/>
			<point x="120" y="0" type="line"/>
			<point x="220" y="267" type="line"/>
			<point x="136" y="267" type="line"/>
		</contour>
	</outline>
	<guideline x="172.273381295" y="419.4244604317" angle="0" identifier="JkEan2OEb0"/>
	<guideline x="258.892086331" y="428.8992805755" angle="90" identifier="UjmdlLQONB"/>
	<guideline x="176.2230215827" y="589.2230215827" angle="0" identifier="WUvEHzditj"/>
	<guideline x="228.8705035971" y="614.4748201439" angle="90" identifier="gQWYKcSkQd"/>
</glyph>
<glyph name="asterisk" format="2">
	<unicode hex="002A"/>
	<advance width="600"/>
	<outline>
		<contour>
			<point x="484" y="160" type="line"/>
			<point x="531" y="242" type="line"/>
			<point x="349" y="320" type="line"/>
			<point x="532" y="399" type="line"/>
			<point x="484" y="482" type="line"/>
			<point x="325" y="363" type="line"/>
			<point x="348" y="560" type="line"/>
			<point x="252" y="560" type="line"/>
			<point x="276" y="362" type="line"/>
			<point x="115" y="482" type="line"/>
			<point x="68" y="399" type="line"/>
			<point x="251" y="320" type="line"/>
			<point x="69" y="242" type="line"/>
			<point x="116" y="159" type="line"/>
			<point x="276" y="278" type="line"/>
			<point x="253" y="80" type="line"/>
			<point x="349" y="80" type="line"/>
			<point x="325" y="278" type="line"/>
		</contour>
	</outline>
	<guideline x="164.3884892086" y="556.4532374101" angle="0"/>
</glyph>
<glyph name="comma" format="2">
	<unicode hex="002C"/>
	<advance width="600"/>
	<outline>
		<contour>
			<point x="260" y="126" type="line"/>
			<point x="206" y="-175" type="line"/>
			<point x="273" y="-175" type="line"/>
			<point x="391" y="126" type="line"/>
		</contour>
	</outline>
</glyph>
<glyph name="hyphen" format="2">
	<unicode hex="002D"/>
	<advance width="600"/>
	<outline>
		<contour>
			<point x="476" y="353" type="line"/>
			<point x="124" y="353" type="line"/>
			<point x="124" y="268" type="line"/>
			<point x="476" y="268" type="line"/>
		</contour>
	</outline>
</glyph>
<glyph name="period" format="2">
	<unicode hex="002E"/>
	<advance width="600"/>
	<outline>
		<contour>
			<point x="300" y="-12" type="curve" smooth="yes"/>
			<point x="351" y="-12"/>
			<point x="378" y="7"/>
			<point x="378" y="59" type="curve" smooth="yes"/>
			<point x="378" y="110"/>
			<point x="351" y="129"/>
			<point x="300" y="129" type="curve" smooth="yes"/>
			<point x="249" y="129"/>
			<point x="222" y="110"/>
			<point x="222" y="59" type="curve" smooth="yes"/>
			<point x="222" y="7"/>
			<point x="249" y="-12"/>
		</contour>
	</outline>
</glyph>
<glyph name="one" format="2">
	<unicode hex="0031"/>
	<advance width="600"/>
	<outline>
		<contour>
			<point x="59" y="0" type="line"/>
			<point x="563" y="0" type="line"/>
			<point x="563" y="84" type="line"/>
			<point x="371" y="84" type="line"/>
			<point x="371" y="684" type="line"/>
			<point x="273" y="684" type="line"/>
			<point x="62" y="518" type="line"/>
			<point x="62" y="421" type="line"/>
			<point x="276" y="588" type="line"/>
			<point x="276" y="84" type="line"/>
			<point x="59" y="84" type="line"/>
		</contour>
	</outline>
</glyph>
<glyph name="two" format="2">
	<unicode hex="0032"/>
	<advance width="600"/>
	<outline>
		<contour>
			<point x="71" y="0" type="line"/>
			<point x="526" y="0" type="line"/>
			<point x="526" y="85" type="line"/>
			<point x="206" y="85" type="line"/>
			<point x="300" y="155" type="line" smooth="yes"/>
			<point x="415" y="240"/>
			<point x="511" y="330"/>
			<point x="511" y="480" type="curve" smooth="yes"/>
			<point x="511" y="608"/>
			<point x="444" y="698"/>
			<point x="287" y="698" type="curve" smooth="yes"/>
			<point x="191" y="698"/>
			<point x="116" y="661"/>
			<point x="73" y="624" type="curve"/>
			<point x="73" y="534" type="line"/>
			<point x="131" y="586"/>
			<point x="198" y="616"/>
			<point x="270" y="616" type="curve" smooth="yes"/>
			<point x="373" y="616"/>
			<point x="414" y="559"/>
			<point x="414" y="470" type="curve" smooth="yes"/>
			<point x="414" y="347"/>
			<point x="325" y="275"/>
			<point x="220" y="192" type="curve" smooth="yes"/>
			<point x="71" y="75" type="line"/>
		</contour>
	</outline>
</glyph>
<glyph name="three" format="2">
	<unicode hex="0033"/>
	<advance width="600"/>
	<outline>
		<contour>
			<point x="287" y="-14" type="curve" smooth="yes"/>
			<point x="437" y="-14"/>
			<point x="527" y="78"/>
			<point x="527" y="216" type="curve" smooth="yes"/>
			<point x="527" y="345"/>
			<point x="453" y="411"/>
			<point x="313" y="411" type="curve" smooth="yes"/>
			<point x="293" y="411" type="line"/>
			<point x="518" y="607" type="line"/>
			<point x="518" y="684" type="line"/>
			<point x="72" y="684" type="line"/>
			<point x="72" y="604" type="line"/>
			<point x="399" y="604" type="line"/>
			<point x="152" y="383" type="line"/>
			<point x="152" y="314" type="line"/>
			<point x="184" y="327"/>
			<point x="225" y="338"/>
			<point x="279" y="338" type="curve" smooth="yes"/>
			<point x="381" y="338"/>
			<point x="431" y="299"/>
			<point x="431" y="211" type="curve" smooth="yes"/>
			<point x="431" y="128"/>
			<point x="384" y="66"/>
			<point x="283" y="66" type="curve" smooth="yes"/>
			<point x="212" y="66"/>
			<point x="138" y="93"/>
			<point x="70" y="148" type="curve"/>
			<point x="70" y="57" type="line"/>
			<point x="113" y="24"/>
			<point x="185" y="-14"/>
		</contour>
	</outline>
	<guideline x="177.7122302158" y="153.9136690648" angle="90"/>
</glyph>
<glyph name="five" format="2">
	<unicode hex="0035"/>
	<advance width="600"/>
	<outline>
		<contour>
			<point x="294" y="-14" type="curve" smooth="yes"/>
			<point x="435" y="-14"/>
			<point x="527" y="76"/>
			<point x="527" y="218" type="curve" smooth="yes"/>
			<point x="527" y="349"/>
			<point x="453" y="417"/>
			<point x="314" y="417" type="curve" smooth="yes"/>
			<point x="262" y="417"/>
			<point x="221" y="411"/>
			<point x="185" y="400" type="curve"/>
			<point x="186" y="604" type="line"/>
			<point x="514" y="604" type="line"/>
			<point x="514" y="684" type="line"/>
			<point x="98" y="684" type="line"/>
			<point x="98" y="303" type="line"/>
			<point x="151" y="326"/>
			<point x="210" y="341"/>
			<point x="278" y="341" type="curve" smooth="yes"/>
			<point x="388" y="341"/>
			<point x="431" y="294"/>
			<point x="431" y="212" type="curve" smooth="yes"/>
			<point x="431" y="119"/>
			<point x="378" y="66"/>
			<point x="288" y="66" type="curve" smooth="yes"/>
			<point x="224" y="66"/>
			<point x="148" y="89"/>
			<point x="74" y="151" type="curve"/>
			<point x="74" y="62" type="line"/>
			<point x="126" y="18"/>
			<point x="196" y="-14"/>
		</contour>
	</outline>
</glyph>
<glyph name="seven" format="2">
	<unicode hex="0037"/>
	<advance width="600"/>
	<outline>
		<contour>
			<point x="144" y="0" type="line"/>
			<point x="247" y="0" type="line"/>
			<point x="551" y="595" type="line"/>
			<point x="551" y="684" type="line"/>
			<point x="62" y="684" type="line"/>
			<point x="62" y="477" type="line"/>
			<point x="147" y="477" type="line"/>
			<point x="147" y="608" type="line"/>
			<point x="455" y="608" type="line"/>
		</contour>
	</outline>
</glyph>
<glyph name="eight" format="2">
	<unicode hex="0038"/>
	<advance width="600"/>
	<outline>
		<contour>
			<point x="300" y="-14" type="curve" smooth="yes"/>
			<point x="450" y="-14"/>
			<point x="551" y="48"/>
			<point x="551" y="183" type="curve" smooth="yes"/>
			<point x="551" y="291"/>
			<point x="481" y="337"/>
			<point x="410" y="350" type="curve"/>
			<point x="478" y="364"/>
			<point x="539" y="418"/>
			<point x="539" y="511" type="curve" smooth="yes"/>
			<point x="539" y="642"/>
			<point x="442" y="698"/>
			<point x="300" y="698" type="curve" smooth="yes"/>
			<point x="158" y="698"/>
			<point x="61" y="640"/>
			<point x="61" y="510" type="curve" smooth="yes"/>
			<point x="61" y="417"/>
			<point x="122" y="364"/>
			<point x="192" y="351" type="curve"/>
			<point x="119" y="337"/>
			<point x="49" y="291"/>
			<point x="49" y="181" type="curve" smooth="yes"/>
			<point x="49" y="47"/>
			<point x="150" y="-14"/>
		</contour>
		<contour>
			<point x="300" y="383" type="curve" smooth="yes"/>
			<point x="215" y="383"/>
			<point x="155" y="415"/>
			<point x="155" y="502" type="curve" smooth="yes"/>
			<point x="155" y="591"/>
			<point x="215" y="624"/>
			<point x="300" y="624" type="curve" smooth="yes"/>
			<point x="386" y="624"/>
			<point x="445" y="591"/>
			<point x="445" y="502" type="curve" smooth="yes"/>
			<point x="445" y="415"/>
			<point x="386" y="383"/>
		</contour>
		<contour>
			<point x="300" y="62" type="curve" smooth="yes"/>
			<point x="209" y="62"/>
			<point x="146" y="100"/>
			<point x="146" y="196" type="curve" smooth="yes"/>
			<point x="146" y="286"/>
			<point x="206" y="315"/>
			<point x="300" y="315" type="curve" smooth="yes"/>
			<point x="394" y="315"/>
			<point x="454" y="286"/>
			<point x="454" y="196" type="curve" smooth="yes"/>
			<point x="454" y="100"/>
			<point x="391" y="62"/>
		</contour>
	</outline>
	<guideline x="340.1438848921" y="310.1726618705" angle="90"/>
	<guideline x="383.2589928057" y="553.3381294964" angle="90"/>
</glyph>
<glyph name="nine" format="2">
	<unicode hex="0039"/>
	<advance width="600"/>
	<outline>
		<contour>
			<point x="266" y="-14" type="curve" smooth="yes"/>
			<point x="494" y="-14"/>
			<point x="547" y="173"/>
			<point x="547" y="361" type="curve" smooth="yes"/>
			<point x="547" y="373" type="line" smooth="yes"/>
			<point x="547" y="556"/>
			<point x="499" y="698"/>
			<point x="298" y="698" type="curve" smooth="yes"/>
			<point x="144" y="698"/>
			<point x="55" y="594"/>
			<point x="55" y="454" type="curve" smooth="yes"/>
			<point x="55" y="329"/>
			<point x="119" y="240"/>
			<point x="259" y="240" type="curve" smooth="yes"/>
			<point x="348" y="240"/>
			<point x="412" y="280"/>
			<point x="446" y="360" type="curve"/>
			<point x="444" y="166"/>
			<point x="406" y="65"/>
			<point x="257" y="65" type="curve" smooth="yes"/>
			<point x="192" y="65"/>
			<point x="111" y="94"/>
			<point x="69" y="133" type="curve"/>
			<point x="69" y="45" type="line"/>
			<point x="109" y="15"/>
			<point x="186" y="-14"/>
		</contour>
		<contour>
			<point x="294" y="311" type="curve" smooth="yes"/>
			<point x="203" y="311"/>
			<point x="153" y="360"/>
			<point x="153" y="459" type="curve" smooth="yes"/>
			<point x="153" y="566"/>
			<point x="209" y="621"/>
			<point x="298" y="621" type="curve" smooth="yes"/>
			<point x="395" y="621"/>
			<point x="445" y="552"/>
			<point x="445" y="457" type="curve" smooth="yes"/>
			<point x="445" y="366"/>
			<point x="385" y="311"/>
		</contour>
	</outline>
</glyph>
<glyph name="less" format="2">
	<unicode hex="003C"/>
	<advance width="600"/>
	<outline>
		<contour>
			<point x="526" y="46" type="line"/>
			<point x="526" y="141" type="line"/>
			<point x="151" y="311" type="line"/>
			<point x="526" y="482" type="line"/>
			<point x="526" y="576" type="line"/>
			<point x="74" y="362" type="line"/>
			<point x="74" y="260" type="line"/>
		</contour>
	</outline>
</glyph>
<glyph name="greater" format="2">
	<unicode hex="003E"/>
	<advance width="600"/>
	<outline>
		<contour>
			<point x="74" y="46" type="line"/>
			<point x="526" y="260" type="line"/>
			<point x="526" y="362" type="line"/>
			<point x="74" y="576" type="line"/>
			<point x="74" y="482" type="line"/>
			<point x="449" y="311" type="line"/>
			<point x="74" y="141" type="line"/>
		</contour>
	</outline>
</glyph>
<glyph name="at" format="2">
	<unicode hex="0040"/>
	<advance width="600"/>
	<outline>
		<contour>
			<point x="366" y="-134" type="curve" smooth="yes"/>
			<point x="442" y="-134"/>
			<point x="504" y="-119"/>
			<point x="545" y="-97" type="curve"/>
			<point x="545" y="-29" type="line"/>
			<point x="498" y="-53"/>
			<point x="444" y="-64"/>
			<point x="367" y="-64" type="curve" smooth="yes"/>
			<point x="183" y="-64"/>
			<point x="116" y="75"/>
			<point x="116" y="286" type="curve" smooth="yes"/>
			<point x="116" y="293" type="line" smooth="yes"/>
			<point x="116" y="513"/>
			<point x="185" y="629"/>
			<point x="323" y="629" type="curve" smooth="yes"/>
			<point x="438" y="629"/>
			<point x="470" y="566"/>
			<point x="470" y="472" type="curve" smooth="yes"/>
			<point x="470" y="397" type="line"/>
			<point x="450" y="454"/>
			<point x="408" y="492"/>
			<point x="348" y="492" type="curve" smooth="yes"/>
			<point x="258" y="492"/>
			<point x="200" y="413"/>
			<point x="200" y="276" type="curve" smooth="yes"/>
			<point x="200" y="142"/>
			<point x="252" y="63"/>
			<point x="346" y="63" type="curve" smooth="yes"/>
			<point x="414" y="63"/>
			<point x="454" y="105"/>
			<point x="471" y="169" type="curve"/>
			<point x="471" y="67" type="line"/>
			<point x="545" y="67" type="line"/>
			<point x="545" y="476" type="line" smooth="yes"/>
			<point x="545" y="616"/>
			<point x="484" y="698"/>
			<point x="325" y="698" type="curve" smooth="yes"/>
			<point x="138" y="698"/>
			<point x="43" y="544"/>
			<point x="43" y="297" type="curve" smooth="yes"/>
			<point x="43" y="283" type="line" smooth="yes"/>
			<point x="43" y="3"/>
			<point x="153" y="-134"/>
		</contour>
		<contour>
			<point x="370" y="128" type="curve" smooth="yes"/>
			<point x="308" y="128"/>
			<point x="274" y="180"/>
			<point x="274" y="277" type="curve" smooth="yes"/>
			<point x="274" y="374"/>
			<point x="308" y="427"/>
			<point x="370" y="427" type="curve" smooth="yes"/>
			<point x="430" y="427"/>
			<point x="473" y="372"/>
			<point x="473" y="276" type="curve" smooth="yes"/>
			<point x="473" y="177"/>
			<point x="434" y="128"/>
		</contour>
	</outline>
</glyph>
<glyph name="A" format="2">
	<unicode hex="0041"/>
	<advance width="600"/>
	<outline>
		<contour>
			<point x="22" y="0" type="line"/>
			<point x="120" y="0" type="line"/>
			<point x="170" y="171" type="line"/>
			<point x="429" y="171" type="line"/>
			<point x="479" y="0" type="line"/>
			<point x="578" y="0" type="line"/>
			<point x="363" y="687" type="line"/>
			<point x="234" y="687" type="line"/>
		</contour>
		<contour>
			<point x="193" y="250" type="line"/>
			<point x="298" y="613" type="line"/>
			<point x="405" y="250" type="line"/>
		</contour>
	</outline>
	<anchor name="bottom" x="318" y="0"/>
	<anchor name="ogonek" x="578" y="0"/>
	<anchor name="top" x="299" y="684"/>
	<guideline x="632.618705036" y="162.7338129496" angle="180"/>
	<guideline x="436.1942446043" y="406.892086331" angle="90"/>
</glyph>
<glyph name="D" format="2">
	<unicode hex="0044"/>
	<advance width="600"/>
	<outline>
		<contour>
			<point x="70" y="0" type="line"/>
			<point x="282" y="0" type="line" smooth="yes"/>
			<point x="449" y="0"/>
			<point x="553" y="106"/>
			<point x="553" y="334" type="curve" smooth="yes"/>
			<point x="553" y="350" type="line" smooth="yes"/>
			<point x="553" y="579"/>
			<point x="446" y="684"/>
			<point x="280" y="684" type="curve" smooth="yes"/>
			<point x="70" y="684" type="line"/>
		</contour>
		<contour>
			<point x="266" y="605" type="line" smooth="yes"/>
			<point x="385" y="605"/>
			<point x="453" y="528"/>
			<point x="453" y="350" type="curve" smooth="yes"/>
			<point x="453" y="335" type="line" smooth="yes"/>
			<point x="453" y="156"/>
			<point x="391" y="81"/>
			<point x="268" y="81" type="curve" smooth="yes"/>
			<point x="165" y="81" type="line"/>
			<point x="165" y="605" type="line"/>
		</contour>
	</outline>
	<anchor name="bottom" x="319" y="0"/>
	<anchor name="center" x="158" y="342"/>
	<anchor name="top" x="269" y="684"/>
</glyph>
<glyph name="E" format="2">
	<unicode hex="0045"/>
	<advance width="600"/>
	<outline>
		<contour>
			<point x="89" y="684" type="line"/>
			<point x="89" y="0" type="line"/>
			<point x="533" y="0" type="line"/>
			<point x="533" y="81" type="line"/>
			<point x="185" y="81" type="line"/>
			<point x="185" y="303" type="line"/>
			<point x="490" y="303" type="line"/>
			<point x="490" y="383" type="line"/>
			<point x="185" y="383" type="line"/>
			<point x="185" y="604" type="line"/>
			<point x="526" y="604" type="line"/>
			<point x="526" y="684" type="line"/>
		</contour>
	</outline>
	<anchor name="bottom" x="317" y="0"/>
	<anchor name="ogonek" x="533" y="0"/>
	<anchor name="top" x="308" y="684"/>
</glyph>
<glyph name="G" format="2">
	<unicode hex="0047"/>
	<advance width="600"/>
	<outline>
		<contour>
			<point x="304" y="-13" type="curve" smooth="yes"/>
			<point x="452" y="-13"/>
			<point x="552" y="92"/>
			<point x="552" y="291" type="curve" smooth="yes"/>
			<point x="552" y="377" type="line"/>
			<point x="286" y="377" type="line"/>
			<point x="286" y="300" type="line"/>
			<point x="459" y="300" type="line"/>
			<point x="459" y="281" type="line" smooth="yes"/>
			<point x="459" y="141"/>
			<point x="399" y="66"/>
			<point x="305" y="66" type="curve" smooth="yes"/>
			<point x="197" y="66"/>
			<point x="139" y="148"/>
			<point x="139" y="336" type="curve" smooth="yes"/>
			<point x="139" y="343" type="line" smooth="yes"/>
			<point x="139" y="526"/>
			<point x="193" y="619"/>
			<point x="333" y="619" type="curve" smooth="yes"/>
			<point x="403" y="619"/>
			<point x="470" y="595"/>
			<point x="516" y="554" type="curve"/>
			<point x="516" y="645" type="line"/>
			<point x="478" y="674"/>
			<point x="411" y="698"/>
			<point x="326" y="698" type="curve" smooth="yes"/>
			<point x="134" y="698"/>
			<point x="41" y="571"/>
			<point x="41" y="346" type="curve" smooth="yes"/>
			<point x="41" y="332" type="line" smooth="yes"/>
			<point x="41" y="100"/>
			<point x="133" y="-13"/>
		</contour>
	</outline>
	<anchor name="bottom" x="306" y="0"/>
	<anchor name="top" x="317" y="684"/>
	<guideline x="382.4964028777" y="251.1366906475" angle="0"/>
</glyph>
<glyph name="J" format="2">
	<unicode hex="004A"/>
	<advance width="600"/>
	<outline>
		<contour>
			<point x="258" y="-13" type="curve" smooth="yes"/>
			<point x="402" y="-13"/>
			<point x="504" y="55"/>
			<point x="504" y="219" type="curve" smooth="yes"/>
			<point x="504" y="684" type="line"/>
			<point x="84" y="684" type="line"/>
			<point x="84" y="601" type="line"/>
			<point x="409" y="601" type="line"/>
			<point x="409" y="228" type="line" smooth="yes"/>
			<point x="409" y="117"/>
			<point x="351" y="68"/>
			<point x="245" y="68" type="curve" smooth="yes"/>
			<point x="186" y="68"/>
			<point x="130" y="84"/>
			<point x="84" y="108" type="curve"/>
			<point x="83" y="24" type="line"/>
			<point x="129" y="1"/>
			<point x="183" y="-13"/>
		</contour>
	</outline>
	<anchor name="bottom" x="87" y="0"/>
	<anchor name="top" x="301" y="684"/>
	<guideline x="311.726618705" y="399.6834532374" angle="90"/>
</glyph>
<glyph name="K" format="2">
	<unicode hex="004B"/>
	<advance width="600"/>
	<outline>
		<contour>
			<point x="79" y="0" type="line"/>
			<point x="175" y="0" type="line"/>
			<point x="175" y="197" type="line"/>
			<point x="283" y="342" type="line"/>
			<point x="464" y="0" type="line"/>
			<point x="573" y="0" type="line"/>
			<point x="358" y="405" type="line"/>
			<point x="557" y="685" type="line"/>
			<point x="447" y="685" type="line"/>
			<point x="175" y="303" type="line"/>
			<point x="175" y="685" type="line"/>
			<point x="79" y="685" type="line"/>
		</contour>
	</outline>
	<anchor name="bottom" x="311" y="0"/>
	<anchor name="top" x="335" y="684"/>
</glyph>
<glyph name="N" format="2">
	<unicode hex="004E"/>
	<advance width="600"/>
	<outline>
		<contour>
			<point x="73" y="0" type="line"/>
			<point x="157" y="0" type="line"/>
			<point x="157" y="339" type="line" smooth="yes"/>
			<point x="157" y="433"/>
			<point x="152" y="498"/>
			<point x="146" y="572" type="curve"/>
			<point x="153" y="572" type="line"/>
			<point x="409" y="0" type="line"/>
			<point x="527" y="0" type="line"/>
			<point x="527" y="685" type="line"/>
			<point x="443" y="685" type="line"/>
			<point x="443" y="346" type="line" smooth="yes"/>
			<point x="443" y="246"/>
			<point x="447" y="187"/>
			<point x="455" y="112" type="curve"/>
			<point x="448" y="112" type="line"/>
			<point x="191" y="685" type="line"/>
			<point x="73" y="685" type="line"/>
		</contour>
	</outline>
	<anchor name="bottom" x="279" y="0"/>
	<anchor name="top" x="318" y="684"/>
	<guideline x="512.5467625899" y="374.8201438849" angle="0"/>
</glyph>
<glyph name="O" format="2">
	<unicode hex="004F"/>
	<advance width="600"/>
	<outline>
		<contour>
			<point x="300" y="-14" type="curve" smooth="yes"/>
			<point x="453" y="-14"/>
			<point x="546" y="104"/>
			<point x="546" y="335" type="curve" smooth="yes"/>
			<point x="546" y="349" type="line" smooth="yes"/>
			<point x="546" y="579"/>
			<point x="453" y="698"/>
			<point x="300" y="698" type="curve" smooth="yes"/>
			<point x="147" y="698"/>
			<point x="54" y="579"/>
			<point x="54" y="349" type="curve" smooth="yes"/>
			<point x="54" y="335" type="line" smooth="yes"/>
			<point x="54" y="104"/>
			<point x="147" y="-14"/>
		</contour>
		<contour>
			<point x="300" y="66" type="curve" smooth="yes"/>
			<point x="206" y="66"/>
			<point x="151" y="148"/>
			<point x="151" y="339" type="curve" smooth="yes"/>
			<point x="151" y="346" type="line" smooth="yes"/>
			<point x="151" y="537"/>
			<point x="206" y="619"/>
			<point x="300" y="619" type="curve" smooth="yes"/>
			<point x="393" y="619"/>
			<point x="449" y="537"/>
			<point x="449" y="346" type="curve" smooth="yes"/>
			<point x="449" y="339" type="line" smooth="yes"/>
			<point x="449" y="148"/>
			<point x="393" y="66"/>
		</contour>
	</outline>
	<anchor name="bottom" x="302" y="0"/>
	<anchor name="center" x="306" y="351"/>
	<anchor name="top" x="300" y="684"/>
	<guideline x="281.9208633094" y="161.6115107914" angle="0"/>
	<guideline x="356.8345323741" y="161.3381294964" angle="90"/>
	<guideline x="281.7985611511" y="641.6043165467" angle="0"/>
</glyph>
<glyph name="Q" format="2">
	<unicode hex="0051"/>
	<advance width="600"/>
	<outline>
		<contour>
			<point x="337" y="-70" type="curve" smooth="yes"/>
			<point x="496" y="-121" type="line"/>
			<point x="535" y="-45" type="line"/>
			<point x="346" y="10" type="line"/>
			<point x="490" y="32"/>
			<point x="546" y="179"/>
			<point x="546" y="347" type="curve" smooth="yes"/>
			<point x="546" y="364" type="line" smooth="yes"/>
			<point x="546" y="580"/>
			<point x="454" y="698"/>
			<point x="301" y="698" type="curve" smooth="yes"/>
			<point x="147" y="698"/>
			<point x="54" y="579"/>
			<point x="54" y="351" type="curve" smooth="yes"/>
			<point x="54" y="334" type="line" smooth="yes"/>
			<point x="54" y="122"/>
			<point x="125" y="-2"/>
		</contour>
		<contour>
			<point x="299" y="66" type="curve" smooth="yes"/>
			<point x="206" y="66"/>
			<point x="152" y="153"/>
			<point x="152" y="336" type="curve" smooth="yes"/>
			<point x="152" y="349" type="line" smooth="yes"/>
			<point x="152" y="537"/>
			<point x="206" y="619"/>
			<point x="301" y="619" type="curve" smooth="yes"/>
			<point x="393" y="619"/>
			<point x="448" y="534"/>
			<point x="448" y="357" type="curve" smooth="yes"/>
			<point x="448" y="343" type="line" smooth="yes"/>
			<point x="448" y="162"/>
			<point x="389" y="66"/>
		</contour>
	</outline>
	<anchor name="bottom" x="291" y="0"/>
	<anchor name="top" x="284" y="684"/>
	<guideline x="392.9496402878" y="419.6402877698" angle="90"/>
</glyph>
<glyph name="T" format="2">
	<unicode hex="0054"/>
	<advance width="600"/>
	<outline>
		<contour>
			<point x="253" y="0" type="line"/>
			<point x="348" y="0" type="line"/>
			<point x="348" y="601" type="line"/>
			<point x="555" y="601" type="line"/>
			<point x="555" y="684" type="line"/>
			<point x="45" y="684" type="line"/>
			<point x="45" y="601" type="line"/>
			<point x="253" y="601" type="line"/>
		</contour>
	</outline>
	<anchor name="bottom" x="300" y="0"/>
	<anchor name="center" x="300" y="356"/>
	<anchor name="top" x="300" y="684"/>
</glyph>
<glyph name="V" format="2">
	<unicode hex="0056"/>
	<advance width="600"/>
	<outline>
		<contour>
			<point x="234" y="-2" type="line"/>
			<point x="366" y="-2" type="line"/>
			<point x="571" y="684" type="line"/>
			<point x="471" y="684" type="line"/>
			<point x="300" y="85" type="line"/>
			<point x="129" y="684" type="line"/>
			<point x="29" y="684" type="line"/>
		</contour>
	</outline>
	<anchor name="bottom" x="314" y="0"/>
	<anchor name="ogonek" x="602" y="0"/>
	<anchor name="overlap" x="306" y="684"/>
	<anchor name="top" x="310" y="684"/>
	<guideline x="562.5035971223" y="720" angle="0"/>
	<guideline x="635.2086330935" y="560.6330935251" angle="0"/>
</glyph>
<glyph name="W" format="2">
	<unicode hex="0057"/>
	<advance width="600"/>
	<outline>
		<contour>
			<point x="108" y="0" type="line"/>
			<point x="221" y="0" type="line"/>
			<point x="296" y="418" type="line"/>
			<point x="303" y="418" type="line"/>
			<point x="377" y="0" type="line"/>
			<point x="491" y="0" type="line"/>
			<point x="566" y="684" type="line"/>
			<point x="482" y="684" type="line"/>
			<point x="428" y="96" type="line"/>
			<point x="423" y="96" type="line"/>
			<point x="346" y="528" type="line"/>
			<point x="255" y="528" type="line"/>
			<point x="178" y="96" type="line"/>
			<point x="171" y="96" type="line"/>
			<point x="118" y="684" type="line"/>
			<point x="34" y="684" type="line"/>
		</contour>
	</outline>
	<anchor name="top" x="301" y="684"/>
</glyph>
<glyph name="bracketleft" format="2">
	<unicode hex="005B"/>
	<advance width="600"/>
	<outline>
		<contour>
			<point x="484" y="-93" type="line"/>
			<point x="281" y="-93" type="line"/>
			<point x="281" y="722" type="line"/>
			<point x="484" y="722" type="line"/>
			<point x="484" y="792" type="line"/>
			<point x="193" y="792" type="line"/>
			<point x="193" y="-163" type="line"/>
			<point x="484" y="-163" type="line"/>
		</contour>
	</outline>
</glyph>
<glyph name="backslash" format="2">
	<unicode hex="005C"/>
	<advance width="600"/>
	<outline>
		<contour>
			<point x="439" y="-163" type="line"/>
			<point x="534" y="-163" type="line"/>
			<point x="160" y="792" type="line"/>
			<point x="66" y="792" type="line"/>
		</contour>
	</outline>
</glyph>
<glyph name="grave" format="2">
	<unicode hex="0060"/>
	<advance width="600"/>
	<outline>
		<contour>
			<point x="195" y="750" type="line"/>
			<point x="302" y="604" type="line"/>
			<point x="378" y="604" type="line"/>
			<point x="302" y="750" type="line"/>
		</contour>
	</outline>
	<anchor name="_top" x="338" y="523"/>
</glyph>
<glyph name="b" format="2">
	<unicode hex="0062"/>
	<advance width="600"/>
	<outline>
		<contour>
			<point x="341" y="-14" type="curve"/>
			<point x="456" y="-14"/>
			<point x="542" y="85"/>
			<point x="542" y="256" type="curve" smooth="yes"/>
			<point x="542" y="270" type="line" smooth="yes"/>
			<point x="542" y="436"/>
			<point x="464" y="537"/>
			<point x="347" y="537" type="curve" smooth="yes"/>
			<point x="267" y="537"/>
			<point x="207" y="489"/>
			<point x="175" y="415" type="curve"/>
			<point x="175" y="750" type="line"/>
			<point x="81" y="750" type="line"/>
			<point x="81" y="0" type="line"/>
			<point x="172" y="0" type="line"/>
			<point x="172" y="98" type="line"/>
			<point x="207" y="24"/>
			<point x="263" y="-14"/>
		</contour>
		<contour>
			<point x="309" y="62" type="curve" smooth="yes"/>
			<point x="226" y="62"/>
			<point x="170" y="130"/>
			<point x="170" y="258" type="curve" smooth="yes"/>
			<point x="170" y="265" type="line" smooth="yes"/>
			<point x="170" y="396"/>
			<point x="231" y="462"/>
			<point x="311" y="462" type="curve" smooth="yes"/>
			<point x="392" y="462"/>
			<point x="445" y="397"/>
			<point x="445" y="266" type="curve" smooth="yes"/>
			<point x="445" y="259" type="line" smooth="yes"/>
			<point x="445" y="129"/>
			<point x="393" y="62"/>
		</contour>
	</outline>
	<guideline x="444.0647482015" y="179.0575539568" angle="90"/>
	<guideline x="390.8129496403" y="494.9136690648" angle="90"/>
</glyph>
<glyph name="d" format="2">
	<unicode hex="0064"/>
	<advance width="600"/>
	<outline>
		<contour>
			<point x="254" y="-14" type="curve"/>
			<point x="336" y="-14"/>
			<point x="395" y="35"/>
			<point x="427" y="110" type="curve"/>
			<point x="427" y="0" type="line"/>
			<point x="518" y="0" type="line"/>
			<point x="518" y="750" type="line"/>
			<point x="425" y="750" type="line"/>
			<point x="425" y="426" type="line"/>
			<point x="392" y="497"/>
			<point x="340" y="537"/>
			<point x="261" y="537" type="curve" smooth="yes"/>
			<point x="146" y="537"/>
			<point x="59" y="437"/>
			<point x="59" y="269" type="curve" smooth="yes"/>
			<point x="59" y="257" type="line" smooth="yes"/>
			<point x="59" y="86"/>
			<point x="133" y="-14"/>
		</contour>
		<contour>
			<point x="289" y="61" type="curve" smooth="yes"/>
			<point x="208" y="61"/>
			<point x="155" y="126"/>
			<point x="155" y="259" type="curve" smooth="yes"/>
			<point x="155" y="265" type="line" smooth="yes"/>
			<point x="155" y="394"/>
			<point x="208" y="461"/>
			<point x="291" y="461" type="curve" smooth="yes"/>
			<point x="376" y="461"/>
			<point x="429" y="393"/>
			<point x="429" y="265" type="curve" smooth="yes"/>
			<point x="429" y="258" type="line" smooth="yes"/>
			<point x="429" y="127"/>
			<point x="370" y="61"/>
		</contour>
	</outline>
	<anchor name="caron" x="624" y="778"/>
	<anchor name="center" x="425" y="627"/>
	<anchor name="top" x="349" y="550"/>
</glyph>
<glyph name="e" format="2">
	<unicode hex="0065"/>
	<advance width="600"/>
	<outline>
		<contour>
			<point x="342" y="-14" type="curve" smooth="yes"/>
			<point x="414" y="-14"/>
			<point x="471" y="2"/>
			<point x="515" y="28" type="curve"/>
			<point x="515" y="104" type="line"/>
			<point x="471" y="78"/>
			<point x="420" y="63"/>
			<point x="359" y="63" type="curve" smooth="yes"/>
			<point x="251" y="63"/>
			<point x="169" y="118"/>
			<point x="164" y="239" type="curve"/>
			<point x="530" y="239" type="line"/>
			<point x="530" y="280" type="line"/>
			<point x="530" y="451"/>
			<point x="441" y="537"/>
			<point x="305" y="537" type="curve" smooth="yes"/>
			<point x="172" y="537"/>
			<point x="70" y="433"/>
			<point x="70" y="269" type="curve" smooth="yes"/>
			<point x="70" y="256" type="line" smooth="yes"/>
			<point x="70" y="82"/>
			<point x="174" y="-14"/>
		</contour>
		<contour>
			<point x="305" y="467" type="curve" smooth="yes"/>
			<point x="380" y="467"/>
			<point x="435" y="411"/>
			<point x="438" y="299" type="curve"/>
			<point x="163" y="299" type="line"/>
			<point x="169" y="402"/>
			<point x="225" y="467"/>
		</contour>
	</outline>
	<anchor name="ogonek" x="450" y="0"/>
	<anchor name="top" x="304" y="523"/>
</glyph>
<glyph name="f" format="2">
	<unicode hex="0066"/>
	<advance width="600"/>
	<outline>
		<contour>
			<point x="59" y="0" type="line"/>
			<point x="519" y="0" type="line"/>
			<point x="519" y="76" type="line"/>
			<point x="320" y="76" type="line"/>
			<point x="320" y="447" type="line"/>
			<point x="523" y="447" type="line"/>
			<point x="523" y="523" type="line"/>
			<point x="320" y="523" type="line"/>
			<point x="320" y="603" type="line" smooth="yes"/>
			<point x="320" y="661"/>
			<point x="355" y="686"/>
			<point x="413" y="686" type="curve" smooth="yes"/>
			<point x="451" y="686"/>
			<point x="494" y="677"/>
			<point x="516" y="665" type="curve"/>
			<point x="516" y="737" type="line"/>
			<point x="489" y="751"/>
			<point x="445" y="760"/>
			<point x="396" y="760" type="curve" smooth="yes"/>
			<point x="296" y="760"/>
			<point x="226" y="710"/>
			<point x="226" y="609" type="curve" smooth="yes"/>
			<point x="226" y="523" type="line"/>
			<point x="64" y="523" type="line"/>
			<point x="64" y="447" type="line"/>
			<point x="226" y="447" type="line"/>
			<point x="226" y="76" type="line"/>
			<point x="59" y="76" type="line"/>
		</contour>
	</outline>
</glyph>
<glyph name="k" format="2">
	<unicode hex="006B"/>
	<advance width="600"/>
	<outline>
		<contour>
			<point x="106" y="0" type="line"/>
			<point x="198" y="0" type="line"/>
			<point x="198" y="136" type="line"/>
			<point x="289" y="247" type="line"/>
			<point x="435" y="0" type="line"/>
			<point x="541" y="0" type="line"/>
			<point x="362" y="306" type="line"/>
			<point x="533" y="524" type="line"/>
			<point x="426" y="524" type="line"/>
			<point x="198" y="229" type="line"/>
			<point x="198" y="750" type="line"/>
			<point x="106" y="750" type="line"/>
		</contour>
	</outline>
	<anchor name="bottom" x="309" y="0"/>
	<anchor name="top" x="225" y="523"/>
</glyph>
<glyph name="l" format="2">
	<unicode hex="006C"/>
	<advance width="600"/>
	<outline>
		<contour>
			<point x="74" y="0" type="line"/>
			<point x="535" y="0" type="line"/>
			<point x="535" y="76" type="line"/>
			<point x="356" y="76" type="line"/>
			<point x="356" y="750" type="line"/>
			<point x="75" y="750" type="line"/>
			<point x="75" y="674" type="line"/>
			<point x="262" y="674" type="line"/>
			<point x="262" y="76" type="line"/>
			<point x="74" y="76" type="line"/>
		</contour>
	</outline>
	<anchor name="bottom" x="309" y="-1"/>
	<anchor name="caron" x="475" y="750"/>
	<anchor name="center" x="306" y="374"/>
	<anchor name="top" x="309" y="729"/>
</glyph>
<glyph name="n" format="2">
	<unicode hex="006E"/>
	<advance width="600"/>
	<outline>
		<contour>
			<point x="90" y="0" type="line"/>
			<point x="184" y="0" type="line"/>
			<point x="184" y="303" type="line" smooth="yes"/>
			<point x="184" y="332"/>
			<point x="188" y="360"/>
			<point x="200" y="383" type="curve" smooth="yes"/>
			<point x="220" y="426"/>
			<point x="255" y="459"/>
			<point x="313" y="459" type="curve" smooth="yes"/>
			<point x="381" y="459"/>
			<point x="421" y="412"/>
			<point x="421" y="326" type="curve" smooth="yes"/>
			<point x="421" y="0" type="line"/>
			<point x="514" y="0" type="line"/>
			<point x="514" y="346" type="line" smooth="yes"/>
			<point x="514" y="474"/>
			<point x="452" y="537"/>
			<point x="353" y="537" type="curve" smooth="yes"/>
			<point x="272" y="537"/>
			<point x="215" y="490"/>
			<point x="181" y="415" type="curve"/>
			<point x="181" y="523" type="line"/>
			<point x="90" y="523" type="line"/>
		</contour>
	</outline>
	<anchor name="bottom" x="302" y="0"/>
	<anchor name="top" x="307" y="523"/>
</glyph>
<glyph name="r" format="2">
	<unicode hex="0072"/>
	<advance width="600"/>
	<outline>
		<contour>
			<point x="74" y="0" type="line"/>
			<point x="502" y="0" type="line"/>
			<point x="502" y="76" type="line"/>
			<point x="309" y="76" type="line"/>
			<point x="309" y="258" type="line"/>
			<point x="309" y="351"/>
			<point x="365" y="442"/>
			<point x="465" y="442" type="curve" smooth="yes"/>
			<point x="492" y="442"/>
			<point x="520" y="437"/>
			<point x="537" y="429" type="curve"/>
			<point x="537" y="520" type="line"/>
			<point x="525" y="527"/>
			<point x="504" y="531"/>
			<point x="481" y="531" type="curve" smooth="yes"/>
			<point x="388" y="531"/>
			<point x="337" y="470"/>
			<point x="307" y="381" type="curve"/>
			<point x="307" y="523" type="line"/>
			<point x="76" y="523" type="line"/>
			<point x="76" y="447" type="line"/>
			<point x="215" y="447" type="line"/>
			<point x="215" y="76" type="line"/>
			<point x="74" y="76" type="line"/>
		</contour>
	</outline>
	<anchor name="bottom" x="263" y="0"/>
	<anchor name="top" x="337" y="523"/>
</glyph>
<glyph name="s" format="2">
	<unicode hex="0073"/>
	<advance width="600"/>
	<outline>
		<contour>
			<point x="305" y="-14" type="curve" smooth="yes"/>
			<point x="441" y="-14"/>
			<point x="512" y="56"/>
			<point x="512" y="154" type="curve" smooth="yes"/>
			<point x="512" y="261"/>
			<point x="426" y="283"/>
			<point x="308" y="304" type="curve" smooth="yes"/>
			<point x="228" y="318"/>
			<point x="177" y="328"/>
			<point x="177" y="386" type="curve" smooth="yes"/>
			<point x="177" y="434"/>
			<point x="216" y="467"/>
			<point x="295" y="467" type="curve" smooth="yes"/>
			<point x="376" y="467"/>
			<point x="451" y="445"/>
			<point x="503" y="405" type="curve"/>
			<point x="503" y="486" type="line"/>
			<point x="449" y="519"/>
			<point x="380" y="537"/>
			<point x="296" y="537" type="curve" smooth="yes"/>
			<point x="176" y="537"/>
			<point x="88" y="478"/>
			<point x="88" y="374" type="curve" smooth="yes"/>
			<point x="88" y="263"/>
			<point x="169" y="239"/>
			<point x="290" y="220" type="curve" smooth="yes"/>
			<point x="375" y="207"/>
			<point x="423" y="196"/>
			<point x="423" y="142" type="curve" smooth="yes"/>
			<point x="423" y="90"/>
			<point x="382" y="57"/>
			<point x="306" y="57" type="curve" smooth="yes"/>
			<point x="235" y="57"/>
			<point x="155" y="79"/>
			<point x="95" y="125" type="curve"/>
			<point x="95" y="44" type="line"/>
			<point x="147" y="9"/>
			<point x="220" y="-14"/>
		</contour>
	</outline>
	<anchor name="bottom" x="305" y="0"/>
	<anchor name="top" x="308" y="523"/>
</glyph>
<glyph name="u" format="2">
	<unicode hex="0075"/>
	<advance width="600"/>
	<outline>
		<contour>
			<point x="510" y="523" type="line"/>
			<point x="416" y="523" type="line"/>
			<point x="416" y="218" type="line" smooth="yes"/>
			<point x="416" y="190"/>
			<point x="413" y="159"/>
			<point x="402" y="136" type="curve" smooth="yes"/>
			<point x="381" y="93"/>
			<point x="345" y="63"/>
			<point x="287" y="63" type="curve" smooth="yes"/>
			<point x="219" y="63"/>
			<point x="179" y="109"/>
			<point x="179" y="195" type="curve" smooth="yes"/>
			<point x="179" y="523" type="line"/>
			<point x="86" y="523" type="line"/>
			<point x="86" y="177" type="line" smooth="yes"/>
			<point x="86" y="49"/>
			<point x="148" y="-14"/>
			<point x="248" y="-14" type="curve" smooth="yes"/>
			<point x="326" y="-14"/>
			<point x="384" y="31"/>
			<point x="419" y="104" type="curve"/>
			<point x="419" y="0" type="line"/>
			<point x="510" y="0" type="line"/>
		</contour>
	</outline>
	<anchor name="bottom" x="306" y="0"/>
	<anchor name="ogonek" x="510" y="0"/>
	<anchor name="top" x="298" y="523"/>
</glyph>
<glyph name="y" format="2">
	<unicode hex="0079"/>
	<advance width="600"/>
	<outline>
		<contour>
			<point x="170" y="-204" type="curve" smooth="yes"/>
			<point x="252" y="-204"/>
			<point x="307" y="-163"/>
			<point x="339" y="-66" type="curve" smooth="yes"/>
			<point x="538" y="523" type="line"/>
			<point x="440" y="523" type="line"/>
			<point x="300" y="73" type="line"/>
			<point x="162" y="523" type="line"/>
			<point x="62" y="523" type="line"/>
			<point x="230" y="5" type="line"/>
			<point x="277" y="5" type="line"/>
			<point x="259" y="-45" type="line" smooth="yes"/>
			<point x="241" y="-109"/>
			<point x="208" y="-131"/>
			<point x="158" y="-131" type="curve" smooth="yes"/>
			<point x="134" y="-131"/>
			<point x="112" y="-128"/>
			<point x="96" y="-123" type="curve"/>
			<point x="96" y="-193" type="line"/>
			<point x="115" y="-200"/>
			<point x="137" y="-204"/>
		</contour>
	</outline>
	<anchor name="bottom" x="269" y="-62"/>
	<anchor name="top" x="301" y="523"/>
</glyph>
<glyph name="braceleft" format="2">
	<unicode hex="007B"/>
	<advance width="600"/>
	<outline>
		<contour>
			<point x="123" y="272" type="line"/>
			<point x="184" y="272" type="line" smooth="yes"/>
			<point x="256" y="272"/>
			<point x="278" y="233"/>
			<point x="278" y="203" type="curve" smooth="yes"/>
			<point x="278" y="134"/>
			<point x="173" y="71"/>
			<point x="173" y="-23" type="curve" smooth="yes"/>
			<point x="173" y="-101"/>
			<point x="226" y="-163"/>
			<point x="342" y="-163" type="curve" smooth="yes"/>
			<point x="491" y="-163" type="line"/>
			<point x="491" y="-93" type="line"/>
			<point x="368" y="-93" type="line" smooth="yes"/>
			<point x="304" y="-93"/>
			<point x="267" y="-67"/>
			<point x="267" y="-13" type="curve" smooth="yes"/>
			<point x="267" y="58"/>
			<point x="372" y="115"/>
			<point x="372" y="206" type="curve" smooth="yes"/>
			<point x="372" y="261"/>
			<point x="321" y="303"/>
			<point x="252" y="314" type="curve"/>
			<point x="321" y="325"/>
			<point x="372" y="366"/>
			<point x="372" y="421" type="curve" smooth="yes"/>
			<point x="372" y="512"/>
			<point x="267" y="570"/>
			<point x="267" y="643" type="curve" smooth="yes"/>
			<point x="267" y="698"/>
			<point x="307" y="722"/>
			<point x="366" y="722" type="curve" smooth="yes"/>
			<point x="491" y="722" type="line"/>
			<point x="491" y="792" type="line"/>
			<point x="342" y="792" type="line" smooth="yes"/>
			<point x="232" y="792"/>
			<point x="173" y="729"/>
			<point x="173" y="653" type="curve" smooth="yes"/>
			<point x="173" y="558"/>
			<point x="278" y="494"/>
			<point x="278" y="424" type="curve" smooth="yes"/>
			<point x="278" y="394"/>
			<point x="257" y="355"/>
			<point x="184" y="355" type="curve" smooth="yes"/>
			<point x="123" y="355" type="line"/>
		</contour>
	</outline>
	<guideline x="382.0791366906" y="64.8273381295" angle="90"/>
</glyph>
<glyph name="bar" format="2">
	<unicode hex="007C"/>
	<advance width="600"/>
	<outline>
		<contour>
			<point x="256" y="792" type="line"/>
			<point x="256" y="-163" type="line"/>
			<point x="344" y="-163" type="line"/>
			<point x="344" y="792" type="line"/>
		</contour>
	</outline>
</glyph>
<glyph name="braceright" format="2">
	<unicode hex="007D"/>
	<advance width="600"/>
	<outline>
		<contour>
			<point x="109" y="-163" type="line"/>
			<point x="259" y="-163" type="line" smooth="yes"/>
			<point x="374" y="-163"/>
			<point x="428" y="-101"/>
			<point x="428" y="-23" type="curve" smooth="yes"/>
			<point x="428" y="71"/>
			<point x="322" y="134"/>
			<point x="322" y="203" type="curve" smooth="yes"/>
			<point x="322" y="232"/>
			<point x="343" y="272"/>
			<point x="417" y="272" type="curve" smooth="yes"/>
			<point x="477" y="272" type="line"/>
			<point x="477" y="355" type="line"/>
			<point x="417" y="355" type="line" smooth="yes"/>
			<point x="343" y="355"/>
			<point x="322" y="395"/>
			<point x="322" y="424" type="curve" smooth="yes"/>
			<point x="322" y="494"/>
			<point x="428" y="558"/>
			<point x="428" y="653" type="curve" smooth="yes"/>
			<point x="428" y="729"/>
			<point x="368" y="792"/>
			<point x="259" y="792" type="curve" smooth="yes"/>
			<point x="109" y="792" type="line"/>
			<point x="109" y="722" type="line"/>
			<point x="235" y="722" type="line" smooth="yes"/>
			<point x="294" y="722"/>
			<point x="333" y="698"/>
			<point x="333" y="643" type="curve" smooth="yes"/>
			<point x="333" y="570"/>
			<point x="228" y="512"/>
			<point x="228" y="421" type="curve" smooth="yes"/>
			<point x="228" y="366"/>
			<point x="279" y="325"/>
			<point x="348" y="314" type="curve"/>
			<point x="279" y="303"/>
			<point x="228" y="261"/>
			<point x="228" y="206" type="curve" smooth="yes"/>
			<point x="228" y="115"/>
			<point x="333" y="58"/>
			<point x="333" y="-13" type="curve" smooth="yes"/>
			<point x="333" y="-67"/>
			<point x="295" y="-93"/>
			<point x="233" y="-93" type="curve" smooth="yes"/>
			<point x="109" y="-93" type="line"/>
		</contour>
	</outline>
</glyph>
<glyph name="cent" format="2">
	<unicode hex="00A2"/>
	<advance width="600"/>
	<outline>
		<contour>
			<point x="306" y="-93" type="line"/>
			<point x="373" y="-93" type="line"/>
			<point x="379" y="-12" type="line"/>
			<point x="433" y="-9"/>
			<point x="479" y="4"/>
			<point x="508" y="24" type="curve"/>
			<point x="508" y="100" type="line"/>
			<point x="476" y="80"/>
			<point x="430" y="66"/>
			<point x="381" y="65" type="curve"/>
			<point x="413" y="456" type="line"/>
			<point x="446" y="452"/>
			<point x="480" y="443"/>
			<point x="508" y="426" type="curve"/>
			<point x="508" y="504" type="line"/>
			<point x="487" y="516"/>
			<point x="456" y="526"/>
			<point x="422" y="531" type="curve"/>
			<point x="428" y="615" type="line"/>
			<point x="360" y="615" type="line"/>
			<point x="354" y="535" type="line"/>
			<point x="196" y="530"/>
			<point x="91" y="424"/>
			<point x="91" y="267" type="curve" smooth="yes"/>
			<point x="91" y="256" type="line" smooth="yes"/>
			<point x="91" y="106"/>
			<point x="173" y="9"/>
			<point x="312" y="-9" type="curve"/>
		</contour>
		<contour>
			<point x="188" y="258" type="curve" smooth="yes"/>
			<point x="188" y="265" type="line" smooth="yes"/>
			<point x="188" y="377"/>
			<point x="248" y="447"/>
			<point x="353" y="457" type="curve"/>
			<point x="321" y="71" type="line"/>
			<point x="238" y="90"/>
			<point x="188" y="156"/>
		</contour>
	</outline>
	<guideline x="322.2230215827" y="174.892086331" angle="90"/>
</glyph>
<glyph name="sterling" format="2">
	<unicode hex="00A3"/>
	<advance width="600"/>
	<outline>
		<contour>
			<point x="76" y="77" type="curve"/>
			<point x="76" y="0" type="line"/>
			<point x="537" y="0" type="line"/>
			<point x="537" y="81" type="line"/>
			<point x="185" y="81" type="line"/>
			<point x="216" y="105"/>
			<point x="268" y="169"/>
			<point x="251" y="289" type="curve"/>
			<point x="436" y="289" type="line"/>
			<point x="436" y="363" type="line"/>
			<point x="239" y="363" type="line"/>
			<point x="229" y="404"/>
			<point x="212" y="443"/>
			<point x="211" y="488" type="curve" smooth="yes"/>
			<point x="211" y="570"/>
			<point x="258" y="617"/>
			<point x="346" y="617" type="curve" smooth="yes"/>
			<point x="412" y="617"/>
			<point x="482" y="592"/>
			<point x="537" y="551" type="curve"/>
			<point x="537" y="641" type="line"/>
			<point x="491" y="672"/>
			<point x="426" y="698"/>
			<point x="336" y="698" type="curve" smooth="yes"/>
			<point x="201" y="698"/>
			<point x="117" y="617"/>
			<point x="117" y="500" type="curve" smooth="yes"/>
			<point x="117" y="451"/>
			<point x="134" y="401"/>
			<point x="147" y="363" type="curve"/>
			<point x="66" y="363" type="line"/>
			<point x="66" y="289" type="line"/>
			<point x="157" y="289" type="line"/>
			<point x="172" y="180"/>
			<point x="124" y="109"/>
		</contour>
	</outline>
	<guideline x="369.6762589928" y="438.2949640288" angle="90"/>
	<guideline x="124.3381294964" y="242.6402877698" angle="90"/>
</glyph>
<glyph name="copyright" format="2">
	<unicode hex="00A9"/>
	<advance width="600"/>
	<outline>
		<contour>
			<point x="300" y="105" type="curve" smooth="yes"/>
			<point x="445" y="105"/>
			<point x="557" y="199"/>
			<point x="557" y="375" type="curve" smooth="yes"/>
			<point x="557" y="388" type="line" smooth="yes"/>
			<point x="557" y="561"/>
			<point x="443" y="657"/>
			<point x="300" y="657" type="curve" smooth="yes"/>
			<point x="157" y="657"/>
			<point x="43" y="561"/>
			<point x="43" y="387" type="curve" smooth="yes"/>
			<point x="43" y="373" type="line" smooth="yes"/>
			<point x="43" y="198"/>
			<point x="155" y="105"/>
		</contour>
		<contour>
			<point x="300" y="154" type="curve" smooth="yes"/>
			<point x="170" y="154"/>
			<point x="93" y="238"/>
			<point x="93" y="377" type="curve" smooth="yes"/>
			<point x="93" y="384" type="line" smooth="yes"/>
			<point x="93" y="523"/>
			<point x="172" y="608"/>
			<point x="300" y="608" type="curve" smooth="yes"/>
			<point x="428" y="608"/>
			<point x="507" y="523"/>
			<point x="507" y="385" type="curve" smooth="yes"/>
			<point x="507" y="377" type="line" smooth="yes"/>
			<point x="507" y="238"/>
			<point x="430" y="154"/>
		</contour>
		<contour>
			<point x="314" y="243" type="curve" smooth="yes"/>
			<point x="341" y="243"/>
			<point x="359" y="247"/>
			<point x="375" y="256" type="curve"/>
			<point x="375" y="296" type="line"/>
			<point x="361" y="289"/>
			<point x="341" y="286"/>
			<point x="320" y="286" type="curve" smooth="yes"/>
			<point x="273" y="286"/>
			<point x="241" y="320"/>
			<point x="241" y="380" type="curve" smooth="yes"/>
			<point x="241" y="441"/>
			<point x="275" y="474"/>
			<point x="322" y="474" type="curve" smooth="yes"/>
			<point x="344" y="474"/>
			<point x="364" y="469"/>
			<point x="375" y="464" type="curve"/>
			<point x="375" y="505" type="line"/>
			<point x="364" y="511"/>
			<point x="341" y="516"/>
			<point x="316" y="516" type="curve" smooth="yes"/>
			<point x="243" y="516"/>
			<point x="189" y="466"/>
			<point x="189" y="380" type="curve" smooth="yes"/>
			<point x="189" y="295"/>
			<point x="238" y="243"/>
		</contour>
	</outline>
</glyph>
<glyph name="logicalnot" format="2">
	<unicode hex="00AC"/>
	<advance width="600"/>
	<outline>
		<contour>
			<point x="526" y="67" type="line"/>
			<point x="525" y="353" type="line"/>
			<point x="74" y="353" type="line"/>
			<point x="74" y="271" type="line"/>
			<point x="437" y="271" type="line"/>
			<point x="439" y="67" type="line"/>
		</contour>
	</outline>
</glyph>
<glyph name="registered" format="2">
	<unicode hex="00AE"/>
	<advance width="600"/>
	<outline>
		<contour>
			<point x="300" y="105" type="curve" smooth="yes"/>
			<point x="445" y="105"/>
			<point x="557" y="199"/>
			<point x="557" y="374" type="curve" smooth="yes"/>
			<point x="557" y="388" type="line" smooth="yes"/>
			<point x="557" y="561"/>
			<point x="443" y="657"/>
			<point x="300" y="657" type="curve" smooth="yes"/>
			<point x="157" y="657"/>
			<point x="43" y="561"/>
			<point x="43" y="388" type="curve" smooth="yes"/>
			<point x="43" y="374" type="line" smooth="yes"/>
			<point x="43" y="199"/>
			<point x="155" y="105"/>
		</contour>
		<contour>
			<point x="300" y="154" type="curve" smooth="yes"/>
			<point x="170" y="154"/>
			<point x="93" y="238"/>
			<point x="93" y="377" type="curve" smooth="yes"/>
			<point x="93" y="384" type="line" smooth="yes"/>
			<point x="93" y="523"/>
			<point x="172" y="608"/>
			<point x="300" y="608" type="curve" smooth="yes"/>
			<point x="428" y="608"/>
			<point x="507" y="523"/>
			<point x="507" y="385" type="curve" smooth="yes"/>
			<point x="507" y="377" type="line" smooth="yes"/>
			<point x="507" y="238"/>
			<point x="430" y="154"/>
		</contour>
		<contour>
			<point x="205" y="249" type="line"/>
			<point x="254" y="249" type="line"/>
			<point x="254" y="344" type="line"/>
			<point x="298" y="344" type="line" smooth="yes"/>
			<point x="325" y="344"/>
			<point x="333" y="334"/>
			<point x="340" y="313" type="curve" smooth="yes"/>
			<point x="359" y="249" type="line"/>
			<point x="411" y="249" type="line"/>
			<point x="388" y="319" type="line" smooth="yes"/>
			<point x="378" y="351"/>
			<point x="368" y="360"/>
			<point x="347" y="364" type="curve"/>
			<point x="383" y="370"/>
			<point x="406" y="397"/>
			<point x="406" y="436" type="curve" smooth="yes"/>
			<point x="406" y="481"/>
			<point x="380" y="511"/>
			<point x="316" y="511" type="curve" smooth="yes"/>
			<point x="205" y="511" type="line"/>
		</contour>
		<contour>
			<point x="310" y="473" type="line" smooth="yes"/>
			<point x="342" y="473"/>
			<point x="357" y="456"/>
			<point x="357" y="430" type="curve" smooth="yes"/>
			<point x="357" y="403"/>
			<point x="343" y="382"/>
			<point x="309" y="382" type="curve" smooth="yes"/>
			<point x="254" y="382" type="line"/>
			<point x="254" y="473" type="line"/>
		</contour>
	</outline>
</glyph>
<glyph name="macron" format="2">
	<unicode hex="00AF"/>
	<advance width="600"/>
	<outline>
		<contour>
			<point x="157" y="637" type="line"/>
			<point x="443" y="637" type="line"/>
			<point x="443" y="701" type="line"/>
			<point x="157" y="701" type="line"/>
		</contour>
	</outline>
	<anchor name="_top" x="299" y="523"/>
</glyph>
<glyph name="ordmasculine" format="2">
	<unicode hex="00BA"/>
	<advance width="600"/>
	<outline>
		<contour>
			<point x="300" y="228" type="curve" smooth="yes"/>
			<point x="425" y="228"/>
			<point x="516" y="316"/>
			<point x="516" y="462" type="curve" smooth="yes"/>
			<point x="516" y="609"/>
			<point x="423" y="696"/>
			<point x="300" y="696" type="curve" smooth="yes"/>
			<point x="176" y="696"/>
			<point x="84" y="608"/>
			<point x="84" y="462" type="curve" smooth="yes"/>
			<point x="84" y="315"/>
			<point x="178" y="228"/>
		</contour>
		<contour>
			<point x="300" y="290" type="curve" smooth="yes"/>
			<point x="221" y="290"/>
			<point x="165" y="349"/>
			<point x="165" y="462" type="curve" smooth="yes"/>
			<point x="165" y="573"/>
			<point x="219" y="634"/>
			<point x="300" y="634" type="curve" smooth="yes"/>
			<point x="380" y="634"/>
			<point x="435" y="575"/>
			<point x="435" y="462" type="curve" smooth="yes"/>
			<point x="435" y="351"/>
			<point x="382" y="290"/>
		</contour>
	</outline>
</glyph>
<glyph name="guillemetright" format="2">
	<unicode hex="00BB"/>
	<advance width="600"/>
	<outline>
		<contour>
			<point x="274" y="77" type="line"/>
			<point x="375" y="77" type="line"/>
			<point x="537" y="287" type="line"/>
			<point x="375" y="497" type="line"/>
			<point x="274" y="497" type="line"/>
			<point x="437" y="288" type="line"/>
		</contour>
		<contour>
			<point x="68" y="77" type="line"/>
			<point x="168" y="77" type="line"/>
			<point x="331" y="287" type="line"/>
			<point x="168" y="497" type="line"/>
			<point x="68" y="497" type="line"/>
			<point x="231" y="288" type="line"/>
		</contour>
	</outline>
</glyph>
<glyph name="questiondown" format="2">
	<unicode hex="00BF"/>
	<advance width="600"/>
	<outline>
		<contour>
			<point x="335" y="535" type="curve" smooth="yes"/>
			<point x="289" y="535"/>
			<point x="265" y="517"/>
			<point x="265" y="471" type="curve" smooth="yes"/>
			<point x="265" y="426"/>
			<point x="288" y="408"/>
			<point x="335" y="408" type="curve" smooth="yes"/>
			<point x="383" y="408"/>
			<point x="406" y="426"/>
			<point x="406" y="471" type="curve" smooth="yes"/>
			<point x="406" y="517"/>
			<point x="382" y="535"/>
		</contour>
		<contour>
			<point x="378" y="321" type="curve"/>
			<point x="295" y="321" type="line"/>
			<point x="294" y="278" type="line" smooth="yes"/>
			<point x="292" y="155"/>
			<point x="103" y="139"/>
			<point x="103" y="-20" type="curve" smooth="yes"/>
			<point x="103" y="-111"/>
			<point x="170" y="-175"/>
			<point x="305" y="-175" type="curve" smooth="yes"/>
			<point x="405" y="-175"/>
			<point x="470" y="-141"/>
			<point x="503" y="-119" type="curve"/>
			<point x="503" y="-34" type="line"/>
			<point x="461" y="-66"/>
			<point x="397" y="-94"/>
			<point x="322" y="-94" type="curve" smooth="yes"/>
			<point x="235" y="-94"/>
			<point x="198" y="-58"/>
			<point x="198" y="-6" type="curve" smooth="yes"/>
			<point x="198" y="109"/>
			<point x="381" y="119"/>
			<point x="381" y="281" type="curve" smooth="yes"/>
			<point x="381" y="295"/>
			<point x="380" y="307"/>
		</contour>
	</outline>
</glyph>
<glyph name="multiply" format="2">
	<unicode hex="00D7"/>
	<advance width="600"/>
	<outline>
		<contour>
			<point x="144" y="94" type="line"/>
			<point x="300" y="252" type="line"/>
			<point x="455" y="96" type="line"/>
			<point x="512" y="154" type="line"/>
			<point x="358" y="310" type="line"/>
			<point x="513" y="468" type="line"/>
			<point x="456" y="527" type="line"/>
			<point x="300" y="369" type="line"/>
			<point x="146" y="525" type="line"/>
			<point x="89" y="467" type="line"/>
			<point x="242" y="311" type="line"/>
			<point x="87" y="153" type="line"/>
		</contour>
	</outline>
</glyph>
<glyph name="germandbls" format="2">
	<unicode hex="00DF"/>
	<advance width="600"/>
	<outline>
		<contour>
			<point x="333" y="-9" type="curve" smooth="yes"/>
			<point x="462" y="-9"/>
			<point x="552" y="71"/>
			<point x="552" y="194" type="curve" smooth="yes"/>
			<point x="552" y="304"/>
			<point x="489" y="366"/>
			<point x="386" y="380" type="curve"/>
			<point x="474" y="400"/>
			<point x="529" y="478"/>
			<point x="528" y="564" type="curve" smooth="yes"/>
			<point x="527" y="679"/>
			<point x="455" y="760"/>
			<point x="307" y="760" type="curve" smooth="yes"/>
			<point x="137" y="760"/>
			<point x="68" y="648"/>
			<point x="68" y="521" type="curve" smooth="yes"/>
			<point x="68" y="0" type="line"/>
			<point x="161" y="0" type="line"/>
			<point x="161" y="524" type="line" smooth="yes"/>
			<point x="161" y="608"/>
			<point x="200" y="684"/>
			<point x="301" y="684" type="curve" smooth="yes"/>
			<point x="388" y="684"/>
			<point x="433" y="634"/>
			<point x="433" y="553" type="curve" smooth="yes"/>
			<point x="433" y="479"/>
			<point x="393" y="414"/>
			<point x="297" y="414" type="curve" smooth="yes"/>
			<point x="215" y="414" type="line"/>
			<point x="215" y="336" type="line"/>
			<point x="295" y="336" type="line" smooth="yes"/>
			<point x="398" y="336"/>
			<point x="455" y="297"/>
			<point x="455" y="197" type="curve" smooth="yes"/>
			<point x="455" y="115"/>
			<point x="402" y="63"/>
			<point x="320" y="63" type="curve" smooth="yes"/>
			<point x="277" y="63"/>
			<point x="244" y="74"/>
			<point x="217" y="92" type="curve"/>
			<point x="217" y="17" type="line"/>
			<point x="242" y="4"/>
			<point x="279" y="-9"/>
		</contour>
	</outline>
</glyph>
<glyph name="ae" format="2">
	<unicode hex="00E6"/>
	<advance width="600"/>
	<outline>
		<contour>
			<point x="139" y="-14" type="curve" smooth="yes"/>
			<point x="198" y="-14"/>
			<point x="248" y="21"/>
			<point x="271" y="109" type="curve"/>
			<point x="298" y="33"/>
			<point x="349" y="-14"/>
			<point x="441" y="-14" type="curve" smooth="yes"/>
			<point x="504" y="-14"/>
			<point x="545" y="7"/>
			<point x="569" y="27" type="curve"/>
			<point x="569" y="101" type="line"/>
			<point x="536" y="74"/>
			<point x="498" y="60"/>
			<point x="458" y="60" type="curve" smooth="yes"/>
			<point x="368" y="60"/>
			<point x="327" y="115"/>
			<point x="325" y="239" type="curve"/>
			<point x="584" y="239" type="line"/>
			<point x="584" y="280" type="line" smooth="yes"/>
			<point x="584" y="453"/>
			<point x="530" y="537"/>
			<point x="426" y="537" type="curve" smooth="yes"/>
			<point x="373" y="537"/>
			<point x="332" y="510"/>
			<point x="303" y="462" type="curve"/>
			<point x="281" y="512"/>
			<point x="240" y="537"/>
			<point x="168" y="537" type="curve" smooth="yes"/>
			<point x="105" y="537"/>
			<point x="55" y="511"/>
			<point x="26" y="489" type="curve"/>
			<point x="26" y="410" type="line"/>
			<point x="60" y="439"/>
			<point x="108" y="463"/>
			<point x="158" y="463" type="curve" smooth="yes"/>
			<point x="231" y="463"/>
			<point x="253" y="425"/>
			<point x="253" y="347" type="curve" smooth="yes"/>
			<point x="253" y="322" type="line"/>
			<point x="192" y="310" type="line" smooth="yes"/>
			<point x="71" y="286"/>
			<point x="16" y="229"/>
			<point x="16" y="130" type="curve" smooth="yes"/>
			<point x="16" y="44"/>
			<point x="64" y="-14"/>
		</contour>
		<contour>
			<point x="422" y="468" type="curve" smooth="yes"/>
			<point x="480" y="468"/>
			<point x="507" y="416"/>
			<point x="509" y="298" type="curve"/>
			<point x="325" y="298" type="line"/>
			<point x="327" y="412"/>
			<point x="360" y="468"/>
		</contour>
		<contour>
			<point x="89" y="142" type="curve" smooth="yes"/>
			<point x="89" y="205"/>
			<point x="123" y="238"/>
			<point x="201" y="253" type="curve" smooth="yes"/>
			<point x="253" y="264" type="line"/>
			<point x="253" y="172" type="line"/>
			<point x="253" y="91"/>
			<point x="216" y="51"/>
			<point x="166" y="51" type="curve" smooth="yes"/>
			<point x="120" y="51"/>
			<point x="89" y="88"/>
		</contour>
	</outline>
	<anchor name="top" x="301" y="523"/>
	<guideline x="395.0287769784" y="121.9064748201" angle="90"/>
</glyph>
<glyph name="ccedilla" format="2">
	<unicode hex="00E7"/>
	<advance width="600"/>
	<outline>
		<contour>
			<point x="329" y="-221" type="curve" smooth="yes"/>
			<point x="401" y="-221"/>
			<point x="446" y="-187"/>
			<point x="446" y="-124" type="curve" smooth="yes"/>
			<point x="446" y="-77"/>
			<point x="415" y="-48"/>
			<point x="356" y="-46" type="curve"/>
			<point x="372" y="-12" type="line"/>
			<point x="429" y="-10"/>
			<point x="477" y="3"/>
			<point x="508" y="24" type="curve"/>
			<point x="508" y="100" type="line"/>
			<point x="475" y="80"/>
			<point x="426" y="65"/>
			<point x="375" y="65" type="curve" smooth="yes"/>
			<point x="260" y="65"/>
			<point x="188" y="135"/>
			<point x="188" y="258" type="curve" smooth="yes"/>
			<point x="188" y="265" type="line" smooth="yes"/>
			<point x="188" y="386"/>
			<point x="258" y="458"/>
			<point x="379" y="458" type="curve" smooth="yes"/>
			<point x="422" y="458"/>
			<point x="470" y="449"/>
			<point x="508" y="426" type="curve"/>
			<point x="508" y="504" type="line"/>
			<point x="476" y="522"/>
			<point x="422" y="535"/>
			<point x="367" y="535" type="curve" smooth="yes"/>
			<point x="201" y="535"/>
			<point x="91" y="428"/>
			<point x="91" y="267" type="curve" smooth="yes"/>
			<point x="91" y="256" type="line" smooth="yes"/>
			<point x="91" y="104"/>
			<point x="175" y="7"/>
			<point x="317" y="-10" type="curve"/>
			<point x="281" y="-91" type="line"/>
			<point x="288" y="-89"/>
			<point x="302" y="-88"/>
			<point x="319" y="-88" type="curve" smooth="yes"/>
			<point x="354" y="-88"/>
			<point x="380" y="-97"/>
			<point x="380" y="-126" type="curve" smooth="yes"/>
			<point x="380" y="-156"/>
			<point x="357" y="-167"/>
			<point x="318" y="-167" type="curve" smooth="yes"/>
			<point x="298" y="-167"/>
			<point x="274" y="-161"/>
			<point x="249" y="-149" type="curve"/>
			<point x="249" y="-203" type="line"/>
			<point x="267" y="-213"/>
			<point x="300" y="-221"/>
		</contour>
	</outline>
</glyph>
<glyph name="divide" format="2">
	<unicode hex="00F7"/>
	<advance width="600"/>
	<outline>
		<contour>
			<point x="300" y="451" type="curve" smooth="yes"/>
			<point x="348" y="451"/>
			<point x="374" y="466"/>
			<point x="374" y="508" type="curve" smooth="yes"/>
			<point x="374" y="550"/>
			<point x="348" y="564"/>
			<point x="300" y="564" type="curve" smooth="yes"/>
			<point x="252" y="564"/>
			<point x="226" y="550"/>
			<point x="226" y="508" type="curve" smooth="yes"/>
			<point x="226" y="466"/>
			<point x="252" y="451"/>
		</contour>
		<contour>
			<point x="74" y="271" type="line"/>
			<point x="526" y="271" type="line"/>
			<point x="526" y="353" type="line"/>
			<point x="74" y="353" type="line"/>
		</contour>
		<contour>
			<point x="300" y="59" type="curve" smooth="yes"/>
			<point x="347" y="59"/>
			<point x="374" y="74"/>
			<point x="374" y="116" type="curve" smooth="yes"/>
			<point x="374" y="158"/>
			<point x="347" y="171"/>
			<point x="300" y="171" type="curve" smooth="yes"/>
			<point x="252" y="171"/>
			<point x="226" y="158"/>
			<point x="226" y="116" type="curve" smooth="yes"/>
			<point x="226" y="74"/>
			<point x="252" y="59"/>
		</contour>
	</outline>
	<guideline x="274.2805755395" y="402.9928057554" angle="90"/>
	<guideline x="312.2805755395" y="401.5899280576" angle="90"/>
</glyph>
<glyph name="dcaron" format="2">
	<unicode hex="010F"/>
	<advance width="600"/>
	<outline>
		<contour>
			<point x="243" y="-14" type="curve"/>
			<point x="317" y="-14"/>
			<point x="375" y="34"/>
			<point x="407" y="110" type="curve"/>
			<point x="407" y="0" type="line"/>
			<point x="494" y="0" type="line"/>
			<point x="494" y="750" type="line"/>
			<point x="405" y="750" type="line"/>
			<point x="405" y="426" type="line"/>
			<point x="373" y="495"/>
			<point x="322" y="537"/>
			<point x="248" y="537" type="curve" smooth="yes"/>
			<point x="136" y="537"/>
			<point x="56" y="436"/>
			<point x="56" y="269" type="curve" smooth="yes"/>
			<point x="56" y="256" type="line" smooth="yes"/>
			<point x="56" y="89"/>
			<point x="124" y="-14"/>
		</contour>
		<contour>
			<point x="547" y="572" type="line"/>
			<point x="602" y="572" type="line"/>
			<point x="658" y="750" type="line"/>
			<point x="570" y="750" type="line"/>
		</contour>
		<contour>
			<point x="275" y="60" type="curve" smooth="yes"/>
			<point x="199" y="60"/>
			<point x="148" y="124"/>
			<point x="148" y="258" type="curve" smooth="yes"/>
			<point x="148" y="265" type="line" smooth="yes"/>
			<point x="148" y="395"/>
			<point x="199" y="461"/>
			<point x="277" y="461" type="curve" smooth="yes"/>
			<point x="356" y="461"/>
			<point x="409" y="395"/>
			<point x="409" y="264" type="curve" smooth="yes"/>
			<point x="409" y="258" type="line" smooth="yes"/>
			<point x="409" y="124"/>
			<point x="350" y="60"/>
		</contour>
	</outline>
</glyph>
<glyph name="Dcroat" format="2">
	<unicode hex="0110"/>
	<advance width="600"/>
	<outline>
		<contour>
			<point x="70" y="0" type="line"/>
			<point x="282" y="0" type="line" smooth="yes"/>
			<point x="449" y="0"/>
			<point x="553" y="106"/>
			<point x="553" y="334" type="curve" smooth="yes"/>
			<point x="553" y="350" type="line" smooth="yes"/>
			<point x="553" y="579"/>
			<point x="446" y="684"/>
			<point x="280" y="684" type="curve" smooth="yes"/>
			<point x="70" y="684" type="line"/>
			<point x="70" y="374" type="line"/>
			<point x="3" y="374" type="line"/>
			<point x="3" y="309" type="line"/>
			<point x="70" y="309" type="line"/>
		</contour>
		<contour>
			<point x="266" y="605" type="line" smooth="yes"/>
			<point x="385" y="605"/>
			<point x="453" y="528"/>
			<point x="453" y="350" type="curve" smooth="yes"/>
			<point x="453" y="335" type="line" smooth="yes"/>
			<point x="453" y="156"/>
			<point x="391" y="81"/>
			<point x="268" y="81" type="curve" smooth="yes"/>
			<point x="165" y="81" type="line"/>
			<point x="165" y="309" type="line"/>
			<point x="314" y="309" type="line"/>
			<point x="314" y="374" type="line"/>
			<point x="165" y="374" type="line"/>
			<point x="165" y="605" type="line"/>
		</contour>
	</outline>
</glyph>
<glyph name="Eogonek" format="2">
	<unicode hex="0118"/>
	<advance width="600"/>
	<outline>
		<contour>
			<point x="474" y="-203" type="curve" smooth="yes"/>
			<point x="503" y="-203"/>
			<point x="529" y="-197"/>
			<point x="542" y="-191" type="curve"/>
			<point x="542" y="-129" type="line"/>
			<point x="532" y="-133"/>
			<point x="514" y="-136"/>
			<point x="497" y="-136" type="curve" smooth="yes"/>
			<point x="465" y="-136"/>
			<point x="440" y="-123"/>
			<point x="440" y="-88" type="curve" smooth="yes"/>
			<point x="440" y="-55"/>
			<point x="465" y="-23"/>
			<point x="533" y="0" type="curve"/>
			<point x="533" y="81" type="line"/>
			<point x="185" y="81" type="line"/>
			<point x="185" y="303" type="line"/>
			<point x="490" y="303" type="line"/>
			<point x="490" y="383" type="line"/>
			<point x="185" y="383" type="line"/>
			<point x="185" y="604" type="line"/>
			<point x="526" y="604" type="line"/>
			<point x="526" y="684" type="line"/>
			<point x="89" y="684" type="line"/>
			<point x="89" y="0" type="line"/>
			<point x="459" y="0" type="line"/>
			<point x="400" y="-21"/>
			<point x="363" y="-67"/>
			<point x="363" y="-114" type="curve" smooth="yes"/>
			<point x="363" y="-175"/>
			<point x="403" y="-203"/>
		</contour>
	</outline>
</glyph>
<glyph name="eogonek" format="2">
	<unicode hex="0119"/>
	<advance width="600"/>
	<outline>
		<contour>
			<point x="342" y="-14" type="curve" smooth="yes"/>
			<point x="347" y="-14" type="line"/>
			<point x="304" y="-38"/>
			<point x="280" y="-76"/>
			<point x="280" y="-114" type="curve" smooth="yes"/>
			<point x="280" y="-175"/>
			<point x="320" y="-203"/>
			<point x="391" y="-203" type="curve" smooth="yes"/>
			<point x="420" y="-203"/>
			<point x="446" y="-197"/>
			<point x="459" y="-191" type="curve"/>
			<point x="459" y="-129" type="line"/>
			<point x="449" y="-133"/>
			<point x="431" y="-136"/>
			<point x="414" y="-136" type="curve" smooth="yes"/>
			<point x="382" y="-136"/>
			<point x="357" y="-123"/>
			<point x="357" y="-88" type="curve" smooth="yes"/>
			<point x="357" y="-55"/>
			<point x="382" y="-23"/>
			<point x="450" y="0" type="curve"/>
			<point x="449" y="0" type="line"/>
			<point x="474" y="7"/>
			<point x="496" y="17"/>
			<point x="515" y="28" type="curve"/>
			<point x="515" y="104" type="line"/>
			<point x="471" y="78"/>
			<point x="420" y="63"/>
			<point x="359" y="63" type="curve" smooth="yes"/>
			<point x="251" y="63"/>
			<point x="169" y="118"/>
			<point x="164" y="239" type="curve"/>
			<point x="530" y="239" type="line"/>
			<point x="530" y="280" type="line"/>
			<point x="530" y="451"/>
			<point x="441" y="537"/>
			<point x="305" y="537" type="curve" smooth="yes"/>
			<point x="172" y="537"/>
			<point x="70" y="433"/>
			<point x="70" y="269" type="curve" smooth="yes"/>
			<point x="70" y="256" type="line" smooth="yes"/>
			<point x="70" y="82"/>
			<point x="174" y="-14"/>
		</contour>
		<contour>
			<point x="305" y="467" type="curve" smooth="yes"/>
			<point x="380" y="467"/>
			<point x="435" y="411"/>
			<point x="438" y="299" type="curve"/>
			<point x="163" y="299" type="line"/>
			<point x="169" y="402"/>
			<point x="225" y="467"/>
		</contour>
	</outline>
</glyph>
<glyph name="Hbar" format="2">
	<unicode hex="0126"/>
	<advance width="600"/>
	<outline>
		<contour>
			<point x="73" y="0" type="line"/>
			<point x="168" y="0" type="line"/>
			<point x="168" y="297" type="line"/>
			<point x="432" y="297" type="line"/>
			<point x="432" y="0" type="line"/>
			<point x="527" y="0" type="line"/>
			<point x="527" y="490" type="line"/>
			<point x="600" y="490" type="line"/>
			<point x="600" y="553" type="line"/>
			<point x="527" y="553" type="line"/>
			<point x="527" y="684" type="line"/>
			<point x="432" y="684" type="line"/>
			<point x="432" y="553" type="line"/>
			<point x="168" y="553" type="line"/>
			<point x="168" y="684" type="line"/>
			<point x="73" y="684" type="line"/>
			<point x="73" y="553" type="line"/>
			<point x="0" y="553" type="line"/>
			<point x="0" y="490" type="line"/>
			<point x="73" y="490" type="line"/>
		</contour>
		<contour>
			<point x="168" y="378" type="line"/>
			<point x="168" y="490" type="line"/>
			<point x="432" y="490" type="line"/>
			<point x="432" y="378" type="line"/>
		</contour>
	</outline>
	<anchor name="bottom" x="288" y="0"/>
	<anchor name="center" x="299" y="525"/>
	<anchor name="top" x="299" y="684"/>
</glyph>
<glyph name="Iogonek" format="2">
	<unicode hex="012E"/>
	<advance width="600"/>
	<outline>
		<contour>
			<point x="82" y="0" type="line"/>
			<point x="444" y="0" type="line"/>
			<point x="385" y="-21"/>
			<point x="348" y="-67"/>
			<point x="348" y="-114" type="curve" smooth="yes"/>
			<point x="348" y="-175"/>
			<point x="388" y="-203"/>
			<point x="459" y="-203" type="curve" smooth="yes"/>
			<point x="488" y="-203"/>
			<point x="514" y="-197"/>
			<point x="527" y="-191" type="curve"/>
			<point x="527" y="-129" type="line"/>
			<point x="517" y="-133"/>
			<point x="499" y="-136"/>
			<point x="482" y="-136" type="curve" smooth="yes"/>
			<point x="450" y="-136"/>
			<point x="425" y="-123"/>
			<point x="425" y="-88" type="curve" smooth="yes"/>
			<point x="425" y="-55"/>
			<point x="450" y="-23"/>
			<point x="518" y="0" type="curve"/>
			<point x="518" y="78" type="line"/>
			<point x="348" y="78" type="line"/>
			<point x="348" y="607" type="line"/>
			<point x="518" y="607" type="line"/>
			<point x="518" y="684" type="line"/>
			<point x="82" y="684" type="line"/>
			<point x="82" y="607" type="line"/>
			<point x="253" y="607" type="line"/>
			<point x="253" y="78" type="line"/>
			<point x="82" y="78" type="line"/>
		</contour>
	</outline>
</glyph>
<glyph name="iogonek" format="2">
	<unicode hex="012F"/>
	<advance width="600"/>
	<outline>
		<contour>
			<point x="318" y="631" type="curve" smooth="yes"/>
			<point x="366" y="631"/>
			<point x="384" y="650"/>
			<point x="384" y="688" type="curve" smooth="yes"/>
			<point x="384" y="725"/>
			<point x="365" y="744"/>
			<point x="318" y="744" type="curve" smooth="yes"/>
			<point x="271" y="744"/>
			<point x="252" y="725"/>
			<point x="252" y="688" type="curve" smooth="yes"/>
			<point x="252" y="650"/>
			<point x="270" y="631"/>
		</contour>
		<contour>
			<point x="85" y="0" type="line"/>
			<point x="470" y="0" type="line"/>
			<point x="411" y="-21"/>
			<point x="374" y="-67"/>
			<point x="374" y="-114" type="curve" smooth="yes"/>
			<point x="374" y="-175"/>
			<point x="414" y="-203"/>
			<point x="485" y="-203" type="curve" smooth="yes"/>
			<point x="514" y="-203"/>
			<point x="540" y="-197"/>
			<point x="553" y="-191" type="curve"/>
			<point x="553" y="-129" type="line"/>
			<point x="543" y="-133"/>
			<point x="525" y="-136"/>
			<point x="508" y="-136" type="curve" smooth="yes"/>
			<point x="476" y="-136"/>
			<point x="451" y="-123"/>
			<point x="451" y="-88" type="curve" smooth="yes"/>
			<point x="451" y="-55"/>
			<point x="476" y="-23"/>
			<point x="544" y="0" type="curve"/>
			<point x="545" y="0" type="line"/>
			<point x="545" y="76" type="line"/>
			<point x="366" y="76" type="line"/>
			<point x="366" y="523" type="line"/>
			<point x="86" y="523" type="line"/>
			<point x="86" y="447" type="line"/>
			<point x="273" y="447" type="line"/>
			<point x="273" y="76" type="line"/>
			<point x="85" y="76" type="line"/>
		</contour>
	</outline>
</glyph>
<glyph name="kgreenlandic" format="2">
	<unicode hex="0138"/>
	<advance width="600"/>
	<outline>
		<contour>
			<point x="106" y="0" type="line"/>
			<point x="198" y="0" type="line"/>
			<point x="198" y="136" type="line"/>
			<point x="289" y="247" type="line"/>
			<point x="435" y="0" type="line"/>
			<point x="541" y="0" type="line"/>
			<point x="362" y="306" type="line"/>
			<point x="533" y="524" type="line"/>
			<point x="426" y="524" type="line"/>
			<point x="198" y="229" type="line"/>
			<point x="198" y="523" type="line"/>
			<point x="106" y="523" type="line"/>
		</contour>
	</outline>
</glyph>
<glyph name="Ldot" format="2">
	<unicode hex="013F"/>
	<advance width="600"/>
	<outline>
		<contour>
			<point x="97" y="0" type="line"/>
			<point x="540" y="0" type="line"/>
			<point x="540" y="87" type="line"/>
			<point x="192" y="87" type="line"/>
			<point x="192" y="684" type="line"/>
			<point x="97" y="684" type="line"/>
		</contour>
		<contour>
			<point x="444" y="336" type="curve" smooth="yes"/>
			<point x="490" y="336"/>
			<point x="516" y="355"/>
			<point x="516" y="410" type="curve" smooth="yes"/>
			<point x="516" y="465"/>
			<point x="490" y="483"/>
			<point x="444" y="483" type="curve" smooth="yes"/>
			<point x="397" y="483"/>
			<point x="372" y="465"/>
			<point x="372" y="410" type="curve" smooth="yes"/>
			<point x="372" y="355"/>
			<point x="397" y="336"/>
		</contour>
	</outline>
</glyph>
<glyph name="ldot" format="2">
	<unicode hex="0140"/>
	<advance width="600"/>
	<outline>
		<contour>
			<point x="74" y="0" type="line"/>
			<point x="535" y="0" type="line"/>
			<point x="535" y="76" type="line"/>
			<point x="356" y="76" type="line"/>
			<point x="356" y="750" type="line"/>
			<point x="75" y="750" type="line"/>
			<point x="75" y="674" type="line"/>
			<point x="262" y="674" type="line"/>
			<point x="262" y="76" type="line"/>
			<point x="74" y="76" type="line"/>
		</contour>
		<contour>
			<point x="596" y="305" type="curve" smooth="yes"/>
			<point x="642" y="305"/>
			<point x="667" y="323"/>
			<point x="667" y="377" type="curve" smooth="yes"/>
			<point x="667" y="431"/>
			<point x="642" y="449"/>
			<point x="596" y="449" type="curve" smooth="yes"/>
			<point x="551" y="449"/>
			<point x="526" y="431"/>
			<point x="526" y="377" type="curve" smooth="yes"/>
			<point x="526" y="323"/>
			<point x="551" y="305"/>
		</contour>
	</outline>
</glyph>
<glyph name="Lslash" format="2">
	<unicode hex="0141"/>
	<advance width="600"/>
	<outline>
		<contour>
			<point x="97" y="0" type="line"/>
			<point x="540" y="0" type="line"/>
			<point x="540" y="87" type="line"/>
			<point x="192" y="87" type="line"/>
			<point x="192" y="314" type="line"/>
			<point x="372" y="385" type="line"/>
			<point x="372" y="457" type="line"/>
			<point x="192" y="386" type="line"/>
			<point x="192" y="684" type="line"/>
			<point x="97" y="684" type="line"/>
			<point x="97" y="348" type="line"/>
			<point x="18" y="317" type="line"/>
			<point x="18" y="245" type="line"/>
			<point x="97" y="276" type="line"/>
		</contour>
	</outline>
</glyph>
<glyph name="lslash" format="2">
	<unicode hex="0142"/>
	<advance width="600"/>
	<outline>
		<contour>
			<point x="74" y="0" type="line"/>
			<point x="535" y="0" type="line"/>
			<point x="535" y="76" type="line"/>
			<point x="356" y="76" type="line"/>
			<point x="356" y="359" type="line"/>
			<point x="519" y="422" type="line"/>
			<point x="519" y="494" type="line"/>
			<point x="356" y="431" type="line"/>
			<point x="356" y="750" type="line"/>
			<point x="75" y="750" type="line"/>
			<point x="75" y="674" type="line"/>
			<point x="262" y="674" type="line"/>
			<point x="262" y="395" type="line"/>
			<point x="97" y="331" type="line"/>
			<point x="97" y="260" type="line"/>
			<point x="262" y="323" type="line"/>
			<point x="262" y="76" type="line"/>
			<point x="74" y="76" type="line"/>
		</contour>
	</outline>
</glyph>
<glyph name="eng" format="2">
	<unicode hex="014B"/>
	<advance width="600"/>
	<outline>
		<contour>
			<point x="366" y="-207" type="curve" smooth="yes"/>
			<point x="447" y="-207"/>
			<point x="514" y="-168"/>
			<point x="514" y="-60" type="curve" smooth="yes"/>
			<point x="514" y="346" type="line" smooth="yes"/>
			<point x="514" y="474"/>
			<point x="452" y="537"/>
			<point x="353" y="537" type="curve" smooth="yes"/>
			<point x="272" y="537"/>
			<point x="215" y="490"/>
			<point x="181" y="415" type="curve"/>
			<point x="181" y="523" type="line"/>
			<point x="90" y="523" type="line"/>
			<point x="90" y="0" type="line"/>
			<point x="184" y="0" type="line"/>
			<point x="184" y="303" type="line" smooth="yes"/>
			<point x="184" y="332"/>
			<point x="188" y="360"/>
			<point x="200" y="383" type="curve" smooth="yes"/>
			<point x="220" y="426"/>
			<point x="255" y="459"/>
			<point x="313" y="459" type="curve" smooth="yes"/>
			<point x="381" y="459"/>
			<point x="421" y="412"/>
			<point x="421" y="326" type="curve" smooth="yes"/>
			<point x="421" y="-53" type="line" smooth="yes"/>
			<point x="421" y="-103"/>
			<point x="396" y="-131"/>
			<point x="346" y="-131" type="curve" smooth="yes"/>
			<point x="327" y="-131"/>
			<point x="306" y="-127"/>
			<point x="294" y="-123" type="curve"/>
			<point x="294" y="-196" type="line"/>
			<point x="309" y="-201"/>
			<point x="338" y="-207"/>
		</contour>
	</outline>
</glyph>
<glyph name="scedilla" format="2">
	<unicode hex="015F"/>
	<advance width="600"/>
	<outline>
		<contour>
			<point x="283" y="-221" type="curve" smooth="yes"/>
			<point x="355" y="-221"/>
			<point x="400" y="-187"/>
			<point x="400" y="-124" type="curve" smooth="yes"/>
			<point x="400" y="-77"/>
			<point x="369" y="-48"/>
			<point x="310" y="-46" type="curve"/>
			<point x="326" y="-13" type="line"/>
			<point x="448" y="-7"/>
			<point x="512" y="61"/>
			<point x="512" y="154" type="curve" smooth="yes"/>
			<point x="512" y="261"/>
			<point x="426" y="283"/>
			<point x="308" y="304" type="curve" smooth="yes"/>
			<point x="228" y="318"/>
			<point x="177" y="328"/>
			<point x="177" y="386" type="curve" smooth="yes"/>
			<point x="177" y="434"/>
			<point x="216" y="467"/>
			<point x="295" y="467" type="curve" smooth="yes"/>
			<point x="376" y="467"/>
			<point x="451" y="445"/>
			<point x="503" y="405" type="curve"/>
			<point x="503" y="486" type="line"/>
			<point x="449" y="519"/>
			<point x="380" y="537"/>
			<point x="296" y="537" type="curve" smooth="yes"/>
			<point x="176" y="537"/>
			<point x="88" y="478"/>
			<point x="88" y="374" type="curve" smooth="yes"/>
			<point x="88" y="263"/>
			<point x="169" y="239"/>
			<point x="290" y="220" type="curve" smooth="yes"/>
			<point x="375" y="207"/>
			<point x="423" y="196"/>
			<point x="423" y="142" type="curve" smooth="yes"/>
			<point x="423" y="90"/>
			<point x="382" y="57"/>
			<point x="306" y="57" type="curve" smooth="yes"/>
			<point x="235" y="57"/>
			<point x="155" y="79"/>
			<point x="95" y="125" type="curve"/>
			<point x="95" y="44" type="line"/>
			<point x="140" y="14"/>
			<point x="200" y="-7"/>
			<point x="269" y="-13" type="curve"/>
			<point x="235" y="-91" type="line"/>
			<point x="242" y="-89"/>
			<point x="256" y="-88"/>
			<point x="273" y="-88" type="curve" smooth="yes"/>
			<point x="308" y="-88"/>
			<point x="334" y="-97"/>
			<point x="334" y="-126" type="curve" smooth="yes"/>
			<point x="334" y="-156"/>
			<point x="311" y="-167"/>
			<point x="272" y="-167" type="curve" smooth="yes"/>
			<point x="252" y="-167"/>
			<point x="228" y="-161"/>
			<point x="203" y="-149" type="curve"/>
			<point x="203" y="-203" type="line"/>
			<point x="221" y="-213"/>
			<point x="254" y="-221"/>
		</contour>
	</outline>
</glyph>
<glyph name="Tbar" format="2">
	<unicode hex="0166"/>
	<advance width="600"/>
	<outline>
		<contour>
			<point x="253" y="0" type="line"/>
			<point x="348" y="0" type="line"/>
			<point x="348" y="324" type="line"/>
			<point x="475" y="324" type="line"/>
			<point x="475" y="389" type="line"/>
			<point x="348" y="389" type="line"/>
			<point x="348" y="601" type="line"/>
			<point x="555" y="601" type="line"/>
			<point x="555" y="684" type="line"/>
			<point x="45" y="684" type="line"/>
			<point x="45" y="601" type="line"/>
			<point x="253" y="601" type="line"/>
			<point x="253" y="389" type="line"/>
			<point x="125" y="389" type="line"/>
			<point x="125" y="324" type="line"/>
			<point x="253" y="324" type="line"/>
		</contour>
	</outline>
</glyph>
<glyph name="tbar" format="2">
	<unicode hex="0167"/>
	<advance width="600"/>
	<outline>
		<contour>
			<point x="71" y="258" type="line"/>
			<point x="204" y="258" type="line"/>
			<point x="204" y="164" type="line" smooth="yes"/>
			<point x="204" y="36"/>
			<point x="271" y="-12"/>
			<point x="383" y="-12" type="curve"/>
			<point x="432" y="-12"/>
			<point x="481" y="1"/>
			<point x="507" y="15" type="curve"/>
			<point x="507" y="88" type="line"/>
			<point x="481" y="74"/>
			<point x="438" y="65"/>
			<point x="405" y="65" type="curve" smooth="yes"/>
			<point x="338" y="65"/>
			<point x="297" y="95"/>
			<point x="297" y="176" type="curve" smooth="yes"/>
			<point x="297" y="258" type="line"/>
			<point x="501" y="258" type="line"/>
			<point x="501" y="322" type="line"/>
			<point x="297" y="322" type="line"/>
			<point x="297" y="447" type="line"/>
			<point x="510" y="447" type="line"/>
			<point x="510" y="523" type="line"/>
			<point x="297" y="523" type="line"/>
			<point x="297" y="692" type="line"/>
			<point x="218" y="692" type="line"/>
			<point x="210" y="583" type="line" smooth="yes"/>
			<point x="206" y="524"/>
			<point x="176" y="519"/>
			<point x="148" y="519" type="curve" smooth="yes"/>
			<point x="60" y="519" type="line"/>
			<point x="60" y="447" type="line"/>
			<point x="204" y="447" type="line"/>
			<point x="204" y="322" type="line"/>
			<point x="71" y="322" type="line"/>
		</contour>
	</outline>
</glyph>
<glyph name="Uogonek" format="2">
	<unicode hex="0172"/>
	<advance width="600"/>
	<outline>
		<contour>
			<point x="332" y="-203" type="curve" smooth="yes"/>
			<point x="361" y="-203"/>
			<point x="387" y="-197"/>
			<point x="400" y="-191" type="curve"/>
			<point x="400" y="-129" type="line"/>
			<point x="390" y="-133"/>
			<point x="372" y="-136"/>
			<point x="355" y="-136" type="curve" smooth="yes"/>
			<point x="323" y="-136"/>
			<point x="298" y="-123"/>
			<point x="298" y="-88" type="curve" smooth="yes"/>
			<point x="298" y="-55"/>
			<point x="323" y="-23"/>
			<point x="391" y="0" type="curve"/>
			<point x="390" y="0" type="line"/>
			<point x="484" y="32"/>
			<point x="529" y="117"/>
			<point x="529" y="246" type="curve" smooth="yes"/>
			<point x="529" y="684" type="line"/>
			<point x="434" y="684" type="line"/>
			<point x="434" y="246" type="line" smooth="yes"/>
			<point x="434" y="138"/>
			<point x="394" y="67"/>
			<point x="300" y="67" type="curve" smooth="yes"/>
			<point x="206" y="67"/>
			<point x="166" y="138"/>
			<point x="166" y="246" type="curve" smooth="yes"/>
			<point x="166" y="684" type="line"/>
			<point x="71" y="684" type="line"/>
			<point x="71" y="246" type="line" smooth="yes"/>
			<point x="71" y="83"/>
			<point x="137" y="-11"/>
			<point x="288" y="-14" type="curve"/>
			<point x="245" y="-38"/>
			<point x="221" y="-76"/>
			<point x="221" y="-114" type="curve" smooth="yes"/>
			<point x="221" y="-175"/>
			<point x="261" y="-203"/>
		</contour>
	</outline>
</glyph>
<glyph name="uogonek" format="2">
	<unicode hex="0173"/>
	<advance width="600"/>
	<outline>
		<contour>
			<point x="451" y="-203" type="curve" smooth="yes"/>
			<point x="480" y="-203"/>
			<point x="506" y="-197"/>
			<point x="519" y="-191" type="curve"/>
			<point x="519" y="-129" type="line"/>
			<point x="509" y="-133"/>
			<point x="491" y="-136"/>
			<point x="474" y="-136" type="curve" smooth="yes"/>
			<point x="442" y="-136"/>
			<point x="417" y="-123"/>
			<point x="417" y="-88" type="curve" smooth="yes"/>
			<point x="417" y="-55"/>
			<point x="442" y="-23"/>
			<point x="510" y="0" type="curve"/>
			<point x="510" y="523" type="line"/>
			<point x="416" y="523" type="line"/>
			<point x="416" y="218" type="line" smooth="yes"/>
			<point x="416" y="190"/>
			<point x="413" y="159"/>
			<point x="402" y="136" type="curve" smooth="yes"/>
			<point x="381" y="93"/>
			<point x="345" y="63"/>
			<point x="287" y="63" type="curve" smooth="yes"/>
			<point x="219" y="63"/>
			<point x="179" y="109"/>
			<point x="179" y="195" type="curve" smooth="yes"/>
			<point x="179" y="523" type="line"/>
			<point x="86" y="523" type="line"/>
			<point x="86" y="177" type="line" smooth="yes"/>
			<point x="86" y="49"/>
			<point x="148" y="-14"/>
			<point x="248" y="-14" type="curve" smooth="yes"/>
			<point x="326" y="-14"/>
			<point x="384" y="31"/>
			<point x="419" y="104" type="curve"/>
			<point x="419" y="0" type="line"/>
			<point x="436" y="0" type="line"/>
			<point x="377" y="-21"/>
			<point x="340" y="-67"/>
			<point x="340" y="-114" type="curve" smooth="yes"/>
			<point x="340" y="-175"/>
			<point x="380" y="-203"/>
		</contour>
	</outline>
</glyph>
<glyph name="Oslashacute" format="2">
	<unicode hex="01FE"/>
	<advance width="600"/>
	<outline>
		<contour>
			<point x="263" y="747" type="line"/>
			<point x="339" y="747" type="line"/>
			<point x="430" y="884" type="line"/>
			<point x="326" y="884" type="line"/>
		</contour>
		<contour>
			<point x="300" y="-14" type="curve" smooth="yes"/>
			<point x="453" y="-14"/>
			<point x="546" y="104"/>
			<point x="546" y="335" type="curve" smooth="yes"/>
			<point x="546" y="349" type="line" smooth="yes"/>
			<point x="546" y="452"/>
			<point x="527" y="533"/>
			<point x="493" y="591" type="curve"/>
			<point x="564" y="708" type="line"/>
			<point x="483" y="707" type="line"/>
			<point x="446" y="647" type="line"/>
			<point x="407" y="681"/>
			<point x="358" y="698"/>
			<point x="300" y="698" type="curve" smooth="yes"/>
			<point x="147" y="698"/>
			<point x="54" y="579"/>
			<point x="54" y="349" type="curve" smooth="yes"/>
			<point x="54" y="335" type="line" smooth="yes"/>
			<point x="54" y="231"/>
			<point x="73" y="150"/>
			<point x="107" y="93" type="curve"/>
			<point x="36" y="-24" type="line"/>
			<point x="116" y="-24" type="line"/>
			<point x="153" y="37" type="line"/>
			<point x="192" y="3"/>
			<point x="242" y="-14"/>
		</contour>
		<contour>
			<point x="151" y="339" type="curve" smooth="yes"/>
			<point x="151" y="346" type="line" smooth="yes"/>
			<point x="151" y="537"/>
			<point x="206" y="619"/>
			<point x="300" y="619" type="curve" smooth="yes"/>
			<point x="342" y="619"/>
			<point x="377" y="602"/>
			<point x="402" y="565" type="curve"/>
			<point x="170" y="181" type="line"/>
			<point x="157" y="221"/>
			<point x="151" y="274"/>
		</contour>
		<contour>
			<point x="300" y="66" type="curve" smooth="yes"/>
			<point x="257" y="66"/>
			<point x="223" y="83"/>
			<point x="198" y="119" type="curve"/>
			<point x="430" y="504" type="line"/>
			<point x="442" y="464"/>
			<point x="449" y="411"/>
			<point x="449" y="346" type="curve" smooth="yes"/>
			<point x="449" y="339" type="line" smooth="yes"/>
			<point x="449" y="148"/>
			<point x="393" y="66"/>
		</contour>
	</outline>
</glyph>
<glyph name="oslashacute" format="2">
	<unicode hex="01FF"/>
	<advance width="600"/>
	<outline>
		<contour>
			<point x="445" y="750" type="line"/>
			<point x="337" y="750" type="line"/>
			<point x="262" y="604" type="line"/>
			<point x="339" y="604" type="line"/>
		</contour>
		<contour>
			<point x="299" y="-14" type="curve" smooth="yes"/>
			<point x="437" y="-14"/>
			<point x="537" y="84"/>
			<point x="537" y="256" type="curve" smooth="yes"/>
			<point x="537" y="270" type="line" smooth="yes"/>
			<point x="537" y="345"/>
			<point x="518" y="406"/>
			<point x="484" y="451" type="curve"/>
			<point x="557" y="547" type="line"/>
			<point x="477" y="547" type="line"/>
			<point x="438" y="496" type="line"/>
			<point x="400" y="523"/>
			<point x="354" y="537"/>
			<point x="301" y="537" type="curve" smooth="yes"/>
			<point x="161" y="537"/>
			<point x="63" y="436"/>
			<point x="63" y="270" type="curve" smooth="yes"/>
			<point x="63" y="256" type="line" smooth="yes"/>
			<point x="63" y="180"/>
			<point x="83" y="118"/>
			<point x="116" y="72" type="curve"/>
			<point x="42" y="-24" type="line"/>
			<point x="123" y="-24" type="line"/>
			<point x="162" y="27" type="line"/>
			<point x="200" y="0"/>
			<point x="247" y="-14"/>
		</contour>
		<contour>
			<point x="160" y="259" type="curve" smooth="yes"/>
			<point x="160" y="266" type="line" smooth="yes"/>
			<point x="160" y="398"/>
			<point x="217" y="462"/>
			<point x="299" y="462" type="curve" smooth="yes"/>
			<point x="336" y="462"/>
			<point x="368" y="450"/>
			<point x="392" y="424" type="curve"/>
			<point x="179" y="146" type="line"/>
			<point x="167" y="175"/>
			<point x="160" y="213"/>
		</contour>
		<contour>
			<point x="300" y="62" type="curve" smooth="yes"/>
			<point x="264" y="62"/>
			<point x="233" y="74"/>
			<point x="209" y="99" type="curve"/>
			<point x="421" y="379" type="line"/>
			<point x="433" y="349"/>
			<point x="440" y="312"/>
			<point x="440" y="266" type="curve" smooth="yes"/>
			<point x="440" y="259" type="line" smooth="yes"/>
			<point x="440" y="126"/>
			<point x="384" y="62"/>
		</contour>
	</outline>
</glyph>
<glyph name="circumflex" format="2">
	<unicode hex="02C6"/>
	<advance width="600"/>
	<outline>
		<contour>
			<point x="133" y="604" type="line"/>
			<point x="220" y="604" type="line"/>
			<point x="299" y="705" type="line"/>
			<point x="377" y="604" type="line"/>
			<point x="467" y="604" type="line"/>
			<point x="349" y="750" type="line"/>
			<point x="251" y="750" type="line"/>
		</contour>
	</outline>
	<anchor name="_top" x="300" y="523"/>
</glyph>
<glyph name="breve" format="2">
	<unicode hex="02D8"/>
	<advance width="600"/>
	<outline>
		<contour>
			<point x="298" y="594" type="curve" smooth="yes"/>
			<point x="403" y="594"/>
			<point x="450" y="638"/>
			<point x="450" y="750" type="curve"/>
			<point x="377" y="750" type="line"/>
			<point x="377" y="680"/>
			<point x="358" y="651"/>
			<point x="299" y="651" type="curve" smooth="yes"/>
			<point x="241" y="651"/>
			<point x="222" y="681"/>
			<point x="222" y="750" type="curve"/>
			<point x="150" y="750" type="line"/>
			<point x="150" y="638"/>
			<point x="193" y="594"/>
		</contour>
	</outline>
	<anchor name="_top" x="299" y="523"/>
</glyph>
<glyph name="ogonek" format="2">
	<unicode hex="02DB"/>
	<advance width="600"/>
	<outline>
		<contour>
			<point x="320" y="-203" type="curve" smooth="yes"/>
			<point x="349" y="-203"/>
			<point x="375" y="-197"/>
			<point x="388" y="-191" type="curve"/>
			<point x="388" y="-129" type="line"/>
			<point x="378" y="-133"/>
			<point x="360" y="-136"/>
			<point x="343" y="-136" type="curve" smooth="yes"/>
			<point x="311" y="-136"/>
			<point x="286" y="-123"/>
			<point x="286" y="-88" type="curve" smooth="yes"/>
			<point x="286" y="-55"/>
			<point x="311" y="-23"/>
			<point x="379" y="0" type="curve"/>
			<point x="308" y="1" type="line"/>
			<point x="246" y="-21"/>
			<point x="209" y="-67"/>
			<point x="209" y="-114" type="curve" smooth="yes"/>
			<point x="209" y="-175"/>
			<point x="249" y="-203"/>
		</contour>
	</outline>
	<anchor name="_ogonek" x="379" y="0"/>
</glyph>
<glyph name="hungarumlaut" format="2">
	<unicode hex="02DD"/>
	<advance width="600"/>
	<outline>
		<contour>
			<point x="310" y="604" type="line"/>
			<point x="379" y="604" type="line"/>
			<point x="470" y="750" type="line"/>
			<point x="376" y="750" type="line"/>
		</contour>
		<contour>
			<point x="135" y="604" type="line"/>
			<point x="205" y="604" type="line"/>
			<point x="294" y="750" type="line"/>
			<point x="201" y="750" type="line"/>
		</contour>
	</outline>
	<anchor name="_top" x="258" y="523"/>
</glyph>
<glyph name="bullet" format="2">
	<unicode hex="2022"/>
	<advance width="600"/>
	<outline>
		<contour>
			<point x="300" y="163" type="curve" smooth="yes"/>
			<point x="381" y="163"/>
			<point x="427" y="200"/>
			<point x="427" y="297" type="curve" smooth="yes"/>
			<point x="427" y="393"/>
			<point x="381" y="429"/>
			<point x="300" y="429" type="curve" smooth="yes"/>
			<point x="218" y="429"/>
			<point x="173" y="393"/>
			<point x="173" y="297" type="curve" smooth="yes"/>
			<point x="173" y="201"/>
			<point x="218" y="163"/>
		</contour>
	</outline>
</glyph>
<glyph name="ellipsis" format="2">
	<unicode hex="2026"/>
	<advance width="600"/>
	<outline>
		<contour>
			<point x="117" y="-12" type="curve" smooth="yes"/>
			<point x="153" y="-12"/>
			<point x="174" y="5"/>
			<point x="174" y="56" type="curve" smooth="yes"/>
			<point x="174" y="107"/>
			<point x="153" y="124"/>
			<point x="117" y="124" type="curve" smooth="yes"/>
			<point x="80" y="124"/>
			<point x="59" y="107"/>
			<point x="59" y="56" type="curve" smooth="yes"/>
			<point x="59" y="5"/>
			<point x="80" y="-12"/>
		</contour>
		<contour>
			<point x="300" y="-12" type="curve" smooth="yes"/>
			<point x="337" y="-12"/>
			<point x="357" y="6"/>
			<point x="357" y="56" type="curve" smooth="yes"/>
			<point x="357" y="106"/>
			<point x="337" y="124"/>
			<point x="300" y="124" type="curve" smooth="yes"/>
			<point x="263" y="124"/>
			<point x="243" y="106"/>
			<point x="243" y="56" type="curve" smooth="yes"/>
			<point x="243" y="6"/>
			<point x="263" y="-12"/>
		</contour>
		<contour>
			<point x="484" y="-12" type="curve" smooth="yes"/>
			<point x="520" y="-12"/>
			<point x="541" y="6"/>
			<point x="541" y="56" type="curve" smooth="yes"/>
			<point x="541" y="107"/>
			<point x="520" y="124"/>
			<point x="484" y="124" type="curve" smooth="yes"/>
			<point x="447" y="124"/>
			<point x="426" y="107"/>
			<point x="426" y="56" type="curve" smooth="yes"/>
			<point x="426" y="6"/>
			<point x="447" y="-12"/>
		</contour>
	</outline>
</glyph>
<glyph name="perthousand" format="2">
	<unicode hex="2030"/>
	<advance width="600"/>
	<outline>
		<contour>
			<point x="148" y="393" type="curve" smooth="yes"/>
			<point x="226" y="393"/>
			<point x="279" y="444"/>
			<point x="279" y="542" type="curve" smooth="yes"/>
			<point x="279" y="640"/>
			<point x="228" y="691"/>
			<point x="150" y="691" type="curve" smooth="yes"/>
			<point x="72" y="691"/>
			<point x="19" y="640"/>
			<point x="19" y="542" type="curve" smooth="yes"/>
			<point x="19" y="444"/>
			<point x="70" y="393"/>
		</contour>
		<contour>
			<point x="148" y="444" type="curve" smooth="yes"/>
			<point x="102" y="444"/>
			<point x="81" y="477"/>
			<point x="81" y="542" type="curve" smooth="yes"/>
			<point x="81" y="606"/>
			<point x="103" y="641"/>
			<point x="149" y="641" type="curve" smooth="yes"/>
			<point x="195" y="641"/>
			<point x="216" y="606"/>
			<point x="216" y="542" type="curve" smooth="yes"/>
			<point x="216" y="477"/>
			<point x="195" y="444"/>
		</contour>
		<contour>
			<point x="21" y="272" type="line"/>
			<point x="570" y="407" type="line"/>
			<point x="570" y="457" type="line"/>
			<point x="21" y="321" type="line"/>
		</contour>
		<contour>
			<point x="252" y="-7" type="curve" smooth="yes"/>
			<point x="295" y="-7"/>
			<point x="330" y="9"/>
			<point x="353" y="38" type="curve"/>
			<point x="375" y="9"/>
			<point x="409" y="-7"/>
			<point x="452" y="-7" type="curve" smooth="yes"/>
			<point x="529" y="-7"/>
			<point x="582" y="44"/>
			<point x="582" y="142" type="curve" smooth="yes"/>
			<point x="582" y="240"/>
			<point x="531" y="291"/>
			<point x="454" y="291" type="curve" smooth="yes"/>
			<point x="411" y="291"/>
			<point x="376" y="275"/>
			<point x="353" y="246" type="curve"/>
			<point x="331" y="274"/>
			<point x="297" y="291"/>
			<point x="253" y="291" type="curve" smooth="yes"/>
			<point x="177" y="291"/>
			<point x="124" y="240"/>
			<point x="124" y="142" type="curve" smooth="yes"/>
			<point x="124" y="44"/>
			<point x="174" y="-7"/>
		</contour>
		<contour>
			<point x="254" y="44" type="curve" smooth="yes"/>
			<point x="208" y="44"/>
			<point x="187" y="77"/>
			<point x="187" y="142" type="curve" smooth="yes"/>
			<point x="187" y="206"/>
			<point x="208" y="241"/>
			<point x="255" y="241" type="curve" smooth="yes"/>
			<point x="301" y="241"/>
			<point x="321" y="206"/>
			<point x="321" y="142" type="curve" smooth="yes"/>
			<point x="321" y="77"/>
			<point x="300" y="44"/>
		</contour>
		<contour>
			<point x="451" y="44" type="curve" smooth="yes"/>
			<point x="405" y="44"/>
			<point x="384" y="77"/>
			<point x="384" y="142" type="curve" smooth="yes"/>
			<point x="384" y="206"/>
			<point x="406" y="241"/>
			<point x="452" y="241" type="curve" smooth="yes"/>
			<point x="498" y="241"/>
			<point x="519" y="206"/>
			<point x="519" y="142" type="curve" smooth="yes"/>
			<point x="519" y="77"/>
			<point x="498" y="44"/>
		</contour>
	</outline>
	<guideline x="517.381294964" y="300.3525179856" angle="90"/>
	<guideline x="219.4460431655" y="342.107913669" angle="90"/>
	<guideline x="101.5107913669" y="541.2805755395" angle="0"/>
</glyph>
<glyph name="guilsinglright" format="2">
	<unicode hex="203A"/>
	<advance width="600"/>
	<outline>
		<contour>
			<point x="137" y="77" type="line"/>
			<point x="257" y="77" type="line"/>
			<point x="475" y="287" type="line"/>
			<point x="256" y="497" type="line"/>
			<point x="137" y="497" type="line"/>
			<point x="355" y="289" type="line"/>
		</contour>
	</outline>
</glyph>
<glyph name="fraction" format="2">
	<unicode hex="2044"/>
	<advance width="600"/>
	<outline>
		<contour>
			<point x="381" y="417" type="line"/>
			<point x="464" y="417" type="line"/>
			<point x="578" y="684" type="line"/>
			<point x="480" y="684" type="line"/>
		</contour>
		<contour>
			<point x="22" y="0" type="line"/>
			<point x="120" y="0" type="line"/>
			<point x="220" y="267" type="line"/>
			<point x="136" y="267" type="line"/>
		</contour>
	</outline>
</glyph>
<glyph name="Euro" format="2">
	<unicode hex="20AC"/>
	<advance width="600"/>
	<outline>
		<contour>
			<point x="27" y="247" type="line"/>
			<point x="110" y="247" type="line"/>
			<point x="135" y="77"/>
			<point x="236" y="-12"/>
			<point x="393" y="-12" type="curve" smooth="yes"/>
			<point x="464" y="-12"/>
			<point x="516" y="3"/>
			<point x="553" y="27" type="curve"/>
			<point x="553" y="108" type="line"/>
			<point x="511" y="81"/>
			<point x="461" y="70"/>
			<point x="408" y="70" type="curve" smooth="yes"/>
			<point x="302" y="70"/>
			<point x="233" y="127"/>
			<point x="211" y="247" type="curve"/>
			<point x="447" y="247" type="line"/>
			<point x="447" y="307" type="line"/>
			<point x="204" y="307" type="line"/>
			<point x="203" y="318"/>
			<point x="203" y="328"/>
			<point x="203" y="340" type="curve" smooth="yes"/>
			<point x="203" y="347" type="line" smooth="yes"/>
			<point x="203" y="356"/>
			<point x="203" y="365"/>
			<point x="204" y="374" type="curve"/>
			<point x="447" y="374" type="line"/>
			<point x="447" y="435" type="line"/>
			<point x="210" y="435" type="line"/>
			<point x="232" y="555"/>
			<point x="304" y="616"/>
			<point x="413" y="616" type="curve" smooth="yes"/>
			<point x="463" y="615"/>
			<point x="511" y="605"/>
			<point x="550" y="581" type="curve"/>
			<point x="550" y="665" type="line"/>
			<point x="513" y="683"/>
			<point x="460" y="696"/>
			<point x="402" y="696" type="curve" smooth="yes"/>
			<point x="242" y="696"/>
			<point x="136" y="601"/>
			<point x="110" y="435" type="curve"/>
			<point x="27" y="435" type="line"/>
			<point x="27" y="374" type="line"/>
			<point x="104" y="374" type="line"/>
			<point x="104" y="366"/>
			<point x="103" y="358"/>
			<point x="103" y="351" type="curve" smooth="yes"/>
			<point x="103" y="337" type="line" smooth="yes"/>
			<point x="103" y="327"/>
			<point x="104" y="317"/>
			<point x="104" y="307" type="curve"/>
			<point x="27" y="307" type="line"/>
		</contour>
	</outline>
</glyph>
<glyph name="servicemark" format="2">
	<unicode hex="2120"/>
	<advance width="600"/>
	<outline>
		<contour>
			<point x="143" y="337" type="curve" smooth="yes"/>
			<point x="208" y="337"/>
			<point x="255" y="377"/>
			<point x="255" y="446" type="curve" smooth="yes"/>
			<point x="255" y="514"/>
			<point x="204" y="530"/>
			<point x="148" y="540" type="curve" smooth="yes"/>
			<point x="104" y="547"/>
			<point x="79" y="558"/>
			<point x="79" y="592" type="curve" smooth="yes"/>
			<point x="79" y="623"/>
			<point x="100" y="645"/>
			<point x="143" y="645" type="curve" smooth="yes"/>
			<point x="186" y="645"/>
			<point x="223" y="628"/>
			<point x="250" y="606" type="curve"/>
			<point x="250" y="659" type="line"/>
			<point x="232" y="671"/>
			<point x="196" y="689"/>
			<point x="144" y="689" type="curve" smooth="yes"/>
			<point x="74" y="689"/>
			<point x="27" y="650"/>
			<point x="27" y="583" type="curve" smooth="yes"/>
			<point x="27" y="512"/>
			<point x="80" y="498"/>
			<point x="135" y="489" type="curve" smooth="yes"/>
			<point x="182" y="481"/>
			<point x="203" y="470"/>
			<point x="203" y="437" type="curve" smooth="yes"/>
			<point x="203" y="405"/>
			<point x="178" y="382"/>
			<point x="143" y="382" type="curve" smooth="yes"/>
			<point x="101" y="382"/>
			<point x="61" y="400"/>
			<point x="31" y="424" type="curve"/>
			<point x="31" y="370" type="line"/>
			<point x="53" y="355"/>
			<point x="89" y="337"/>
		</contour>
		<contour>
			<point x="294" y="342" type="line"/>
			<point x="342" y="342" type="line"/>
			<point x="342" y="508" type="line" smooth="yes"/>
			<point x="342" y="550"/>
			<point x="341" y="591"/>
			<point x="337" y="629" type="curve"/>
			<point x="341" y="629" type="line"/>
			<point x="398" y="433" type="line"/>
			<point x="448" y="433" type="line"/>
			<point x="507" y="629" type="line"/>
			<point x="510" y="629" type="line"/>
			<point x="507" y="591"/>
			<point x="505" y="551"/>
			<point x="505" y="508" type="curve" smooth="yes"/>
			<point x="505" y="342" type="line"/>
			<point x="554" y="342" type="line"/>
			<point x="554" y="684" type="line"/>
			<point x="478" y="684" type="line"/>
			<point x="424" y="490" type="line"/>
			<point x="422" y="490" type="line"/>
			<point x="369" y="684" type="line"/>
			<point x="294" y="684" type="line"/>
		</contour>
	</outline>
</glyph>
<glyph name="ohm" format="2">
	<unicode hex="2126"/>
	<advance width="600"/>
	<outline>
		<contour>
			<point x="54" y="0" type="line"/>
			<point x="275" y="0" type="line"/>
			<point x="275" y="80" type="line"/>
			<point x="196" y="160"/>
			<point x="151" y="254"/>
			<point x="151" y="388" type="curve" smooth="yes"/>
			<point x="151" y="395" type="line" smooth="yes"/>
			<point x="151" y="552"/>
			<point x="206" y="619"/>
			<point x="301" y="619" type="curve" smooth="yes"/>
			<point x="396" y="619"/>
			<point x="449" y="552"/>
			<point x="449" y="395" type="curve" smooth="yes"/>
			<point x="449" y="388" type="line" smooth="yes"/>
			<point x="449" y="256"/>
			<point x="403" y="160"/>
			<point x="324" y="80" type="curve"/>
			<point x="324" y="0" type="line"/>
			<point x="545" y="0" type="line"/>
			<point x="545" y="81" type="line"/>
			<point x="424" y="81" type="line"/>
			<point x="485" y="143"/>
			<point x="547" y="247"/>
			<point x="547" y="386" type="curve" smooth="yes"/>
			<point x="547" y="400" type="line" smooth="yes"/>
			<point x="547" y="589"/>
			<point x="457" y="698"/>
			<point x="301" y="698" type="curve" smooth="yes"/>
			<point x="149" y="698"/>
			<point x="53" y="592"/>
			<point x="53" y="400" type="curve" smooth="yes"/>
			<point x="53" y="386" type="line" smooth="yes"/>
			<point x="53" y="247"/>
			<point x="104" y="151"/>
			<point x="173" y="81" type="curve"/>
			<point x="54" y="81" type="line"/>
		</contour>
	</outline>
	<guideline x="501.8345323741" y="363.6402877698" angle="180.0963"/>
	<guideline x="213.964028777" y="423.2446043166" angle="90"/>
</glyph>
<glyph name="arrowup" format="2">
	<unicode hex="2191"/>
	<advance width="600"/>
	<outline>
		<contour>
			<point x="261" y="0" type="line"/>
			<point x="339" y="0" type="line"/>
			<point x="339" y="563" type="line"/>
			<point x="525" y="376" type="line"/>
			<point x="525" y="478" type="line"/>
			<point x="300" y="703" type="line"/>
			<point x="75" y="478" type="line"/>
			<point x="75" y="376" type="line"/>
			<point x="261" y="563" type="line"/>
		</contour>
	</outline>
	<guideline x="394.5323741007" y="412.6762589928" angle="0"/>
	<guideline x="301.2589928057" y="435.5323741007" angle="90"/>
</glyph>
<glyph name="arrowright" format="2">
	<unicode hex="2192"/>
	<advance width="600"/>
	<outline>
		<contour>
			<point x="253" y="583" type="line"/>
			<point x="441" y="397" type="line"/>
			<point x="40" y="397" type="line"/>
			<point x="40" y="318" type="line"/>
			<point x="442" y="318" type="line"/>
			<point x="254" y="132" type="line"/>
			<point x="356" y="132" type="line"/>
			<point x="581" y="357" type="line"/>
			<point x="355" y="583" type="line"/>
		</contour>
	</outline>
</glyph>
<glyph name="uni2196" format="2">
	<unicode hex="2196"/>
	<advance width="600"/>
	<outline>
		<contour>
			<point x="528" y="72" type="line"/>
			<point x="584" y="128" type="line"/>
			<point x="172" y="539" type="line"/>
			<point x="456" y="537" type="line"/>
			<point x="384" y="610" type="line"/>
			<point x="46" y="610" type="line"/>
			<point x="46" y="271" type="line"/>
			<point x="117" y="200" type="line"/>
			<point x="116" y="484" type="line"/>
		</contour>
	</outline>
</glyph>
<glyph name="uni2197" format="2">
	<unicode hex="2197"/>
	<advance width="600"/>
	<outline>
		<contour>
			<point x="72" y="72" type="line"/>
			<point x="483" y="484" type="line"/>
			<point x="482" y="200" type="line"/>
			<point x="554" y="272" type="line"/>
			<point x="554" y="610" type="line"/>
			<point x="216" y="610" type="line"/>
			<point x="144" y="539" type="line"/>
			<point x="429" y="540" type="line"/>
			<point x="16" y="128" type="line"/>
		</contour>
	</outline>
	<guideline x="-44.2014388489" y="236.4892086331" angle="0"/>
</glyph>
<glyph name="uni2199" format="2">
	<unicode hex="2199"/>
	<advance width="600"/>
	<outline>
		<contour>
			<point x="46" y="72" type="line"/>
			<point x="384" y="72" type="line"/>
			<point x="456" y="143" type="line"/>
			<point x="171" y="141" type="line"/>
			<point x="584" y="554" type="line"/>
			<point x="528" y="610" type="line"/>
			<point x="117" y="198" type="line"/>
			<point x="118" y="482" type="line"/>
			<point x="46" y="409" type="line"/>
		</contour>
	</outline>
</glyph>
<glyph name="partialdiff" format="2">
	<unicode hex="2202"/>
	<advance width="600"/>
	<outline>
		<contour>
			<point x="296" y="-14" type="curve" smooth="yes"/>
			<point x="435" y="-14"/>
			<point x="537" y="87"/>
			<point x="537" y="278" type="curve" smooth="yes"/>
			<point x="537" y="292" type="line" smooth="yes"/>
			<point x="537" y="485"/>
			<point x="446" y="605"/>
			<point x="323" y="684" type="curve"/>
			<point x="176" y="684" type="line"/>
			<point x="304" y="610"/>
			<point x="385" y="535"/>
			<point x="423" y="416" type="curve"/>
			<point x="381" y="470"/>
			<point x="332" y="499"/>
			<point x="264" y="499" type="curve" smooth="yes"/>
			<point x="145" y="499"/>
			<point x="63" y="396"/>
			<point x="63" y="253" type="curve" smooth="yes"/>
			<point x="63" y="239" type="line" smooth="yes"/>
			<point x="63" y="78"/>
			<point x="155" y="-14"/>
		</contour>
		<contour>
			<point x="299" y="62" type="curve" smooth="yes"/>
			<point x="211" y="62"/>
			<point x="160" y="127"/>
			<point x="160" y="241" type="curve" smooth="yes"/>
			<point x="160" y="248" type="line" smooth="yes"/>
			<point x="160" y="373"/>
			<point x="220" y="429"/>
			<point x="303" y="429" type="curve" smooth="yes"/>
			<point x="381" y="429"/>
			<point x="440" y="380"/>
			<point x="440" y="257" type="curve" smooth="yes"/>
			<point x="440" y="250" type="line" smooth="yes"/>
			<point x="440" y="128"/>
			<point x="385" y="62"/>
		</contour>
	</outline>
</glyph>
<glyph name="summation" format="2">
	<unicode hex="2211"/>
	<advance width="600"/>
	<outline>
		<contour>
			<point x="67" y="0" type="line"/>
			<point x="535" y="0" type="line"/>
			<point x="535" y="81" type="line"/>
			<point x="187" y="81" type="line"/>
			<point x="428" y="310" type="line"/>
			<point x="428" y="377" type="line"/>
			<point x="196" y="604" type="line"/>
			<point x="527" y="604" type="line"/>
			<point x="527" y="684" type="line"/>
			<point x="68" y="684" type="line"/>
			<point x="68" y="607" type="line"/>
			<point x="346" y="343" type="line"/>
			<point x="67" y="79" type="line"/>
		</contour>
	</outline>
</glyph>
<glyph name="radical" format="2">
	<unicode hex="221A"/>
	<advance width="600"/>
	<outline>
		<contour>
			<point x="219" y="0" type="line"/>
			<point x="336" y="0" type="line"/>
			<point x="571" y="684" type="line"/>
			<point x="470" y="684" type="line"/>
			<point x="280" y="98" type="line"/>
			<point x="176" y="450" type="line"/>
			<point x="37" y="450" type="line"/>
			<point x="37" y="368" type="line"/>
			<point x="104" y="368" type="line"/>
		</contour>
	</outline>
</glyph>
<glyph name="infinity" format="2">
	<unicode hex="221E"/>
	<advance width="600"/>
	<outline>
		<contour>
			<point x="172" y="592" type="curve" smooth="yes"/>
			<point x="73" y="592"/>
			<point x="28" y="497"/>
			<point x="28" y="334" type="curve" smooth="yes"/>
			<point x="28" y="172"/>
			<point x="73" y="75"/>
			<point x="170" y="75" type="curve" smooth="yes"/>
			<point x="247" y="75"/>
			<point x="286" y="135"/>
			<point x="301" y="201" type="curve"/>
			<point x="315" y="135"/>
			<point x="351" y="74"/>
			<point x="429" y="74" type="curve" smooth="yes"/>
			<point x="529" y="74"/>
			<point x="572" y="170"/>
			<point x="572" y="332" type="curve" smooth="yes"/>
			<point x="572" y="493"/>
			<point x="530" y="591"/>
			<point x="429" y="591" type="curve" smooth="yes"/>
			<point x="358" y="591"/>
			<point x="317" y="542"/>
			<point x="301" y="467" type="curve"/>
			<point x="287" y="531"/>
			<point x="248" y="592"/>
		</contour>
		<contour>
			<point x="182" y="148" type="curve" smooth="yes"/>
			<point x="125" y="148"/>
			<point x="100" y="210"/>
			<point x="100" y="333" type="curve" smooth="yes"/>
			<point x="100" y="459"/>
			<point x="126" y="519"/>
			<point x="183" y="519" type="curve" smooth="yes"/>
			<point x="239" y="519"/>
			<point x="264" y="461"/>
			<point x="264" y="333" type="curve" smooth="yes"/>
			<point x="264" y="210"/>
			<point x="240" y="148"/>
		</contour>
		<contour>
			<point x="418" y="148" type="curve" smooth="yes"/>
			<point x="360" y="148"/>
			<point x="337" y="207"/>
			<point x="337" y="333" type="curve" smooth="yes"/>
			<point x="337" y="462"/>
			<point x="361" y="518"/>
			<point x="418" y="518" type="curve" smooth="yes"/>
			<point x="474" y="518"/>
			<point x="500" y="460"/>
			<point x="500" y="333" type="curve" smooth="yes"/>
			<point x="500" y="205"/>
			<point x="474" y="148"/>
		</contour>
	</outline>
</glyph>
<glyph name="lozenge" format="2">
	<unicode hex="25CA"/>
	<advance width="600"/>
	<outline>
		<contour>
			<point x="243" y="0" type="line"/>
			<point x="357" y="0" type="line"/>
			<point x="568" y="342" type="line"/>
			<point x="356" y="684" type="line"/>
			<point x="241" y="684" type="line"/>
			<point x="32" y="342" type="line"/>
		</contour>
		<contour>
			<point x="135" y="342" type="line"/>
			<point x="299" y="616" type="line"/>
			<point x="464" y="342" type="line"/>
			<point x="300" y="69" type="line"/>
		</contour>
	</outline>
</glyph>
<glyph name="uni2605" format="2">
	<unicode hex="2605"/>
	<advance width="600"/>
	<outline>
		<contour>
			<point x="327" y="304" type="line"/>
			<point x="255" y="85" type="line"/>
			<point x="441" y="220" type="line"/>
			<point x="628" y="85" type="line"/>
			<point x="556" y="303" type="line"/>
			<point x="743" y="437" type="line"/>
			<point x="513" y="438" type="line"/>
			<point x="442" y="656" type="line"/>
			<point x="370" y="438" type="line"/>
			<point x="141" y="439" type="line"/>
		</contour>
	</outline>
</glyph>
<glyph name="anglebracketright" format="2">
	<unicode hex="3009"/>
	<advance width="600"/>
	<outline>
		<contour>
			<point x="69" y="-163" type="line"/>
			<point x="171" y="-163" type="line"/>
			<point x="470" y="315" type="line"/>
			<point x="174" y="792" type="line"/>
			<point x="72" y="792" type="line"/>
			<point x="369" y="315" type="line"/>
		</contour>
	</outline>
</glyph>
<glyph name="Lslashcomb" format="2">
	<advance width="600"/>
	<outline>
		<contour>
			<point x="29" y="394" type="line"/>
			<point x="29" y="322" type="line"/>
			<point x="383" y="462" type="line"/>
			<point x="383" y="534" type="line"/>
		</contour>
	</outline>
	<anchor name="_center" x="155" y="402"/>
</glyph>
<glyph name="ampersand_ampersand.cLig" format="2">
	<advance width="600"/>
	<outline>
		<contour>
			<point x="-299" y="-14" type="curve" smooth="yes"/>
			<point x="-212" y="-14"/>
			<point x="-138" y="17"/>
			<point x="-78" y="87" type="curve"/>
			<point x="-44" y="24"/>
			<point x="24" y="-14"/>
			<point x="110" y="-14" type="curve" smooth="yes"/>
			<point x="200" y="-14"/>
			<point x="272" y="21"/>
			<point x="328" y="80" type="curve"/>
			<point x="406" y="0" type="line"/>
			<point x="517" y="0" type="line"/>
			<point x="377" y="144" type="line"/>
			<point x="420" y="212"/>
			<point x="447" y="297"/>
			<point x="461" y="389" type="curve"/>
			<point x="380" y="389" type="line"/>
			<point x="369" y="320"/>
			<point x="351" y="254"/>
			<point x="323" y="200" type="curve"/>
			<point x="147" y="382" type="line" smooth="yes"/>
			<point x="106" y="424"/>
			<point x="75" y="460"/>
			<point x="75" y="518" type="curve" smooth="yes"/>
			<point x="75" y="582"/>
			<point x="119" y="621"/>
			<point x="194" y="621" type="curve" smooth="yes"/>
			<point x="256" y="621"/>
			<point x="315" y="598"/>
			<point x="352" y="573" type="curve"/>
			<point x="352" y="657" type="line"/>
			<point x="318" y="677"/>
			<point x="256" y="698"/>
			<point x="190" y="698" type="curve" smooth="yes"/>
			<point x="56" y="698"/>
			<point x="-14" y="619"/>
			<point x="-14" y="517" type="curve" smooth="yes"/>
			<point x="-14" y="470"/>
			<point x="0" y="434"/>
			<point x="22" y="402" type="curve"/>
			<point x="-39" y="365"/>
			<point x="-90" y="302"/>
			<point x="-100" y="214" type="curve"/>
			<point x="-262" y="382" type="line" smooth="yes"/>
			<point x="-303" y="424"/>
			<point x="-333" y="460"/>
			<point x="-333" y="518" type="curve" smooth="yes"/>
			<point x="-333" y="582"/>
			<point x="-290" y="621"/>
			<point x="-216" y="621" type="curve" smooth="yes"/>
			<point x="-159" y="621"/>
			<point x="-105" y="598"/>
			<point x="-71" y="576" type="curve"/>
			<point x="-71" y="660" type="line"/>
			<point x="-102" y="678"/>
			<point x="-158" y="698"/>
			<point x="-220" y="698" type="curve" smooth="yes"/>
			<point x="-352" y="698"/>
			<point x="-422" y="619"/>
			<point x="-422" y="517" type="curve" smooth="yes"/>
			<point x="-422" y="470"/>
			<point x="-409" y="434"/>
			<point x="-387" y="401" type="curve"/>
			<point x="-453" y="361"/>
			<point x="-509" y="288"/>
			<point x="-509" y="187" type="curve" smooth="yes"/>
			<point x="-509" y="57"/>
			<point x="-423" y="-14"/>
		</contour>
		<contour>
			<point x="-16" y="198" type="curve" smooth="yes"/>
			<point x="-16" y="267"/>
			<point x="19" y="317"/>
			<point x="68" y="346" type="curve"/>
			<point x="73" y="340"/>
			<point x="78" y="335"/>
			<point x="84" y="329" type="curve" smooth="yes"/>
			<point x="277" y="132" type="line"/>
			<point x="238" y="88"/>
			<point x="187" y="61"/>
			<point x="124" y="61" type="curve" smooth="yes"/>
			<point x="37" y="61"/>
			<point x="-16" y="120"/>
		</contour>
		<contour>
			<point x="-424" y="198" type="curve" smooth="yes"/>
			<point x="-424" y="266"/>
			<point x="-389" y="316"/>
			<point x="-341" y="345" type="curve"/>
			<point x="-335" y="340"/>
			<point x="-330" y="335"/>
			<point x="-325" y="329" type="curve" smooth="yes"/>
			<point x="-134" y="136" type="line"/>
			<point x="-171" y="89"/>
			<point x="-222" y="61"/>
			<point x="-286" y="61" type="curve" smooth="yes"/>
			<point x="-372" y="61"/>
			<point x="-424" y="113"/>
		</contour>
	</outline>
</glyph>
<glyph name="ampersand_ampersand_ampersand.rem" format="2">
	<advance width="600"/>
	<outline>
		<contour>
			<point x="-835" y="-14" type="curve" smooth="yes"/>
			<point x="-741" y="-14"/>
			<point x="-659" y="16"/>
			<point x="-595" y="87" type="curve"/>
			<point x="-560" y="20"/>
			<point x="-485" y="-14"/>
			<point x="-394" y="-14" type="curve" smooth="yes"/>
			<point x="-299" y="-14"/>
			<point x="-217" y="17"/>
			<point x="-152" y="89" type="curve"/>
			<point x="-119" y="23"/>
			<point x="-47" y="-14"/>
			<point x="41" y="-14" type="curve" smooth="yes"/>
			<point x="137" y="-14"/>
			<point x="215" y="22"/>
			<point x="274" y="82" type="curve"/>
			<point x="357" y="0" type="line"/>
			<point x="467" y="0" type="line"/>
			<point x="324" y="144" type="line"/>
			<point x="368" y="212"/>
			<point x="398" y="297"/>
			<point x="411" y="390" type="curve"/>
			<point x="331" y="389" type="line"/>
			<point x="320" y="319"/>
			<point x="299" y="254"/>
			<point x="269" y="199" type="curve"/>
			<point x="88" y="382" type="line" smooth="yes"/>
			<point x="48" y="423"/>
			<point x="19" y="460"/>
			<point x="19" y="518" type="curve" smooth="yes"/>
			<point x="19" y="582"/>
			<point x="65" y="621"/>
			<point x="142" y="621" type="curve" smooth="yes"/>
			<point x="203" y="621"/>
			<point x="262" y="596"/>
			<point x="299" y="571" type="curve"/>
			<point x="299" y="655" type="line"/>
			<point x="265" y="676"/>
			<point x="204" y="698"/>
			<point x="138" y="698" type="curve" smooth="yes"/>
			<point x="2" y="698"/>
			<point x="-70" y="619"/>
			<point x="-70" y="517" type="curve" smooth="yes"/>
			<point x="-70" y="472"/>
			<point x="-57" y="436"/>
			<point x="-37" y="404" type="curve"/>
			<point x="-100" y="366"/>
			<point x="-160" y="299"/>
			<point x="-170" y="206" type="curve"/>
			<point x="-355" y="382" type="line" smooth="yes"/>
			<point x="-397" y="422"/>
			<point x="-425" y="460"/>
			<point x="-425" y="518" type="curve" smooth="yes"/>
			<point x="-425" y="582"/>
			<point x="-379" y="621"/>
			<point x="-299" y="621" type="curve" smooth="yes"/>
			<point x="-242" y="621"/>
			<point x="-187" y="598"/>
			<point x="-152" y="574" type="curve"/>
			<point x="-152" y="658" type="line"/>
			<point x="-184" y="678"/>
			<point x="-241" y="698"/>
			<point x="-303" y="698" type="curve" smooth="yes"/>
			<point x="-441" y="698"/>
			<point x="-514" y="619"/>
			<point x="-514" y="517" type="curve" smooth="yes"/>
			<point x="-514" y="472"/>
			<point x="-502" y="435"/>
			<point x="-482" y="403" type="curve"/>
			<point x="-546" y="366"/>
			<point x="-604" y="303"/>
			<point x="-614" y="209" type="curve"/>
			<point x="-796" y="382" type="line" smooth="yes"/>
			<point x="-838" y="422"/>
			<point x="-867" y="460"/>
			<point x="-867" y="518" type="curve" smooth="yes"/>
			<point x="-867" y="582"/>
			<point x="-821" y="621"/>
			<point x="-741" y="621" type="curve" smooth="yes"/>
			<point x="-684" y="621"/>
			<point x="-629" y="598"/>
			<point x="-594" y="574" type="curve"/>
			<point x="-594" y="658" type="line"/>
			<point x="-626" y="677"/>
			<point x="-683" y="698"/>
			<point x="-745" y="698" type="curve" smooth="yes"/>
			<point x="-883" y="698"/>
			<point x="-956" y="619"/>
			<point x="-956" y="517" type="curve" smooth="yes"/>
			<point x="-956" y="471"/>
			<point x="-944" y="435"/>
			<point x="-923" y="403" type="curve"/>
			<point x="-991" y="362"/>
			<point x="-1052" y="290"/>
			<point x="-1052" y="180" type="curve" smooth="yes"/>
			<point x="-1052" y="52"/>
			<point x="-959" y="-14"/>
		</contour>
		<contour>
			<point x="-88" y="189" type="curve" smooth="yes"/>
			<point x="-88" y="262"/>
			<point x="-43" y="317"/>
			<point x="8" y="348" type="curve"/>
			<point x="14" y="342"/>
			<point x="20" y="336"/>
			<point x="26" y="329" type="curve" smooth="yes"/>
			<point x="222" y="134" type="line"/>
			<point x="179" y="89"/>
			<point x="124" y="61"/>
			<point x="54" y="61" type="curve" smooth="yes"/>
			<point x="-30" y="61"/>
			<point x="-88" y="112"/>
		</contour>
		<contour>
			<point x="-529" y="191" type="curve" smooth="yes"/>
			<point x="-529" y="269"/>
			<point x="-485" y="318"/>
			<point x="-436" y="347" type="curve"/>
			<point x="-430" y="341"/>
			<point x="-424" y="335"/>
			<point x="-417" y="329" type="curve" smooth="yes"/>
			<point x="-210" y="139" type="line"/>
			<point x="-251" y="89"/>
			<point x="-312" y="61"/>
			<point x="-380" y="61" type="curve" smooth="yes"/>
			<point x="-469" y="61"/>
			<point x="-529" y="107"/>
		</contour>
		<contour>
			<point x="-968" y="191" type="curve" smooth="yes"/>
			<point x="-968" y="269"/>
			<point x="-926" y="318"/>
			<point x="-877" y="347" type="curve"/>
			<point x="-871" y="341"/>
			<point x="-865" y="335"/>
			<point x="-858" y="329" type="curve" smooth="yes"/>
			<point x="-651" y="139" type="line"/>
			<point x="-693" y="89"/>
			<point x="-753" y="61"/>
			<point x="-821" y="61" type="curve" smooth="yes"/>
			<point x="-909" y="61"/>
			<point x="-968" y="107"/>
		</contour>
	</outline>
</glyph>
<glyph name="asciitilde_asciitilde.cLig" format="2">
	<advance width="600"/>
	<outline>
		<contour>
			<point x="-102" y="210" type="curve"/>
			<point x="18" y="210"/>
			<point x="19" y="337"/>
			<point x="101" y="337" type="curve"/>
			<point x="180" y="337"/>
			<point x="195" y="210"/>
			<point x="317" y="210" type="curve"/>
			<point x="412" y="210"/>
			<point x="466" y="292"/>
			<point x="477" y="416" type="curve"/>
			<point x="399" y="416" type="line"/>
			<point x="391" y="343"/>
			<point x="365" y="296"/>
			<point x="315" y="296" type="curve"/>
			<point x="232" y="296"/>
			<point x="225" y="421"/>
			<point x="103" y="421" type="curve"/>
			<point x="-21" y="421"/>
			<point x="-20" y="296"/>
			<point x="-101" y="296" type="curve"/>
			<point x="-177" y="296"/>
			<point x="-189" y="421"/>
			<point x="-308" y="421" type="curve"/>
			<point x="-408" y="421"/>
			<point x="-466" y="341"/>
			<point x="-477" y="216" type="curve"/>
			<point x="-399" y="216" type="line"/>
			<point x="-392" y="290"/>
			<point x="-363" y="336"/>
			<point x="-308" y="336" type="curve"/>
			<point x="-227" y="336"/>
			<point x="-218" y="210"/>
		</contour>
	</outline>
</glyph>
<glyph name="asciitilde_asciitilde_asciitilde.rem" format="2">
	<advance width="600"/>
	<outline>
		<contour>
			<point x="-609" y="210" type="curve"/>
			<point x="-499" y="210"/>
			<point x="-486" y="336"/>
			<point x="-408" y="336" type="curve" smooth="yes"/>
			<point x="-332" y="336"/>
			<point x="-305" y="210"/>
			<point x="-193" y="210" type="curve" smooth="yes"/>
			<point x="-78" y="210"/>
			<point x="-67" y="336"/>
			<point x="14" y="336" type="curve"/>
			<point x="93" y="336"/>
			<point x="115" y="210"/>
			<point x="227" y="210" type="curve"/>
			<point x="326" y="210"/>
			<point x="383" y="290"/>
			<point x="397" y="416" type="curve"/>
			<point x="317" y="416" type="line"/>
			<point x="307" y="347"/>
			<point x="283" y="297"/>
			<point x="224" y="297" type="curve"/>
			<point x="146" y="297"/>
			<point x="134" y="421"/>
			<point x="14" y="421" type="curve"/>
			<point x="-103" y="421"/>
			<point x="-116" y="297"/>
			<point x="-192" y="297" type="curve" smooth="yes"/>
			<point x="-274" y="297"/>
			<point x="-288" y="421"/>
			<point x="-406" y="421" type="curve" smooth="yes"/>
			<point x="-522" y="421"/>
			<point x="-532" y="297"/>
			<point x="-610" y="297" type="curve"/>
			<point x="-692" y="297"/>
			<point x="-714" y="421"/>
			<point x="-825" y="421" type="curve" smooth="yes"/>
			<point x="-923" y="421"/>
			<point x="-983" y="342"/>
			<point x="-997" y="216" type="curve"/>
			<point x="-916" y="216" type="line"/>
			<point x="-907" y="281"/>
			<point x="-885" y="335"/>
			<point x="-825" y="335" type="curve" smooth="yes"/>
			<point x="-746" y="335"/>
			<point x="-731" y="210"/>
		</contour>
	</outline>
</glyph>
<glyph name="asciitilde_asciitilde_greater.cLig" format="2">
	<advance width="600"/>
	<outline>
		<contour>
			<point x="100" y="627" type="line"/>
			<point x="350" y="355" type="line"/>
			<point x="-13" y="355" type="line"/>
			<point x="-42" y="401"/>
			<point x="-82" y="424"/>
			<point x="-128" y="424" type="curve" smooth="yes"/>
			<point x="-245" y="424"/>
			<point x="-248" y="288"/>
			<point x="-331" y="288" type="curve" smooth="yes"/>
			<point x="-410" y="288"/>
			<point x="-420" y="422"/>
			<point x="-534" y="422" type="curve" smooth="yes"/>
			<point x="-649" y="422"/>
			<point x="-658" y="287"/>
			<point x="-734" y="287" type="curve"/>
			<point x="-813" y="287"/>
			<point x="-822" y="423"/>
			<point x="-944" y="423" type="curve" smooth="yes"/>
			<point x="-1033" y="423"/>
			<point x="-1096" y="351"/>
			<point x="-1113" y="223" type="curve"/>
			<point x="-1033" y="223" type="line"/>
			<point x="-1023" y="296"/>
			<point x="-989" y="336"/>
			<point x="-941" y="336" type="curve" smooth="yes"/>
			<point x="-859" y="336"/>
			<point x="-850" y="202"/>
			<point x="-734" y="202" type="curve"/>
			<point x="-619" y="202"/>
			<point x="-618" y="336"/>
			<point x="-536" y="336" type="curve" smooth="yes"/>
			<point x="-456" y="336"/>
			<point x="-449" y="202"/>
			<point x="-334" y="202" type="curve" smooth="yes"/>
			<point x="-215" y="202"/>
			<point x="-217" y="339"/>
			<point x="-134" y="339" type="curve" smooth="yes"/>
			<point x="-96" y="339"/>
			<point x="-71" y="314"/>
			<point x="-53" y="270" type="curve"/>
			<point x="351" y="270" type="line"/>
			<point x="104" y="-2" type="line"/>
			<point x="215" y="-2" type="line"/>
			<point x="494" y="312" type="line"/>
			<point x="212" y="627" type="line"/>
		</contour>
	</outline>
</glyph>
<glyph name="asciitilde_at.cLig" format="2">
	<advance width="600"/>
	<outline>
		<contour>
			<point x="375" y="-16" type="curve"/>
			<point x="476" y="-16"/>
			<point x="533" y="80"/>
			<point x="533" y="289" type="curve" smooth="yes"/>
			<point x="533" y="303" type="line" smooth="yes"/>
			<point x="533" y="554"/>
			<point x="443" y="698"/>
			<point x="200" y="698" type="curve" smooth="yes"/>
			<point x="-35" y="698"/>
			<point x="-121" y="581"/>
			<point x="-163" y="381" type="curve" smooth="yes"/>
			<point x="-177" y="317"/>
			<point x="-189" y="286"/>
			<point x="-230" y="286" type="curve" smooth="yes"/>
			<point x="-289" y="286"/>
			<point x="-309" y="411"/>
			<point x="-416" y="412" type="curve" smooth="yes"/>
			<point x="-504" y="411"/>
			<point x="-542" y="341"/>
			<point x="-542" y="211" type="curve"/>
			<point x="-465" y="211" type="line"/>
			<point x="-465" y="287"/>
			<point x="-452" y="328"/>
			<point x="-410" y="328" type="curve" smooth="yes"/>
			<point x="-351" y="328"/>
			<point x="-326" y="200"/>
			<point x="-226" y="200" type="curve" smooth="yes"/>
			<point x="-146" y="200"/>
			<point x="-104" y="248"/>
			<point x="-83" y="360" type="curve" smooth="yes"/>
			<point x="-50" y="534"/>
			<point x="25" y="622"/>
			<point x="197" y="622" type="curve" smooth="yes"/>
			<point x="389" y="622"/>
			<point x="450" y="501"/>
			<point x="450" y="308" type="curve" smooth="yes"/>
			<point x="450" y="287" type="line" smooth="yes"/>
			<point x="450" y="115"/>
			<point x="423" y="55"/>
			<point x="381" y="55" type="curve" smooth="yes"/>
			<point x="348" y="55"/>
			<point x="339" y="81"/>
			<point x="339" y="135" type="curve"/>
			<point x="339" y="481" type="line"/>
			<point x="261" y="481" type="line"/>
			<point x="261" y="398" type="line"/>
			<point x="242" y="455"/>
			<point x="203" y="492"/>
			<point x="141" y="492" type="curve" smooth="yes"/>
			<point x="52" y="491"/>
			<point x="-7" y="413"/>
			<point x="-7" y="274" type="curve" smooth="yes"/>
			<point x="-7" y="142"/>
			<point x="47" y="63"/>
			<point x="140" y="63" type="curve" smooth="yes"/>
			<point x="208" y="63"/>
			<point x="246" y="104"/>
			<point x="262" y="165" type="curve"/>
			<point x="262" y="123" type="line" smooth="yes"/>
			<point x="262" y="24"/>
			<point x="302" y="-15"/>
		</contour>
		<contour>
			<point x="163" y="132" type="curve" smooth="yes"/>
			<point x="106" y="132"/>
			<point x="78" y="182"/>
			<point x="78" y="277" type="curve" smooth="yes"/>
			<point x="78" y="372"/>
			<point x="107" y="420"/>
			<point x="165" y="420" type="curve" smooth="yes"/>
			<point x="220" y="420"/>
			<point x="259" y="369"/>
			<point x="259" y="276" type="curve" smooth="yes"/>
			<point x="259" y="180"/>
			<point x="224" y="132"/>
		</contour>
	</outline>
</glyph>
<glyph name="asciitilde_equal.cLig.x" format="2">
	<advance width="600"/>
	<outline>
		<contour>
			<point x="-320" y="326" type="line"/>
			<point x="-276" y="391"/>
			<point x="-220" y="417"/>
			<point x="-159" y="417" type="curve" smooth="yes"/>
			<point x="-55" y="417"/>
			<point x="24" y="314"/>
			<point x="155" y="314" type="curve" smooth="yes"/>
			<point x="226" y="314"/>
			<point x="287" y="343"/>
			<point x="320" y="392" type="curve"/>
			<point x="320" y="487" type="line"/>
			<point x="267" y="414"/>
			<point x="214" y="394"/>
			<point x="148" y="396" type="curve" smooth="yes"/>
			<point x="49" y="399"/>
			<point x="-32" y="499"/>
			<point x="-160" y="499" type="curve" smooth="yes"/>
			<point x="-226" y="499"/>
			<point x="-288" y="471"/>
			<point x="-320" y="422" type="curve"/>
		</contour>
		<contour>
			<point x="-320" y="151" type="line"/>
			<point x="320" y="151" type="line"/>
			<point x="320" y="232" type="line"/>
			<point x="-320" y="232" type="line"/>
		</contour>
	</outline>
</glyph>
<glyph name="asciitilde_hyphen.cLig" format="2">
	<advance width="600"/>
	<outline>
		<contour>
			<point x="399" y="354" type="line"/>
			<point x="9" y="354" type="line"/>
			<point x="3" y="308"/>
			<point x="-19" y="282"/>
			<point x="-51" y="282" type="curve" smooth="yes"/>
			<point x="-122" y="282"/>
			<point x="-142" y="413"/>
			<point x="-255" y="413" type="curve" smooth="yes"/>
			<point x="-331" y="413"/>
			<point x="-383" y="364"/>
			<point x="-383" y="217" type="curve"/>
			<point x="-305" y="217" type="line"/>
			<point x="-305" y="295"/>
			<point x="-289" y="328"/>
			<point x="-248" y="328" type="curve"/>
			<point x="-177" y="328"/>
			<point x="-151" y="197"/>
			<point x="-47" y="197" type="curve" smooth="yes"/>
			<point x="5" y="197"/>
			<point x="42" y="222"/>
			<point x="62" y="269" type="curve"/>
			<point x="399" y="269" type="line"/>
		</contour>
	</outline>
</glyph>
<glyph name="aster_comp" format="2">
	<advance width="600"/>
	<outline>
		<contour>
			<point x="245" y="530" type="curve" smooth="yes"/>
			<point x="220" y="313" type="line"/>
			<point x="314" y="313" type="line"/>
			<point x="288" y="530" type="line" smooth="yes"/>
			<point x="287" y="540"/>
			<point x="283" y="547"/>
			<point x="278" y="550" type="curve"/>
			<point x="283" y="554"/>
			<point x="287" y="560"/>
			<point x="288" y="570" type="curve" smooth="yes"/>
			<point x="313" y="786" type="line"/>
			<point x="219" y="786" type="line"/>
			<point x="245" y="570" type="line" smooth="yes"/>
			<point x="246" y="560"/>
			<point x="250" y="553"/>
			<point x="256" y="550" type="curve"/>
			<point x="250" y="546"/>
			<point x="246" y="540"/>
		</contour>
	</outline>
	<guideline x="233.690647482" y="614.2446043166" angle="90"/>
	<guideline x="272.0935251799" y="624.9064748201" angle="0"/>
</glyph>
<glyph name="asterisk_asterisk.cLig" format="2">
	<advance width="600"/>
	<outline>
		<contour>
			<point x="-100" y="160" type="line"/>
			<point x="-53" y="242" type="line"/>
			<point x="-235" y="320" type="line"/>
			<point x="-52" y="399" type="line"/>
			<point x="-100" y="482" type="line"/>
			<point x="-259" y="363" type="line"/>
			<point x="-236" y="560" type="line"/>
			<point x="-332" y="560" type="line"/>
			<point x="-308" y="362" type="line"/>
			<point x="-469" y="482" type="line"/>
			<point x="-516" y="399" type="line"/>
			<point x="-333" y="320" type="line"/>
			<point x="-515" y="242" type="line"/>
			<point x="-468" y="159" type="line"/>
			<point x="-308" y="278" type="line"/>
			<point x="-331" y="80" type="line"/>
			<point x="-235" y="80" type="line"/>
			<point x="-259" y="278" type="line"/>
		</contour>
		<contour>
			<point x="468" y="159" type="line"/>
			<point x="515" y="241" type="line"/>
			<point x="333" y="319" type="line"/>
			<point x="516" y="398" type="line"/>
			<point x="468" y="481" type="line"/>
			<point x="309" y="362" type="line"/>
			<point x="332" y="559" type="line"/>
			<point x="236" y="559" type="line"/>
			<point x="260" y="361" type="line"/>
			<point x="99" y="481" type="line"/>
			<point x="52" y="398" type="line"/>
			<point x="235" y="319" type="line"/>
			<point x="53" y="241" type="line"/>
			<point x="100" y="158" type="line"/>
			<point x="260" y="277" type="line"/>
			<point x="237" y="79" type="line"/>
			<point x="333" y="79" type="line"/>
			<point x="309" y="277" type="line"/>
		</contour>
	</outline>
</glyph>
<glyph name="asterisk_greater.cLig" format="2">
	<advance width="600"/>
	<outline>
		<contour>
			<point x="56" y="-7" type="line"/>
			<point x="500" y="263" type="line"/>
			<point x="500" y="365" type="line"/>
			<point x="56" y="635" type="line"/>
			<point x="56" y="538" type="line"/>
			<point x="432" y="313" type="line"/>
			<point x="56" y="89" type="line"/>
		</contour>
		<contour>
			<point x="-65" y="155" type="line"/>
			<point x="-17" y="238" type="line"/>
			<point x="-200" y="317" type="line"/>
			<point x="-18" y="396" type="line"/>
			<point x="-66" y="479" type="line"/>
			<point x="-225" y="360" type="line"/>
			<point x="-203" y="558" type="line"/>
			<point x="-299" y="558" type="line"/>
			<point x="-275" y="360" type="line"/>
			<point x="-434" y="478" type="line"/>
			<point x="-482" y="395" type="line"/>
			<point x="-300" y="317" type="line"/>
			<point x="-482" y="238" type="line"/>
			<point x="-435" y="156" type="line"/>
			<point x="-275" y="274" type="line"/>
			<point x="-298" y="77" type="line"/>
			<point x="-202" y="77" type="line"/>
			<point x="-225" y="274" type="line"/>
		</contour>
	</outline>
</glyph>
<glyph name="backslash_backslash_backslash.rem" format="2">
	<advance width="600"/>
	<outline>
		<contour>
			<point x="-661" y="-163" type="line"/>
			<point x="-566" y="-163" type="line"/>
			<point x="-940" y="792" type="line"/>
			<point x="-1034" y="792" type="line"/>
		</contour>
		<contour>
			<point x="-161" y="-163" type="line"/>
			<point x="-66" y="-163" type="line"/>
			<point x="-440" y="792" type="line"/>
			<point x="-534" y="792" type="line"/>
		</contour>
		<contour>
			<point x="339" y="-163" type="line"/>
			<point x="434" y="-163" type="line"/>
			<point x="60" y="792" type="line"/>
			<point x="-34" y="792" type="line"/>
		</contour>
	</outline>
</glyph>
<glyph name="bar_bar_greater.cLig" format="2">
	<advance width="600"/>
	<outline>
		<contour>
			<point x="-861" y="708" type="line"/>
			<point x="-861" y="-79" type="line"/>
			<point x="-773" y="-79" type="line"/>
			<point x="-773" y="708" type="line"/>
		</contour>
		<contour>
			<point x="-301" y="-79" type="line"/>
			<point x="-213" y="-79" type="line"/>
			<point x="330" y="263" type="line"/>
			<point x="330" y="366" type="line"/>
			<point x="-213" y="708" type="line"/>
			<point x="-301" y="708" type="line"/>
		</contour>
		<contour>
			<point x="-213" y="607" type="line"/>
			<point x="255" y="315" type="line"/>
			<point x="-213" y="21" type="line"/>
		</contour>
	</outline>
</glyph>
<glyph name="bar_braceright.cLig" format="2">
	<advance width="600"/>
	<outline>
		<contour>
			<point x="200" y="-163" type="curve" smooth="yes"/>
			<point x="-45" y="-163" type="line"/>
			<point x="-45" y="-93" type="line"/>
			<point x="174" y="-93" type="line" smooth="yes"/>
			<point x="237" y="-93"/>
			<point x="274" y="-67"/>
			<point x="274" y="-13" type="curve" smooth="yes"/>
			<point x="274" y="59"/>
			<point x="178" y="120"/>
			<point x="178" y="209" type="curve" smooth="yes"/>
			<point x="178" y="262"/>
			<point x="230" y="303"/>
			<point x="298" y="314" type="curve"/>
			<point x="229" y="325"/>
			<point x="178" y="366"/>
			<point x="178" y="421" type="curve" smooth="yes"/>
			<point x="178" y="509"/>
			<point x="274" y="570"/>
			<point x="274" y="643" type="curve" smooth="yes"/>
			<point x="274" y="698"/>
			<point x="235" y="722"/>
			<point x="176" y="722" type="curve" smooth="yes"/>
			<point x="-45" y="722" type="line"/>
			<point x="-45" y="792" type="line"/>
			<point x="200" y="792" type="line" smooth="yes"/>
			<point x="310" y="792"/>
			<point x="369" y="729"/>
			<point x="369" y="653" type="curve" smooth="yes"/>
			<point x="369" y="558"/>
			<point x="272" y="494"/>
			<point x="272" y="424" type="curve" smooth="yes"/>
			<point x="272" y="394"/>
			<point x="293" y="355"/>
			<point x="366" y="355" type="curve" smooth="yes"/>
			<point x="428" y="355" type="line"/>
			<point x="428" y="272" type="line"/>
			<point x="366" y="272" type="line" smooth="yes"/>
			<point x="294" y="272"/>
			<point x="272" y="233"/>
			<point x="272" y="203" type="curve" smooth="yes"/>
			<point x="272" y="134"/>
			<point x="369" y="71"/>
			<point x="369" y="-23" type="curve" smooth="yes"/>
			<point x="369" y="-101"/>
			<point x="315" y="-163"/>
		</contour>
		<contour>
			<point x="-262" y="792" type="line"/>
			<point x="-262" y="-163" type="line"/>
			<point x="-350" y="-163" type="line"/>
			<point x="-350" y="792" type="line"/>
		</contour>
	</outline>
</glyph>
<glyph name="bar_bracketright.cLig" format="2">
	<advance width="600"/>
	<outline>
		<contour>
			<point x="-49" y="722" type="line"/>
			<point x="299" y="722" type="line"/>
			<point x="299" y="-93" type="line"/>
			<point x="-49" y="-93" type="line"/>
			<point x="-49" y="-163" type="line"/>
			<point x="387" y="-163" type="line"/>
			<point x="387" y="792" type="line"/>
			<point x="-49" y="792" type="line"/>
		</contour>
		<contour>
			<point x="-260" y="-163" type="line"/>
			<point x="-260" y="792" type="line"/>
			<point x="-348" y="792" type="line"/>
			<point x="-348" y="-163" type="line"/>
		</contour>
	</outline>
</glyph>
<glyph name="bar_equal.fina" format="2">
	<advance width="600"/>
	<outline>
		<contour>
			<point x="0" y="167" type="line"/>
			<point x="366" y="167" type="line"/>
			<point x="366" y="-55" type="line"/>
			<point x="454" y="-55" type="line"/>
			<point x="454" y="684" type="line"/>
			<point x="366" y="684" type="line"/>
			<point x="366" y="462" type="line"/>
			<point x="0" y="462" type="line"/>
			<point x="0" y="380" type="line"/>
			<point x="366" y="380" type="line"/>
			<point x="366" y="249" type="line"/>
			<point x="0" y="249" type="line"/>
		</contour>
	</outline>
</glyph>
<glyph name="bar_equal.med" format="2">
	<advance width="600"/>
	<outline>
		<contour>
			<point x="0" y="167" type="line"/>
			<point x="256" y="167" type="line"/>
			<point x="256" y="-55" type="line"/>
			<point x="344" y="-55" type="line"/>
			<point x="344" y="167" type="line"/>
			<point x="600" y="167" type="line"/>
			<point x="600" y="249" type="line"/>
			<point x="344" y="249" type="line"/>
			<point x="344" y="380" type="line"/>
			<point x="600" y="380" type="line"/>
			<point x="600" y="462" type="line"/>
			<point x="344" y="462" type="line"/>
			<point x="344" y="684" type="line"/>
			<point x="256" y="684" type="line"/>
			<point x="256" y="462" type="line"/>
			<point x="0" y="462" type="line"/>
			<point x="0" y="380" type="line"/>
			<point x="256" y="380" type="line"/>
			<point x="256" y="249" type="line"/>
			<point x="0" y="249" type="line"/>
		</contour>
	</outline>
</glyph>
<glyph name="bar_greater.cLig" format="2">
	<advance width="600"/>
	<outline>
		<contour>
			<point x="-270" y="-79" type="line"/>
			<point x="-182" y="-79" type="line"/>
			<point x="361" y="263" type="line"/>
			<point x="361" y="366" type="line"/>
			<point x="-182" y="708" type="line"/>
			<point x="-270" y="708" type="line"/>
		</contour>
		<contour>
			<point x="-182" y="607" type="line"/>
			<point x="287" y="315" type="line"/>
			<point x="-182" y="21" type="line"/>
		</contour>
	</outline>
</glyph>
<glyph name="bar_hyphen.med" format="2">
	<advance width="600"/>
	<outline>
		<contour>
			<point x="256" y="-55" type="line"/>
			<point x="344" y="-55" type="line"/>
			<point x="344" y="271" type="line"/>
			<point x="600" y="271" type="line"/>
			<point x="600" y="356" type="line"/>
			<point x="344" y="356" type="line"/>
			<point x="344" y="684" type="line"/>
			<point x="256" y="684" type="line"/>
			<point x="256" y="356" type="line"/>
			<point x="0" y="356" type="line"/>
			<point x="0" y="271" type="line"/>
			<point x="256" y="271" type="line"/>
		</contour>
	</outline>
</glyph>
<glyph name="braceleft_braceleft.cLig" format="2">
	<advance width="600"/>
	<outline>
		<contour>
			<point x="-19" y="-163" type="line"/>
			<point x="-19" y="-93" type="line"/>
			<point x="-164" y="-93" type="line" smooth="yes"/>
			<point x="-228" y="-93"/>
			<point x="-265" y="-65"/>
			<point x="-265" y="-12" type="curve"/>
			<point x="-265" y="66"/>
			<point x="-165" y="118"/>
			<point x="-165" y="211" type="curve" smooth="yes"/>
			<point x="-165" y="265"/>
			<point x="-216" y="304"/>
			<point x="-285" y="315" type="curve"/>
			<point x="-215" y="326"/>
			<point x="-165" y="365"/>
			<point x="-165" y="419" type="curve" smooth="yes"/>
			<point x="-165" y="511"/>
			<point x="-265" y="567"/>
			<point x="-265" y="640" type="curve" smooth="yes"/>
			<point x="-265" y="694"/>
			<point x="-225" y="721"/>
			<point x="-161" y="721" type="curve" smooth="yes"/>
			<point x="170" y="721" type="line"/>
			<point x="117" y="704"/>
			<point x="99" y="664"/>
			<point x="99" y="627" type="curve" smooth="yes"/>
			<point x="99" y="541"/>
			<point x="196" y="487"/>
			<point x="196" y="421" type="curve" smooth="yes"/>
			<point x="196" y="391"/>
			<point x="175" y="355"/>
			<point x="102" y="355" type="curve" smooth="yes"/>
			<point x="33" y="355" type="line"/>
			<point x="33" y="273" type="line"/>
			<point x="102" y="273" type="line" smooth="yes"/>
			<point x="179" y="273"/>
			<point x="200" y="234"/>
			<point x="200" y="204" type="curve" smooth="yes"/>
			<point x="200" y="131"/>
			<point x="99" y="71"/>
			<point x="99" y="-21" type="curve"/>
			<point x="99" y="-101"/>
			<point x="150" y="-163"/>
			<point x="268" y="-163" type="curve" smooth="yes"/>
			<point x="447" y="-163" type="line"/>
			<point x="447" y="-93" type="line"/>
			<point x="294" y="-93" type="line" smooth="yes"/>
			<point x="231" y="-93"/>
			<point x="194" y="-67"/>
			<point x="194" y="-12" type="curve"/>
			<point x="194" y="61"/>
			<point x="292" y="117"/>
			<point x="292" y="208" type="curve" smooth="yes"/>
			<point x="292" y="264"/>
			<point x="241" y="303"/>
			<point x="174" y="315" type="curve"/>
			<point x="240" y="328"/>
			<point x="293" y="364"/>
			<point x="293" y="422" type="curve" smooth="yes"/>
			<point x="293" y="510"/>
			<point x="193" y="567"/>
			<point x="193" y="640" type="curve" smooth="yes"/>
			<point x="193" y="694"/>
			<point x="234" y="721"/>
			<point x="298" y="721" type="curve" smooth="yes"/>
			<point x="456" y="721" type="line"/>
			<point x="456" y="791" type="line"/>
			<point x="-190" y="791" type="line" smooth="yes"/>
			<point x="-300" y="791"/>
			<point x="-359" y="726"/>
			<point x="-359" y="650" type="curve" smooth="yes"/>
			<point x="-359" y="555"/>
			<point x="-259" y="494"/>
			<point x="-259" y="424" type="curve" smooth="yes"/>
			<point x="-259" y="394"/>
			<point x="-281" y="355"/>
			<point x="-354" y="355" type="curve" smooth="yes"/>
			<point x="-425" y="355" type="line"/>
			<point x="-425" y="273" type="line"/>
			<point x="-354" y="273" type="line" smooth="yes"/>
			<point x="-281" y="273"/>
			<point x="-259" y="234"/>
			<point x="-259" y="204" type="curve" smooth="yes"/>
			<point x="-259" y="133"/>
			<point x="-359" y="75"/>
			<point x="-359" y="-21" type="curve"/>
			<point x="-359" y="-101"/>
			<point x="-305" y="-163"/>
			<point x="-190" y="-163" type="curve" smooth="yes"/>
		</contour>
	</outline>
</glyph>
<glyph name="braceright_braceright.cLig" format="2">
	<advance width="600"/>
	<outline>
		<contour>
			<point x="33" y="791" type="line"/>
			<point x="33" y="721" type="line"/>
			<point x="178" y="721" type="line" smooth="yes"/>
			<point x="242" y="721"/>
			<point x="279" y="693"/>
			<point x="279" y="640" type="curve"/>
			<point x="279" y="562"/>
			<point x="179" y="510"/>
			<point x="179" y="417" type="curve" smooth="yes"/>
			<point x="179" y="363"/>
			<point x="230" y="324"/>
			<point x="299" y="313" type="curve"/>
			<point x="229" y="302"/>
			<point x="179" y="263"/>
			<point x="179" y="209" type="curve" smooth="yes"/>
			<point x="179" y="117"/>
			<point x="279" y="61"/>
			<point x="279" y="-12" type="curve" smooth="yes"/>
			<point x="279" y="-66"/>
			<point x="239" y="-93"/>
			<point x="175" y="-93" type="curve" smooth="yes"/>
			<point x="-156" y="-93" type="line"/>
			<point x="-103" y="-76"/>
			<point x="-85" y="-36"/>
			<point x="-85" y="1" type="curve" smooth="yes"/>
			<point x="-85" y="87"/>
			<point x="-182" y="141"/>
			<point x="-182" y="207" type="curve" smooth="yes"/>
			<point x="-182" y="237"/>
			<point x="-161" y="273"/>
			<point x="-88" y="273" type="curve" smooth="yes"/>
			<point x="-19" y="273" type="line"/>
			<point x="-19" y="355" type="line"/>
			<point x="-88" y="355" type="line" smooth="yes"/>
			<point x="-165" y="355"/>
			<point x="-186" y="394"/>
			<point x="-186" y="424" type="curve" smooth="yes"/>
			<point x="-186" y="497"/>
			<point x="-85" y="557"/>
			<point x="-85" y="649" type="curve"/>
			<point x="-85" y="729"/>
			<point x="-136" y="791"/>
			<point x="-254" y="791" type="curve" smooth="yes"/>
			<point x="-433" y="791" type="line"/>
			<point x="-433" y="721" type="line"/>
			<point x="-280" y="721" type="line" smooth="yes"/>
			<point x="-217" y="721"/>
			<point x="-180" y="695"/>
			<point x="-180" y="640" type="curve"/>
			<point x="-180" y="567"/>
			<point x="-278" y="511"/>
			<point x="-278" y="420" type="curve" smooth="yes"/>
			<point x="-278" y="364"/>
			<point x="-227" y="325"/>
			<point x="-160" y="313" type="curve"/>
			<point x="-226" y="300"/>
			<point x="-279" y="264"/>
			<point x="-279" y="206" type="curve" smooth="yes"/>
			<point x="-279" y="118"/>
			<point x="-179" y="61"/>
			<point x="-179" y="-12" type="curve" smooth="yes"/>
			<point x="-179" y="-66"/>
			<point x="-220" y="-93"/>
			<point x="-284" y="-93" type="curve" smooth="yes"/>
			<point x="-442" y="-93" type="line"/>
			<point x="-442" y="-163" type="line"/>
			<point x="204" y="-163" type="line" smooth="yes"/>
			<point x="314" y="-163"/>
			<point x="373" y="-98"/>
			<point x="373" y="-22" type="curve" smooth="yes"/>
			<point x="373" y="73"/>
			<point x="273" y="134"/>
			<point x="273" y="204" type="curve" smooth="yes"/>
			<point x="273" y="234"/>
			<point x="295" y="273"/>
			<point x="368" y="273" type="curve" smooth="yes"/>
			<point x="439" y="273" type="line"/>
			<point x="439" y="355" type="line"/>
			<point x="368" y="355" type="line" smooth="yes"/>
			<point x="295" y="355"/>
			<point x="273" y="394"/>
			<point x="273" y="424" type="curve" smooth="yes"/>
			<point x="273" y="495"/>
			<point x="373" y="553"/>
			<point x="373" y="649" type="curve"/>
			<point x="373" y="729"/>
			<point x="319" y="791"/>
			<point x="204" y="791" type="curve" smooth="yes"/>
		</contour>
	</outline>
</glyph>
<glyph name="braceright_numbersign.cLig" format="2">
	<advance width="600"/>
	<outline>
		<contour>
			<point x="-494" y="-164" type="line"/>
			<point x="-347" y="-164" type="line" smooth="yes"/>
			<point x="-237" y="-164"/>
			<point x="-179" y="-100"/>
			<point x="-177" y="-24" type="curve" smooth="yes"/>
			<point x="-177" y="71"/>
			<point x="-286" y="135"/>
			<point x="-284" y="204" type="curve" smooth="yes"/>
			<point x="-284" y="235"/>
			<point x="-262" y="274"/>
			<point x="-189" y="274" type="curve" smooth="yes"/>
			<point x="-145" y="274" type="line"/>
			<point x="-145" y="356" type="line"/>
			<point x="-189" y="356" type="line" smooth="yes"/>
			<point x="-260" y="356"/>
			<point x="-283" y="396"/>
			<point x="-283" y="426" type="curve" smooth="yes"/>
			<point x="-285" y="494"/>
			<point x="-177" y="558"/>
			<point x="-177" y="652" type="curve" smooth="yes"/>
			<point x="-178" y="729"/>
			<point x="-231" y="791"/>
			<point x="-347" y="791" type="curve" smooth="yes"/>
			<point x="-494" y="791" type="line"/>
			<point x="-494" y="721" type="line"/>
			<point x="-373" y="721" type="line" smooth="yes"/>
			<point x="-311" y="721"/>
			<point x="-273" y="695"/>
			<point x="-273" y="643" type="curve" smooth="yes"/>
			<point x="-272" y="570"/>
			<point x="-378" y="513"/>
			<point x="-378" y="423" type="curve" smooth="yes"/>
			<point x="-378" y="368"/>
			<point x="-326" y="326"/>
			<point x="-258" y="314" type="curve"/>
			<point x="-326" y="303"/>
			<point x="-378" y="262"/>
			<point x="-378" y="208" type="curve" smooth="yes"/>
			<point x="-378" y="116"/>
			<point x="-272" y="58"/>
			<point x="-273" y="-15" type="curve" smooth="yes"/>
			<point x="-273" y="-69"/>
			<point x="-312" y="-94"/>
			<point x="-371" y="-94" type="curve" smooth="yes"/>
			<point x="-494" y="-94" type="line"/>
		</contour>
		<contour>
			<point x="-52" y="241" type="line"/>
			<point x="-52" y="167" type="line"/>
			<point x="78" y="167" type="line"/>
			<point x="62" y="0" type="line"/>
			<point x="140" y="0" type="line"/>
			<point x="155" y="167" type="line"/>
			<point x="292" y="167" type="line"/>
			<point x="277" y="0" type="line"/>
			<point x="352" y="0" type="line"/>
			<point x="368" y="167" type="line"/>
			<point x="482" y="167" type="line"/>
			<point x="482" y="241" type="line"/>
			<point x="376" y="241" type="line"/>
			<point x="396" y="454" type="line"/>
			<point x="506" y="454" type="line"/>
			<point x="506" y="529" type="line"/>
			<point x="403" y="529" type="line"/>
			<point x="418" y="684" type="line"/>
			<point x="341" y="684" type="line"/>
			<point x="326" y="529" type="line"/>
			<point x="189" y="529" type="line"/>
			<point x="204" y="684" type="line"/>
			<point x="127" y="684" type="line"/>
			<point x="112" y="529" type="line"/>
			<point x="-52" y="529" type="line"/>
			<point x="-52" y="454" type="line"/>
			<point x="105" y="454" type="line"/>
			<point x="85" y="241" type="line"/>
		</contour>
		<contour>
			<point x="162" y="241" type="line"/>
			<point x="182" y="454" type="line"/>
			<point x="319" y="454" type="line"/>
			<point x="299" y="241" type="line"/>
		</contour>
	</outline>
</glyph>
<glyph name="bracketleft_bracketleft.cLig" format="2">
	<advance width="600"/>
	<outline>
		<contour>
			<point x="-378" y="-163" type="line"/>
			<point x="10" y="-163" type="line"/>
			<point x="10" y="-93" type="line"/>
			<point x="-290" y="-93" type="line"/>
			<point x="-290" y="722" type="line"/>
			<point x="10" y="722" type="line"/>
			<point x="10" y="792" type="line"/>
			<point x="-378" y="792" type="line"/>
		</contour>
		<contour>
			<point x="95" y="-163" type="line"/>
			<point x="421" y="-163" type="line"/>
			<point x="421" y="-93" type="line"/>
			<point x="183" y="-93" type="line"/>
			<point x="183" y="722" type="line"/>
			<point x="421" y="722" type="line"/>
			<point x="421" y="792" type="line"/>
			<point x="95" y="792" type="line"/>
		</contour>
	</outline>
</glyph>
<glyph name="bracketleft_bracketleft_numbersign.cLig" format="2">
	<advance width="600"/>
	<outline>
		<contour>
			<point x="-136" y="241" type="line"/>
			<point x="-136" y="167" type="line"/>
			<point x="-6" y="167" type="line"/>
			<point x="-22" y="0" type="line"/>
			<point x="56" y="0" type="line"/>
			<point x="72" y="167" type="line"/>
			<point x="209" y="167" type="line"/>
			<point x="193" y="0" type="line"/>
			<point x="269" y="0" type="line"/>
			<point x="285" y="167" type="line"/>
			<point x="398" y="167" type="line"/>
			<point x="398" y="241" type="line"/>
			<point x="292" y="241" type="line"/>
			<point x="313" y="454" type="line"/>
			<point x="422" y="454" type="line"/>
			<point x="422" y="529" type="line"/>
			<point x="320" y="529" type="line"/>
			<point x="335" y="684" type="line"/>
			<point x="257" y="684" type="line"/>
			<point x="243" y="529" type="line"/>
			<point x="106" y="529" type="line"/>
			<point x="120" y="684" type="line"/>
			<point x="44" y="684" type="line"/>
			<point x="29" y="529" type="line"/>
			<point x="-136" y="529" type="line"/>
			<point x="-136" y="454" type="line"/>
			<point x="22" y="454" type="line"/>
			<point x="1" y="241" type="line"/>
		</contour>
		<contour>
			<point x="79" y="241" type="line"/>
			<point x="99" y="454" type="line"/>
			<point x="236" y="454" type="line"/>
			<point x="216" y="241" type="line"/>
		</contour>
		<contour>
			<point x="-987" y="-163" type="line"/>
			<point x="-599" y="-163" type="line"/>
			<point x="-599" y="-93" type="line"/>
			<point x="-899" y="-93" type="line"/>
			<point x="-899" y="722" type="line"/>
			<point x="-599" y="722" type="line"/>
			<point x="-599" y="792" type="line"/>
			<point x="-987" y="792" type="line"/>
		</contour>
		<contour>
			<point x="-514" y="-163" type="line"/>
			<point x="-188" y="-163" type="line"/>
			<point x="-188" y="-93" type="line"/>
			<point x="-426" y="-93" type="line"/>
			<point x="-426" y="722" type="line"/>
			<point x="-188" y="722" type="line"/>
			<point x="-188" y="792" type="line"/>
			<point x="-514" y="792" type="line"/>
		</contour>
	</outline>
</glyph>
<glyph name="bracketleft_numbersign.cLig" format="2">
	<advance width="600"/>
	<outline>
		<contour>
			<point x="-101" y="241" type="line"/>
			<point x="-101" y="167" type="line"/>
			<point x="29" y="167" type="line"/>
			<point x="13" y="0" type="line"/>
			<point x="91" y="0" type="line"/>
			<point x="107" y="167" type="line"/>
			<point x="244" y="167" type="line"/>
			<point x="228" y="0" type="line"/>
			<point x="304" y="0" type="line"/>
			<point x="320" y="167" type="line"/>
			<point x="433" y="167" type="line"/>
			<point x="433" y="241" type="line"/>
			<point x="327" y="241" type="line"/>
			<point x="348" y="454" type="line"/>
			<point x="457" y="454" type="line"/>
			<point x="457" y="529" type="line"/>
			<point x="355" y="529" type="line"/>
			<point x="370" y="684" type="line"/>
			<point x="292" y="684" type="line"/>
			<point x="278" y="529" type="line"/>
			<point x="141" y="529" type="line"/>
			<point x="155" y="684" type="line"/>
			<point x="79" y="684" type="line"/>
			<point x="64" y="529" type="line"/>
			<point x="-101" y="529" type="line"/>
			<point x="-101" y="454" type="line"/>
			<point x="57" y="454" type="line"/>
			<point x="36" y="241" type="line"/>
		</contour>
		<contour>
			<point x="114" y="241" type="line"/>
			<point x="134" y="454" type="line"/>
			<point x="271" y="454" type="line"/>
			<point x="251" y="241" type="line"/>
		</contour>
		<contour>
			<point x="-116" y="-93" type="line"/>
			<point x="-319" y="-93" type="line"/>
			<point x="-319" y="722" type="line"/>
			<point x="-116" y="722" type="line"/>
			<point x="-116" y="792" type="line"/>
			<point x="-407" y="792" type="line"/>
			<point x="-407" y="-163" type="line"/>
			<point x="-116" y="-163" type="line"/>
		</contour>
	</outline>
</glyph>
<glyph name="bracketright_bracketright.cLig" format="2">
	<advance width="600"/>
	<outline>
		<contour>
			<point x="421" y="792" type="line"/>
			<point x="33" y="792" type="line"/>
			<point x="33" y="722" type="line"/>
			<point x="333" y="722" type="line"/>
			<point x="333" y="-93" type="line"/>
			<point x="33" y="-93" type="line"/>
			<point x="33" y="-163" type="line"/>
			<point x="421" y="-163" type="line"/>
		</contour>
		<contour>
			<point x="-52" y="792" type="line"/>
			<point x="-378" y="792" type="line"/>
			<point x="-378" y="722" type="line"/>
			<point x="-140" y="722" type="line"/>
			<point x="-140" y="-93" type="line"/>
			<point x="-378" y="-93" type="line"/>
			<point x="-378" y="-163" type="line"/>
			<point x="-52" y="-163" type="line"/>
		</contour>
	</outline>
</glyph>
<glyph name="bracketright_numbersign.cLig" format="2">
	<advance width="600"/>
	<outline>
		<contour>
			<point x="-469" y="-163" type="line"/>
			<point x="-178" y="-163" type="line"/>
			<point x="-178" y="167" type="line"/>
			<point x="50" y="167" type="line"/>
			<point x="34" y="0" type="line"/>
			<point x="113" y="0" type="line"/>
			<point x="128" y="167" type="line"/>
			<point x="265" y="167" type="line"/>
			<point x="249" y="0" type="line"/>
			<point x="325" y="0" type="line"/>
			<point x="341" y="167" type="line"/>
			<point x="455" y="167" type="line"/>
			<point x="455" y="241" type="line"/>
			<point x="348" y="241" type="line"/>
			<point x="369" y="454" type="line"/>
			<point x="478" y="454" type="line"/>
			<point x="478" y="529" type="line"/>
			<point x="376" y="529" type="line"/>
			<point x="391" y="684" type="line"/>
			<point x="314" y="684" type="line"/>
			<point x="299" y="529" type="line"/>
			<point x="162" y="529" type="line"/>
			<point x="177" y="684" type="line"/>
			<point x="100" y="684" type="line"/>
			<point x="85" y="529" type="line"/>
			<point x="-178" y="529" type="line"/>
			<point x="-178" y="792" type="line"/>
			<point x="-469" y="792" type="line"/>
			<point x="-469" y="722" type="line"/>
			<point x="-266" y="722" type="line"/>
			<point x="-266" y="-93" type="line"/>
			<point x="-469" y="-93" type="line"/>
		</contour>
		<contour>
			<point x="-178" y="241" type="line"/>
			<point x="-178" y="454" type="line"/>
			<point x="78" y="454" type="line"/>
			<point x="58" y="241" type="line"/>
		</contour>
		<contour>
			<point x="135" y="241" type="line"/>
			<point x="155" y="454" type="line"/>
			<point x="292" y="454" type="line"/>
			<point x="272" y="241" type="line"/>
		</contour>
	</outline>
</glyph>
<glyph name="breve.cap" format="2">
	<advance width="600"/>
	<outline>
		<contour>
			<point x="300" y="740" type="curve" smooth="yes"/>
			<point x="394" y="740"/>
			<point x="448" y="782"/>
			<point x="448" y="884" type="curve"/>
			<point x="378" y="884" type="line"/>
			<point x="378" y="823"/>
			<point x="355" y="793"/>
			<point x="300" y="793" type="curve" smooth="yes"/>
			<point x="242" y="793"/>
			<point x="222" y="823"/>
			<point x="222" y="884" type="curve"/>
			<point x="152" y="884" type="line"/>
			<point x="152" y="782"/>
			<point x="201" y="740"/>
		</contour>
	</outline>
	<anchor name="_top" x="300" y="684"/>
</glyph>
<glyph name="caron.cap" format="2">
	<advance width="600"/>
	<outline>
		<contour>
			<point x="469" y="884" type="line"/>
			<point x="381" y="884" type="line"/>
			<point x="300" y="791" type="line"/>
			<point x="219" y="884" type="line"/>
			<point x="131" y="884" type="line"/>
			<point x="253" y="747" type="line"/>
			<point x="346" y="747" type="line"/>
		</contour>
	</outline>
	<anchor name="_top" x="300" y="684"/>
</glyph>
<glyph name="colon_equal.cLig" format="2">
	<advance width="600"/>
	<outline>
		<contour>
			<point x="-340" y="82" type="curve" smooth="yes"/>
			<point x="-289" y="82"/>
			<point x="-262" y="101"/>
			<point x="-262" y="153" type="curve" smooth="yes"/>
			<point x="-262" y="204"/>
			<point x="-289" y="223"/>
			<point x="-340" y="223" type="curve" smooth="yes"/>
			<point x="-391" y="223"/>
			<point x="-418" y="204"/>
			<point x="-418" y="153" type="curve" smooth="yes"/>
			<point x="-418" y="101"/>
			<point x="-391" y="82"/>
		</contour>
		<contour>
			<point x="-340" y="370" type="curve" smooth="yes"/>
			<point x="-289" y="370"/>
			<point x="-262" y="389"/>
			<point x="-262" y="441" type="curve" smooth="yes"/>
			<point x="-262" y="492"/>
			<point x="-289" y="511"/>
			<point x="-340" y="511" type="curve" smooth="yes"/>
			<point x="-391" y="511"/>
			<point x="-418" y="492"/>
			<point x="-418" y="441" type="curve" smooth="yes"/>
			<point x="-418" y="389"/>
			<point x="-391" y="370"/>
		</contour>
		<contour>
			<point x="-78.014388494" y="364" type="line"/>
			<point x="422.762589894" y="364" type="line"/>
			<point x="422.762589894" y="446" type="line"/>
			<point x="-78.014388494" y="446" type="line"/>
		</contour>
		<contour>
			<point x="-78.014388494" y="150" type="line"/>
			<point x="422.762589894" y="150" type="line"/>
			<point x="422.762589894" y="232" type="line"/>
			<point x="-78.014388494" y="232" type="line"/>
		</contour>
	</outline>
</glyph>
<glyph name="colon_greater.cLig.x" format="2">
	<advance width="600"/>
	<outline>
		<contour>
			<point x="-13" y="-6" type="line"/>
			<point x="431" y="263" type="line"/>
			<point x="431" y="365" type="line"/>
			<point x="-13" y="635" type="line"/>
			<point x="-13" y="538" type="line"/>
			<point x="360" y="313" type="line"/>
			<point x="-13" y="88" type="line"/>
		</contour>
		<contour>
			<point x="-301" y="438" type="curve" smooth="yes"/>
			<point x="-250" y="438"/>
			<point x="-223" y="457"/>
			<point x="-223" y="509" type="curve" smooth="yes"/>
			<point x="-223" y="560"/>
			<point x="-250" y="579"/>
			<point x="-301" y="579" type="curve" smooth="yes"/>
			<point x="-351" y="579"/>
			<point x="-379" y="560"/>
			<point x="-379" y="509" type="curve" smooth="yes"/>
			<point x="-379" y="457"/>
			<point x="-351" y="438"/>
		</contour>
		<contour>
			<point x="-301" y="45" type="curve" smooth="yes"/>
			<point x="-250" y="45"/>
			<point x="-223" y="63"/>
			<point x="-223" y="116" type="curve" smooth="yes"/>
			<point x="-223" y="167"/>
			<point x="-250" y="185"/>
			<point x="-301" y="185" type="curve" smooth="yes"/>
			<point x="-351" y="185"/>
			<point x="-379" y="167"/>
			<point x="-379" y="116" type="curve" smooth="yes"/>
			<point x="-379" y="63"/>
			<point x="-351" y="45"/>
		</contour>
	</outline>
</glyph>
<glyph name="dollar_greater.cLig" format="2">
	<advance width="600"/>
	<outline>
		<contour>
			<point x="-375" y="-93" type="line"/>
			<point x="-306" y="-93" type="line"/>
			<point x="-293" y="-10" type="line"/>
			<point x="-281" y="-11"/>
			<point x="-269" y="-12"/>
			<point x="-256" y="-12" type="curve" smooth="yes"/>
			<point x="-120" y="-12"/>
			<point x="-23" y="63"/>
			<point x="-23" y="202" type="curve" smooth="yes"/>
			<point x="-23" y="337"/>
			<point x="-125" y="363"/>
			<point x="-236" y="382" type="curve"/>
			<point x="-199" y="613" type="line"/>
			<point x="-110" y="598"/>
			<point x="-19" y="553"/>
			<point x="92" y="495" type="curve" smooth="yes"/>
			<point x="435" y="315" type="line"/>
			<point x="88" y="136" type="line"/>
			<point x="88" y="43" type="line"/>
			<point x="508" y="263" type="line"/>
			<point x="508" y="365" type="line"/>
			<point x="130" y="568" type="line" smooth="yes"/>
			<point x="33" y="621"/>
			<point x="-74" y="671"/>
			<point x="-181" y="689" type="curve"/>
			<point x="-168" y="774" type="line"/>
			<point x="-237" y="774" type="line"/>
			<point x="-249" y="696" type="line"/>
			<point x="-262" y="696" type="line" smooth="yes"/>
			<point x="-408" y="696"/>
			<point x="-516" y="623"/>
			<point x="-516" y="488" type="curve" smooth="yes"/>
			<point x="-516" y="352"/>
			<point x="-420" y="321"/>
			<point x="-308" y="302" type="curve"/>
			<point x="-343" y="77" type="line"/>
			<point x="-405" y="91"/>
			<point x="-460" y="120"/>
			<point x="-507" y="161" type="curve"/>
			<point x="-507" y="69" type="line"/>
			<point x="-467" y="38"/>
			<point x="-420" y="13"/>
			<point x="-360" y="-1" type="curve"/>
		</contour>
		<contour>
			<point x="-422" y="497" type="curve" smooth="yes"/>
			<point x="-422" y="578"/>
			<point x="-357" y="619"/>
			<point x="-264" y="619" type="curve" smooth="yes"/>
			<point x="-262" y="619"/>
			<point x="-259" y="619"/>
			<point x="-257" y="618" type="curve"/>
			<point x="-293" y="391" type="line"/>
			<point x="-369" y="404"/>
			<point x="-422" y="423"/>
		</contour>
		<contour>
			<point x="-118" y="191" type="curve" smooth="yes"/>
			<point x="-118" y="106"/>
			<point x="-173" y="67"/>
			<point x="-256" y="67" type="curve" smooth="yes"/>
			<point x="-266" y="67"/>
			<point x="-276" y="68"/>
			<point x="-285" y="68" type="curve"/>
			<point x="-250" y="293" type="line"/>
			<point x="-172" y="281"/>
			<point x="-118" y="265"/>
		</contour>
	</outline>
</glyph>
<glyph name="eight.numr" format="2">
	<advance width="600"/>
	<outline>
		<contour>
			<point x="299" y="366" type="curve" smooth="yes"/>
			<point x="380" y="366"/>
			<point x="435" y="397"/>
			<point x="435" y="464" type="curve" smooth="yes"/>
			<point x="435" y="511"/>
			<point x="404" y="539"/>
			<point x="358" y="549" type="curve"/>
			<point x="397" y="557"/>
			<point x="427" y="586"/>
			<point x="427" y="630" type="curve" smooth="yes"/>
			<point x="427" y="694"/>
			<point x="376" y="724"/>
			<point x="300" y="724" type="curve" smooth="yes"/>
			<point x="222" y="724"/>
			<point x="171" y="694"/>
			<point x="171" y="630" type="curve" smooth="yes"/>
			<point x="171" y="583"/>
			<point x="203" y="556"/>
			<point x="241" y="549" type="curve"/>
			<point x="200" y="539"/>
			<point x="165" y="513"/>
			<point x="165" y="463" type="curve" smooth="yes"/>
			<point x="165" y="396"/>
			<point x="216" y="366"/>
		</contour>
		<contour>
			<point x="299" y="570" type="curve" smooth="yes"/>
			<point x="259" y="570"/>
			<point x="231" y="587"/>
			<point x="231" y="625" type="curve" smooth="yes"/>
			<point x="231" y="668"/>
			<point x="260" y="679"/>
			<point x="299" y="679" type="curve" smooth="yes"/>
			<point x="339" y="679"/>
			<point x="368" y="667"/>
			<point x="368" y="625" type="curve" smooth="yes"/>
			<point x="368" y="587"/>
			<point x="340" y="570"/>
		</contour>
		<contour>
			<point x="299" y="412" type="curve" smooth="yes"/>
			<point x="253" y="412"/>
			<point x="227" y="427"/>
			<point x="227" y="470" type="curve" smooth="yes"/>
			<point x="227" y="512"/>
			<point x="257" y="526"/>
			<point x="299" y="526" type="curve" smooth="yes"/>
			<point x="342" y="526"/>
			<point x="373" y="511"/>
			<point x="373" y="470" type="curve" smooth="yes"/>
			<point x="373" y="430"/>
			<point x="346" y="412"/>
		</contour>
	</outline>
	<guideline x="404.3956834533" y="436.8345323741" angle="0" identifier="xDKsHLj3u3"/>
	<guideline x="340.1223021583" y="714.8489208633" angle="0" identifier="xhAt5iMPR2"/>
</glyph>
<glyph name="equal.med" format="2">
	<advance width="600"/>
	<outline>
		<contour>
			<point x="0" y="380" type="line"/>
			<point x="600" y="380" type="line"/>
			<point x="600" y="462" type="line"/>
			<point x="0" y="462" type="line"/>
		</contour>
		<contour>
			<point x="0" y="167" type="line"/>
			<point x="600" y="167" type="line"/>
			<point x="600" y="249" type="line"/>
			<point x="0" y="249" type="line"/>
		</contour>
	</outline>
</glyph>
<glyph name="equal_colon_equal.rem" format="2">
	<advance width="600"/>
	<outline>
		<contour>
			<point x="-300" y="82" type="curve" smooth="yes"/>
			<point x="-249" y="82"/>
			<point x="-222" y="101"/>
			<point x="-222" y="153" type="curve" smooth="yes"/>
			<point x="-222" y="204"/>
			<point x="-249" y="223"/>
			<point x="-300" y="223" type="curve" smooth="yes"/>
			<point x="-351" y="223"/>
			<point x="-378" y="204"/>
			<point x="-378" y="153" type="curve" smooth="yes"/>
			<point x="-378" y="101"/>
			<point x="-351" y="82"/>
		</contour>
		<contour>
			<point x="-300" y="370" type="curve" smooth="yes"/>
			<point x="-249" y="370"/>
			<point x="-222" y="389"/>
			<point x="-222" y="441" type="curve" smooth="yes"/>
			<point x="-222" y="492"/>
			<point x="-249" y="511"/>
			<point x="-300" y="511" type="curve" smooth="yes"/>
			<point x="-351" y="511"/>
			<point x="-378" y="492"/>
			<point x="-378" y="441" type="curve" smooth="yes"/>
			<point x="-378" y="389"/>
			<point x="-351" y="370"/>
		</contour>
		<contour>
			<point x="-1028.6762589886" y="364" type="line"/>
			<point x="-544.1582733514" y="364" type="line"/>
			<point x="-544.1582733514" y="446" type="line"/>
			<point x="-1028.6762589886" y="446" type="line"/>
		</contour>
		<contour>
			<point x="-1028.6762589886" y="150" type="line"/>
			<point x="-544.1582733514" y="150" type="line"/>
			<point x="-544.1582733514" y="232" type="line"/>
			<point x="-1028.6762589886" y="232" type="line"/>
		</contour>
		<contour>
			<point x="-55.6762589886" y="364" type="line"/>
			<point x="428.8417266486" y="364" type="line"/>
			<point x="428.8417266486" y="446" type="line"/>
			<point x="-55.6762589886" y="446" type="line"/>
		</contour>
		<contour>
			<point x="-55.6762589886" y="150" type="line"/>
			<point x="428.8417266486" y="150" type="line"/>
			<point x="428.8417266486" y="232" type="line"/>
			<point x="-55.6762589886" y="232" type="line"/>
		</contour>
	</outline>
</glyph>
<glyph name="equal_equal_equal.cLig" format="2">
	<advance width="600"/>
	<outline>
		<contour>
			<point x="-1050" y="478" type="line"/>
			<point x="450" y="478" type="line"/>
			<point x="450" y="556" type="line"/>
			<point x="-1050" y="556" type="line"/>
		</contour>
		<contour>
			<point x="-1050" y="275" type="line"/>
			<point x="450" y="275" type="line"/>
			<point x="450" y="352" type="line"/>
			<point x="-1050" y="352" type="line"/>
		</contour>
		<contour>
			<point x="-1050" y="71" type="line"/>
			<point x="450" y="71" type="line"/>
			<point x="450" y="149" type="line"/>
			<point x="-1050" y="149" type="line"/>
		</contour>
	</outline>
</glyph>
<glyph name="equal_exclam_equal.rem" format="2">
	<advance width="600"/>
	<outline>
		<contour>
			<point x="-334" y="202" type="line"/>
			<point x="-266" y="202" type="line"/>
			<point x="-248" y="542" type="line"/>
			<point x="-248" y="684" type="line"/>
			<point x="-352" y="684" type="line"/>
			<point x="-352" y="542" type="line"/>
		</contour>
		<contour>
			<point x="-300" y="-12" type="curve" smooth="yes"/>
			<point x="-253" y="-12"/>
			<point x="-229" y="6"/>
			<point x="-229" y="52" type="curve" smooth="yes"/>
			<point x="-229" y="97"/>
			<point x="-253" y="115"/>
			<point x="-300" y="115" type="curve" smooth="yes"/>
			<point x="-347" y="115"/>
			<point x="-371" y="97"/>
			<point x="-371" y="52" type="curve" smooth="yes"/>
			<point x="-371" y="6"/>
			<point x="-347" y="-12"/>
		</contour>
		<contour>
			<point x="-1028.6762589886" y="364" type="line"/>
			<point x="-544.1582733514" y="364" type="line"/>
			<point x="-544.1582733514" y="446" type="line"/>
			<point x="-1028.6762589886" y="446" type="line"/>
		</contour>
		<contour>
			<point x="-1028.6762589886" y="150" type="line"/>
			<point x="-544.1582733514" y="150" type="line"/>
			<point x="-544.1582733514" y="232" type="line"/>
			<point x="-1028.6762589886" y="232" type="line"/>
		</contour>
		<contour>
			<point x="-55.6762589886" y="364" type="line"/>
			<point x="428.8417266486" y="364" type="line"/>
			<point x="428.8417266486" y="446" type="line"/>
			<point x="-55.6762589886" y="446" type="line"/>
		</contour>
		<contour>
			<point x="-55.6762589886" y="150" type="line"/>
			<point x="428.8417266486" y="150" type="line"/>
			<point x="428.8417266486" y="232" type="line"/>
			<point x="-55.6762589886" y="232" type="line"/>
		</contour>
	</outline>
</glyph>
<glyph name="equal_greater_greater.rem" format="2">
	<advance width="600"/>
	<outline>
		<contour>
			<point x="75" y="0" type="line"/>
			<point x="185" y="0" type="line"/>
			<point x="463" y="314" type="line"/>
			<point x="183" y="629" type="line"/>
			<point x="72" y="629" type="line"/>
			<point x="353" y="315" type="line"/>
		</contour>
		<contour>
			<point x="-1028" y="167" type="line"/>
			<point x="-153" y="167" type="line"/>
			<point x="-300" y="0" type="line"/>
			<point x="-190" y="0" type="line"/>
			<point x="86" y="313" type="line"/>
			<point x="-193" y="629" type="line"/>
			<point x="-303" y="629" type="line"/>
			<point x="-155" y="462" type="line"/>
			<point x="-1028" y="462" type="line"/>
			<point x="-1028" y="380" type="line"/>
			<point x="-82" y="380" type="line"/>
			<point x="-23" y="314" type="line"/>
			<point x="-81" y="249" type="line"/>
			<point x="-1028" y="249" type="line"/>
		</contour>
	</outline>
</glyph>
<glyph name="exclam_asciitilde.cLig" format="2">
	<advance width="600"/>
	<outline>
		<contour>
			<point x="-320" y="151" type="line"/>
			<point x="-132" y="151" type="line"/>
			<point x="-274" y="-75" type="line"/>
			<point x="-186" y="-75" type="line"/>
			<point x="-44" y="151" type="line"/>
			<point x="320" y="151" type="line"/>
			<point x="320" y="232" type="line"/>
			<point x="7" y="232" type="line"/>
			<point x="68" y="329" type="line"/>
			<point x="95" y="320"/>
			<point x="124" y="314"/>
			<point x="155" y="314" type="curve" smooth="yes"/>
			<point x="226" y="314"/>
			<point x="287" y="343"/>
			<point x="320" y="392" type="curve"/>
			<point x="320" y="487" type="line"/>
			<point x="267" y="414"/>
			<point x="214" y="394"/>
			<point x="148" y="396" type="curve" smooth="yes"/>
			<point x="136" y="396"/>
			<point x="125" y="398"/>
			<point x="113" y="401" type="curve"/>
			<point x="270" y="649" type="line"/>
			<point x="182" y="649" type="line"/>
			<point x="43" y="429" type="line"/>
			<point x="-17" y="459"/>
			<point x="-79" y="499"/>
			<point x="-160" y="499" type="curve" smooth="yes"/>
			<point x="-226" y="499"/>
			<point x="-288" y="471"/>
			<point x="-320" y="422" type="curve"/>
			<point x="-320" y="326" type="line"/>
			<point x="-276" y="391"/>
			<point x="-220" y="417"/>
			<point x="-159" y="417" type="curve" smooth="yes"/>
			<point x="-103" y="417"/>
			<point x="-54" y="387"/>
			<point x="-1" y="360" type="curve"/>
			<point x="-81" y="232" type="line"/>
			<point x="-320" y="232" type="line"/>
		</contour>
	</outline>
</glyph>
<glyph name="exclam_equal_equal.cLig" format="2">
	<advance width="600"/>
	<outline>
		<contour>
			<point x="-1050" y="71" type="line"/>
			<point x="-486" y="71" type="line"/>
			<point x="-575" y="-76" type="line"/>
			<point x="-482" y="-76" type="line"/>
			<point x="-394" y="71" type="line"/>
			<point x="450" y="71" type="line"/>
			<point x="450" y="149" type="line"/>
			<point x="-348" y="149" type="line"/>
			<point x="-272" y="275" type="line"/>
			<point x="450" y="275" type="line"/>
			<point x="450" y="352" type="line"/>
			<point x="-226" y="352" type="line"/>
			<point x="-150" y="478" type="line"/>
			<point x="450" y="478" type="line"/>
			<point x="450" y="556" type="line"/>
			<point x="-104" y="556" type="line"/>
			<point x="-25" y="686" type="line"/>
			<point x="-118" y="686" type="line"/>
			<point x="-196" y="556" type="line"/>
			<point x="-1050" y="556" type="line"/>
			<point x="-1050" y="478" type="line"/>
			<point x="-242" y="478" type="line"/>
			<point x="-318" y="352" type="line"/>
			<point x="-1050" y="352" type="line"/>
			<point x="-1050" y="275" type="line"/>
			<point x="-364" y="275" type="line"/>
			<point x="-440" y="149" type="line"/>
			<point x="-1050" y="149" type="line"/>
		</contour>
	</outline>
</glyph>
<glyph name="exclam_exclam.cLig" format="2">
	<advance width="600"/>
	<outline>
		<contour>
			<point x="-261" y="202" type="line"/>
			<point x="-193" y="202" type="line"/>
			<point x="-175" y="542" type="line"/>
			<point x="-175" y="684" type="line"/>
			<point x="-279" y="684" type="line"/>
			<point x="-279" y="542" type="line"/>
		</contour>
		<contour>
			<point x="-227" y="-12" type="curve" smooth="yes"/>
			<point x="-180" y="-12"/>
			<point x="-156" y="6"/>
			<point x="-156" y="52" type="curve" smooth="yes"/>
			<point x="-156" y="97"/>
			<point x="-180" y="115"/>
			<point x="-227" y="115" type="curve" smooth="yes"/>
			<point x="-274" y="115"/>
			<point x="-298" y="97"/>
			<point x="-298" y="52" type="curve" smooth="yes"/>
			<point x="-298" y="6"/>
			<point x="-274" y="-12"/>
		</contour>
		<contour>
			<point x="193" y="202" type="line"/>
			<point x="261" y="202" type="line"/>
			<point x="279" y="542" type="line"/>
			<point x="279" y="684" type="line"/>
			<point x="175" y="684" type="line"/>
			<point x="175" y="542" type="line"/>
		</contour>
		<contour>
			<point x="227" y="-12" type="curve" smooth="yes"/>
			<point x="274" y="-12"/>
			<point x="298" y="6"/>
			<point x="298" y="52" type="curve" smooth="yes"/>
			<point x="298" y="97"/>
			<point x="274" y="115"/>
			<point x="227" y="115" type="curve" smooth="yes"/>
			<point x="180" y="115"/>
			<point x="156" y="97"/>
			<point x="156" y="52" type="curve" smooth="yes"/>
			<point x="156" y="6"/>
			<point x="180" y="-12"/>
		</contour>
	</outline>
</glyph>
<glyph name="exclam_exclam_exclam.rem" format="2">
	<advance width="600"/>
	<outline>
		<contour>
			<point x="-821" y="202" type="line"/>
			<point x="-753" y="202" type="line"/>
			<point x="-735" y="542" type="line"/>
			<point x="-735" y="684" type="line"/>
			<point x="-839" y="684" type="line"/>
			<point x="-839" y="542" type="line"/>
		</contour>
		<contour>
			<point x="-787" y="-12" type="curve" smooth="yes"/>
			<point x="-740" y="-12"/>
			<point x="-716" y="6"/>
			<point x="-716" y="52" type="curve" smooth="yes"/>
			<point x="-716" y="97"/>
			<point x="-740" y="115"/>
			<point x="-787" y="115" type="curve" smooth="yes"/>
			<point x="-834" y="115"/>
			<point x="-858" y="97"/>
			<point x="-858" y="52" type="curve" smooth="yes"/>
			<point x="-858" y="6"/>
			<point x="-834" y="-12"/>
		</contour>
		<contour>
			<point x="-334" y="202" type="line"/>
			<point x="-266" y="202" type="line"/>
			<point x="-248" y="542" type="line"/>
			<point x="-248" y="684" type="line"/>
			<point x="-352" y="684" type="line"/>
			<point x="-352" y="542" type="line"/>
		</contour>
		<contour>
			<point x="-300" y="-12" type="curve" smooth="yes"/>
			<point x="-253" y="-12"/>
			<point x="-229" y="6"/>
			<point x="-229" y="52" type="curve" smooth="yes"/>
			<point x="-229" y="97"/>
			<point x="-253" y="115"/>
			<point x="-300" y="115" type="curve" smooth="yes"/>
			<point x="-347" y="115"/>
			<point x="-371" y="97"/>
			<point x="-371" y="52" type="curve" smooth="yes"/>
			<point x="-371" y="6"/>
			<point x="-347" y="-12"/>
		</contour>
		<contour>
			<point x="153" y="202" type="line"/>
			<point x="221" y="202" type="line"/>
			<point x="239" y="542" type="line"/>
			<point x="239" y="684" type="line"/>
			<point x="135" y="684" type="line"/>
			<point x="135" y="542" type="line"/>
		</contour>
		<contour>
			<point x="187" y="-12" type="curve" smooth="yes"/>
			<point x="234" y="-12"/>
			<point x="258" y="6"/>
			<point x="258" y="52" type="curve" smooth="yes"/>
			<point x="258" y="97"/>
			<point x="234" y="115"/>
			<point x="187" y="115" type="curve" smooth="yes"/>
			<point x="140" y="115"/>
			<point x="116" y="97"/>
			<point x="116" y="52" type="curve" smooth="yes"/>
			<point x="116" y="6"/>
			<point x="140" y="-12"/>
		</contour>
	</outline>
</glyph>
<glyph name="exclam_exclam_period.cLig" format="2">
	<advance width="600"/>
	<outline>
		<contour>
			<point x="-821" y="202" type="line"/>
			<point x="-753" y="202" type="line"/>
			<point x="-735" y="542" type="line"/>
			<point x="-735" y="684" type="line"/>
			<point x="-839" y="684" type="line"/>
			<point x="-839" y="542" type="line"/>
		</contour>
		<contour>
			<point x="-787" y="-12" type="curve" smooth="yes"/>
			<point x="-740" y="-12"/>
			<point x="-716" y="6"/>
			<point x="-716" y="52" type="curve" smooth="yes"/>
			<point x="-716" y="97"/>
			<point x="-740" y="115"/>
			<point x="-787" y="115" type="curve" smooth="yes"/>
			<point x="-834" y="115"/>
			<point x="-858" y="97"/>
			<point x="-858" y="52" type="curve" smooth="yes"/>
			<point x="-858" y="6"/>
			<point x="-834" y="-12"/>
		</contour>
		<contour>
			<point x="-333" y="202" type="line"/>
			<point x="-265" y="202" type="line"/>
			<point x="-247" y="542" type="line"/>
			<point x="-247" y="684" type="line"/>
			<point x="-351" y="684" type="line"/>
			<point x="-351" y="542" type="line"/>
		</contour>
		<contour>
			<point x="-299" y="-12" type="curve" smooth="yes"/>
			<point x="-252" y="-12"/>
			<point x="-228" y="6"/>
			<point x="-228" y="52" type="curve" smooth="yes"/>
			<point x="-228" y="97"/>
			<point x="-252" y="115"/>
			<point x="-299" y="115" type="curve" smooth="yes"/>
			<point x="-346" y="115"/>
			<point x="-370" y="97"/>
			<point x="-370" y="52" type="curve" smooth="yes"/>
			<point x="-370" y="6"/>
			<point x="-346" y="-12"/>
		</contour>
		<contour>
			<point x="190" y="-12" type="curve" smooth="yes"/>
			<point x="241" y="-12"/>
			<point x="268" y="7"/>
			<point x="268" y="59" type="curve" smooth="yes"/>
			<point x="268" y="110"/>
			<point x="241" y="129"/>
			<point x="190" y="129" type="curve" smooth="yes"/>
			<point x="139" y="129"/>
			<point x="112" y="110"/>
			<point x="112" y="59" type="curve" smooth="yes"/>
			<point x="112" y="7"/>
			<point x="139" y="-12"/>
		</contour>
	</outline>
</glyph>
<glyph name="five.den" format="2">
	<advance width="600"/>
	<outline>
		<contour>
			<point x="296" y="-8" type="curve" smooth="yes"/>
			<point x="387" y="-8"/>
			<point x="445" y="48"/>
			<point x="445" y="133" type="curve" smooth="yes"/>
			<point x="445" y="211"/>
			<point x="399" y="251"/>
			<point x="311" y="251" type="curve" smooth="yes"/>
			<point x="284" y="251"/>
			<point x="259" y="248"/>
			<point x="235" y="242" type="curve"/>
			<point x="235" y="355" type="line"/>
			<point x="436" y="355" type="line"/>
			<point x="436" y="410" type="line"/>
			<point x="173" y="410" type="line"/>
			<point x="173" y="179" type="line"/>
			<point x="212" y="193"/>
			<point x="246" y="200"/>
			<point x="283" y="200" type="curve" smooth="yes"/>
			<point x="350" y="200"/>
			<point x="376" y="174"/>
			<point x="376" y="129" type="curve" smooth="yes"/>
			<point x="376" y="78"/>
			<point x="345" y="48"/>
			<point x="291" y="48" type="curve" smooth="yes"/>
			<point x="249" y="48"/>
			<point x="202" y="62"/>
			<point x="158" y="97" type="curve"/>
			<point x="158" y="36" type="line"/>
			<point x="193" y="9"/>
			<point x="239" y="-8"/>
		</contour>
	</outline>
</glyph>
<glyph name="five.numr" format="2">
	<advance width="600"/>
	<outline>
		<contour>
			<point x="296" y="366" type="curve" smooth="yes"/>
			<point x="372" y="366"/>
			<point x="423" y="412"/>
			<point x="423" y="484" type="curve" smooth="yes"/>
			<point x="423" y="551"/>
			<point x="383" y="584"/>
			<point x="307" y="584" type="curve" smooth="yes"/>
			<point x="284" y="584"/>
			<point x="264" y="581"/>
			<point x="245" y="577" type="curve"/>
			<point x="245" y="667" type="line"/>
			<point x="415" y="667" type="line"/>
			<point x="415" y="718" type="line"/>
			<point x="193" y="718" type="line"/>
			<point x="193" y="522" type="line"/>
			<point x="224" y="532"/>
			<point x="252" y="538"/>
			<point x="284" y="538" type="curve" smooth="yes"/>
			<point x="340" y="538"/>
			<point x="362" y="517"/>
			<point x="362" y="481" type="curve" smooth="yes"/>
			<point x="362" y="441"/>
			<point x="336" y="415"/>
			<point x="291" y="415" type="curve" smooth="yes"/>
			<point x="255" y="415"/>
			<point x="218" y="426"/>
			<point x="180" y="455" type="curve"/>
			<point x="180" y="401" type="line"/>
			<point x="209" y="379"/>
			<point x="247" y="366"/>
		</contour>
	</outline>
</glyph>
<glyph name="four.den" format="2">
	<advance width="600"/>
	<outline>
		<contour>
			<point x="343" y="0" type="line"/>
			<point x="410" y="0" type="line"/>
			<point x="410" y="81" type="line"/>
			<point x="457" y="81" type="line"/>
			<point x="457" y="137" type="line"/>
			<point x="410" y="137" type="line"/>
			<point x="410" y="411" type="line"/>
			<point x="313" y="411" type="line"/>
			<point x="135" y="137" type="line"/>
			<point x="135" y="81" type="line"/>
			<point x="343" y="81" type="line"/>
		</contour>
		<contour>
			<point x="202" y="137" type="line"/>
			<point x="343" y="361" type="line"/>
			<point x="343" y="137" type="line"/>
		</contour>
	</outline>
</glyph>
<glyph name="four.numr" format="2">
	<advance width="600"/>
	<outline>
		<contour>
			<point x="334" y="372" type="line"/>
			<point x="394" y="372" type="line"/>
			<point x="394" y="439" type="line"/>
			<point x="432" y="439" type="line"/>
			<point x="432" y="488" type="line"/>
			<point x="394" y="488" type="line"/>
			<point x="394" y="718" type="line"/>
			<point x="306" y="718" type="line"/>
			<point x="160" y="488" type="line"/>
			<point x="160" y="439" type="line"/>
			<point x="334" y="439" type="line"/>
		</contour>
		<contour>
			<point x="218" y="488" type="line"/>
			<point x="334" y="676" type="line"/>
			<point x="334" y="488" type="line"/>
		</contour>
	</outline>
</glyph>
<glyph name="greater_equal.fina" format="2">
	<advance width="600"/>
	<outline>
		<contour>
			<point x="142" y="0" type="line"/>
			<point x="252" y="0" type="line"/>
			<point x="527" y="313" type="line"/>
			<point x="249" y="629" type="line"/>
			<point x="139" y="629" type="line"/>
			<point x="287" y="462" type="line"/>
			<point x="0" y="462" type="line"/>
			<point x="0" y="380" type="line"/>
			<point x="360" y="380" type="line"/>
			<point x="418" y="314" type="line"/>
			<point x="360" y="249" type="line"/>
			<point x="0" y="249" type="line"/>
			<point x="0" y="167" type="line"/>
			<point x="289" y="167" type="line"/>
		</contour>
	</outline>
</glyph>
<glyph name="greater_equal.med" format="2">
	<advance width="600"/>
	<outline>
		<contour>
			<point x="130" y="0" type="line"/>
			<point x="240" y="0" type="line"/>
			<point x="388" y="167" type="line"/>
			<point x="600" y="167" type="line"/>
			<point x="600" y="249" type="line"/>
			<point x="460" y="249" type="line"/>
			<point x="518" y="314" type="line"/>
			<point x="459" y="380" type="line"/>
			<point x="600" y="380" type="line"/>
			<point x="600" y="462" type="line"/>
			<point x="386" y="462" type="line"/>
			<point x="237" y="629" type="line"/>
			<point x="127" y="629" type="line"/>
			<point x="276" y="462" type="line"/>
			<point x="0" y="462" type="line"/>
			<point x="0" y="380" type="line"/>
			<point x="349" y="380" type="line"/>
			<point x="407" y="315" type="line"/>
			<point x="349" y="249" type="line"/>
			<point x="0" y="249" type="line"/>
			<point x="0" y="167" type="line"/>
			<point x="277" y="167" type="line"/>
		</contour>
	</outline>
</glyph>
<glyph name="greater_equal.rem" format="2">
	<advance width="600"/>
	<outline>
		<contour>
			<point x="-275" y="380" type="line"/>
			<point x="450" y="380" type="line"/>
			<point x="450" y="462" type="line"/>
			<point x="-237" y="462" type="line"/>
			<point x="-380" y="629" type="line"/>
			<point x="-492" y="629" type="line"/>
		</contour>
		<contour>
			<point x="-489" y="0" type="line"/>
			<point x="-377" y="0" type="line"/>
			<point x="-235" y="167" type="line"/>
			<point x="450" y="167" type="line"/>
			<point x="450" y="249" type="line"/>
			<point x="-275" y="249" type="line"/>
		</contour>
	</outline>
</glyph>
<glyph name="greater_greater_equal.rem" format="2">
	<advance width="600"/>
	<outline>
		<contour>
			<point x="-1099" y="0" type="line"/>
			<point x="-987" y="0" type="line"/>
			<point x="-710" y="313" type="line"/>
			<point x="-990" y="629" type="line"/>
			<point x="-1102" y="629" type="line"/>
			<point x="-820" y="314" type="line"/>
		</contour>
		<contour>
			<point x="-502" y="380" type="line"/>
			<point x="428" y="380" type="line"/>
			<point x="428" y="462" type="line"/>
			<point x="-464" y="462" type="line"/>
			<point x="-607" y="629" type="line"/>
			<point x="-719" y="629" type="line"/>
		</contour>
		<contour>
			<point x="-716" y="0" type="line"/>
			<point x="-604" y="0" type="line"/>
			<point x="-462" y="167" type="line"/>
			<point x="428" y="167" type="line"/>
			<point x="428" y="249" type="line"/>
			<point x="-502" y="249" type="line"/>
		</contour>
	</outline>
</glyph>
<glyph name="greater_greater_greater.cLig" format="2">
	<advance width="600"/>
	<outline>
		<contour>
			<point x="-1106" y="46" type="line"/>
			<point x="-654" y="260" type="line"/>
			<point x="-654" y="362" type="line"/>
			<point x="-1106" y="576" type="line"/>
			<point x="-1106" y="482" type="line"/>
			<point x="-731" y="311" type="line"/>
			<point x="-1106" y="141" type="line"/>
		</contour>
		<contour>
			<point x="-522" y="46" type="line"/>
			<point x="-70" y="260" type="line"/>
			<point x="-70" y="362" type="line"/>
			<point x="-522" y="576" type="line"/>
			<point x="-522" y="482" type="line"/>
			<point x="-147" y="311" type="line"/>
			<point x="-522" y="141" type="line"/>
		</contour>
		<contour>
			<point x="61" y="46" type="line"/>
			<point x="513" y="260" type="line"/>
			<point x="513" y="362" type="line"/>
			<point x="61" y="576" type="line"/>
			<point x="61" y="482" type="line"/>
			<point x="436" y="311" type="line"/>
			<point x="61" y="141" type="line"/>
		</contour>
	</outline>
</glyph>
<glyph name="greater_greater_hyphen.init" format="2">
	<advance width="600"/>
	<outline>
		<contour>
			<point x="-511" y="0" type="line"/>
			<point x="-398" y="0" type="line"/>
			<point x="-121" y="314" type="line"/>
			<point x="-401" y="629" type="line"/>
			<point x="-514" y="629" type="line"/>
			<point x="-232" y="314" type="line"/>
		</contour>
		<contour>
			<point x="-131" y="0" type="line"/>
			<point x="-19" y="0" type="line"/>
			<point x="221" y="272" type="line"/>
			<point x="600" y="272" type="line"/>
			<point x="600" y="357" type="line"/>
			<point x="219" y="357" type="line"/>
			<point x="-22" y="629" type="line"/>
			<point x="-134" y="629" type="line"/>
			<point x="145" y="314" type="line"/>
		</contour>
	</outline>
</glyph>
<glyph name="greater_greater_hyphen.rem" format="2">
	<advance width="600"/>
	<outline>
		<contour>
			<point x="-1065" y="0" type="line"/>
			<point x="-952" y="0" type="line"/>
			<point x="-675" y="314" type="line"/>
			<point x="-955" y="629" type="line"/>
			<point x="-1068" y="629" type="line"/>
			<point x="-786" y="314" type="line"/>
		</contour>
		<contour>
			<point x="-685" y="0" type="line"/>
			<point x="-573" y="0" type="line"/>
			<point x="-333" y="272" type="line"/>
			<point x="474" y="272" type="line"/>
			<point x="474" y="357" type="line"/>
			<point x="-335" y="357" type="line"/>
			<point x="-576" y="629" type="line"/>
			<point x="-688" y="629" type="line"/>
			<point x="-409" y="314" type="line"/>
		</contour>
	</outline>
</glyph>
<glyph name="greater_hyphen.fina" format="2">
	<advance width="600"/>
	<outline>
		<contour>
			<point x="125" y="629" type="line"/>
			<point x="375" y="357" type="line"/>
			<point x="0" y="357" type="line"/>
			<point x="0" y="272" type="line"/>
			<point x="376" y="272" type="line"/>
			<point x="129" y="0" type="line"/>
			<point x="240" y="0" type="line"/>
			<point x="518" y="314" type="line"/>
			<point x="237" y="629" type="line"/>
		</contour>
	</outline>
</glyph>
<glyph name="greater_hyphen.init" format="2">
	<advance width="600"/>
	<outline>
		<contour>
			<point x="89" y="0" type="line"/>
			<point x="201" y="0" type="line"/>
			<point x="440" y="272" type="line"/>
			<point x="600" y="272" type="line"/>
			<point x="600" y="357" type="line"/>
			<point x="438" y="357" type="line"/>
			<point x="198" y="629" type="line"/>
			<point x="86" y="629" type="line"/>
			<point x="364" y="314" type="line"/>
		</contour>
	</outline>
</glyph>
<glyph name="greater_hyphen.med" format="2">
	<advance width="600"/>
	<outline>
		<contour>
			<point x="131" y="0" type="line"/>
			<point x="239" y="0" type="line"/>
			<point x="480" y="271" type="line"/>
			<point x="600" y="271" type="line"/>
			<point x="600" y="356" type="line"/>
			<point x="480" y="356" type="line"/>
			<point x="236" y="629" type="line"/>
			<point x="128" y="629" type="line"/>
			<point x="374" y="356" type="line"/>
			<point x="0" y="356" type="line"/>
			<point x="0" y="271" type="line"/>
			<point x="374" y="271" type="line"/>
		</contour>
	</outline>
</glyph>
<glyph name="greater_hyphen_greater.rem" format="2">
	<advance width="600"/>
	<outline>
		<contour>
			<point x="-551" y="272" type="line"/>
			<point x="325" y="272" type="line"/>
			<point x="78" y="0" type="line"/>
			<point x="189" y="0" type="line"/>
			<point x="467" y="314" type="line"/>
			<point x="186" y="629" type="line"/>
			<point x="74" y="629" type="line"/>
			<point x="324" y="357" type="line"/>
			<point x="-551" y="357" type="line"/>
		</contour>
		<contour>
			<point x="-1063" y="0" type="line"/>
			<point x="-951" y="0" type="line"/>
			<point x="-712" y="272" type="line"/>
			<point x="-552" y="272" type="line"/>
			<point x="-552" y="357" type="line"/>
			<point x="-714" y="357" type="line"/>
			<point x="-954" y="629" type="line"/>
			<point x="-1066" y="629" type="line"/>
			<point x="-788" y="314" type="line"/>
		</contour>
	</outline>
</glyph>
<glyph name="hungarumlaut.cap" format="2">
	<advance width="600"/>
	<outline>
		<contour>
			<point x="298" y="747" type="line"/>
			<point x="364" y="747" type="line"/>
			<point x="449" y="884" type="line"/>
			<point x="359" y="884" type="line"/>
		</contour>
		<contour>
			<point x="151" y="747" type="line"/>
			<point x="218" y="747" type="line"/>
			<point x="301" y="884" type="line"/>
			<point x="211" y="884" type="line"/>
		</contour>
	</outline>
	<anchor name="_top" x="258" y="684"/>
</glyph>
<glyph name="hyphen.init" format="2">
	<advance width="600"/>
	<outline>
		<contour>
			<point x="172" y="272" type="line"/>
			<point x="600" y="272" type="line"/>
			<point x="600" y="357" type="line"/>
			<point x="172" y="357" type="line"/>
		</contour>
	</outline>
</glyph>
